{
.appVersion = "1075";
classes = (
{
automatic = 1;

glyphs = (
{
glyphname = A;
layers = (
{
anchors = (
{
name = bottom;
position = "{388, 0}";
},
{
name = ogonek;
position = "{717, 0}";
},
{
name = top;
position = "{388, 735}";
}
);
guideLines = (
{
angle = -110;
position = "{221, 246}";
},
{
angle = 110.6787;
position = "{566, 403}";
},
{
angle = 110.6787;
position = "{440, 403}";
},
{
angle = 90;
position = "{358, 621}";
},
{
angle = 90;
position = "{336, 621}";
},
{
angle = 90;
position = "{388, 704}";
}
);
layerId = "EE746D13-63D7-48F9-B77E-C723CA6A668B";
paths = (
{
closed = 1;
nodes = (
"280 0 LINE",
"280 70 LINE",
"157 70 LINE",
"221 246 LINE",
"499 246 LINE",
"566 70 LINE",
"457 70 LINE",
"457 0 LINE",
"773 0 LINE",
"773 70 LINE",
"691 70 LINE",
"440 735 LINE",
"336 735 LINE",
"74 70 LINE",
"-14 70 LINE",
"-14 0 LINE"
);
},
{
closed = 1;
nodes = (
"358 621 LINE",
"476 308 LINE",
"244 308 LINE"
);
}
);
width = 750;
}
);
leftKerningGroup = A;
note = A;
rightKerningGroup = A;
unicode = 0041;
},
{
glyphname = AE;
layers = (
{
layerId = "EE746D13-63D7-48F9-B77E-C723CA6A668B";
paths = (
{
closed = 1;
nodes = (
"-14 0 LINE",
"288 0 LINE",
"288 67 LINE",
"167 67 LINE",
"273 249 LINE",
"503 249 LINE",
"503 67 LINE",
"413 67 LINE",
"413 0 LINE",
"1036 0 LINE",
"1036 279 LINE",
"948 279 LINE",
"948 67 LINE",
"609 67 LINE",
"609 341 LINE",
"772 341 LINE",
"772 214 LINE",
"837 214 LINE",
"837 517 LINE",
"772 517 LINE",
"772 397 LINE",
"609 397 LINE",
"609 652 LINE",
"948 652 LINE",
"948 439 LINE",
"1036 439 LINE",
"1036 722 LINE",
"283 722 LINE",
"283 652 LINE",
"413 652 LINE",
"74 67 LINE",
"-14 67 LINE"
);
},
{
closed = 1;
nodes = (
"307 308 LINE",
"503 646 LINE",
"503 308 LINE"
);
}
);
width = 1120;
}
);
leftKerningGroup = A;
leftMetricsKey = A;
rightKerningGroup = E;
rightMetricsKey = E;
unicode = 00C6;
},
{
glyphname = B;
layers = (
{
anchors = (
{
name = bottom;
position = "{344, 0}";
},
{
name = top;
position = "{344, 735}";
}
);
guideLines = (
{
angle = 90;
position = "{344, 35}";
}
);
layerId = "EE746D13-63D7-48F9-B77E-C723CA6A668B";
paths = (
{
closed = 1;
nodes = (
"325 0 LINE SMOOTH",
"507 0 OFFCURVE",
"656 44 OFFCURVE",
"656 210 CURVE SMOOTH",
"656 302 OFFCURVE",
"594 368 OFFCURVE",
"482 395 CURVE",
"570 423 OFFCURVE",
"617 483 OFFCURVE",
"617 546 CURVE SMOOTH",
"617 684 OFFCURVE",
"506 735 OFFCURVE",
"341 735 CURVE SMOOTH",
"32 735 LINE",
"32 665 LINE",
"151 665 LINE",
"151 70 LINE",
"32 70 LINE",
"32 0 LINE"
);
},
{
closed = 1;
nodes = (
"266 356 LINE",
"342 356 LINE SMOOTH",
"445 356 OFFCURVE",
"541 316 OFFCURVE",
"541 213 CURVE SMOOTH",
"541 92 OFFCURVE",
"456 70 OFFCURVE",
"294 70 CURVE SMOOTH",
"266 70 LINE"
);
},
{
closed = 1;
nodes = (
"266 665 LINE",
"285 665 LINE SMOOTH",
"410 665 OFFCURVE",
"511 657 OFFCURVE",
"511 543 CURVE SMOOTH",
"511 457 OFFCURVE",
"430 421 OFFCURVE",
"342 421 CURVE SMOOTH",
"266 421 LINE"
);
}
);
width = 692;
}
);
leftKerningGroup = H;
leftMetricsKey = H;
note = B;
rightKerningGroup = B;
unicode = 0042;
},
{
glyphname = C;
layers = (
{
anchors = (
{
name = bottom;
position = "{425, 0}";
},
{
name = top;
position = "{405, 735}";
}
);
background = {
paths = (
{
closed = 1;
nodes = (
"471 -13 OFFCURVE",
"512 -6 OFFCURVE",
"551 9 CURVE SMOOTH",
"627 38 OFFCURVE",
"679 87 OFFCURVE",
"717 153 CURVE SMOOTH",
"754 218 OFFCURVE",
"772 292 OFFCURVE",
"772 368 CURVE SMOOTH",
"772 406 OFFCURVE",
"767 443 OFFCURVE",
"759 480 CURVE SMOOTH",
"741 552 OFFCURVE",
"702 620 OFFCURVE",
"648 669 CURVE SMOOTH",
"595 719 OFFCURVE",
"516 750 OFFCURVE",
"425 750 CURVE SMOOTH",
"380 750 OFFCURVE",
"338 743 OFFCURVE",
"300 729 CURVE SMOOTH",
"223 699 OFFCURVE",
"171 649 OFFCURVE",
"133 583 CURVE SMOOTH",
"96 518 OFFCURVE",
"78 444 OFFCURVE",
"78 368 CURVE SMOOTH",
"78 330 OFFCURVE",
"82 293 OFFCURVE",
"92 256 CURVE SMOOTH",
"109 184 OFFCURVE",
"148 116 OFFCURVE",
"202 67 CURVE SMOOTH",
"256 18 OFFCURVE",
"335 -13 OFFCURVE",
"425 -13 CURVE SMOOTH"
);
},
{
closed = 1;
nodes = (
"397 55 OFFCURVE",
"371 61 OFFCURVE",
"347 73 CURVE SMOOTH",
"298 96 OFFCURVE",
"265 137 OFFCURVE",
"240 190 CURVE SMOOTH",
"215 244 OFFCURVE",
"203 305 OFFCURVE",
"203 369 CURVE SMOOTH",
"203 449 OFFCURVE",
"223 525 OFFCURVE",
"260 584 CURVE SMOOTH",
"296 643 OFFCURVE",
"355 682 OFFCURVE",
"425 682 CURVE SMOOTH",
"453 682 OFFCURVE",
"479 676 OFFCURVE",
"503 664 CURVE SMOOTH",
"552 640 OFFCURVE",
"585 598 OFFCURVE",
"610 545 CURVE SMOOTH",
"635 492 OFFCURVE",
"647 430 OFFCURVE",
"647 367 CURVE SMOOTH",
"647 288 OFFCURVE",
"627 211 OFFCURVE",
"591 153 CURVE SMOOTH",
"555 94 OFFCURVE",
"495 55 OFFCURVE",
"425 55 CURVE SMOOTH"
);
}
);
};
guideLines = (
{
angle = 90;
position = "{308, 685}";
},
{
angle = 90;
position = "{425, 642}";
},
{
position = "{654, 239}";
},
{
angle = 76.569;
position = "{721, 239}";
},
{
angle = 166.569;
position = "{688, 247}";
},
{
angle = 76.569;
position = "{638, 259}";
}
);
layerId = "EE746D13-63D7-48F9-B77E-C723CA6A668B";
paths = (
{
closed = 1;
nodes = (
"567 -13 OFFCURVE",
"683 78 OFFCURVE",
"721 239 CURVE",
"638 259 LINE",
"611 148 OFFCURVE",
"534 70 OFFCURVE",
"415 70 CURVE SMOOTH",
"258 70 OFFCURVE",
"173 192 OFFCURVE",
"173 373 CURVE SMOOTH",
"173 558 OFFCURVE",
"270 678 OFFCURVE",
"431 678 CURVE SMOOTH",
"538 678 OFFCURVE",
"598 623 OFFCURVE",
"615 584 CURVE",
"571 584 OFFCURVE",
"533 556 OFFCURVE",
"533 506 CURVE SMOOTH",
"533 456 OFFCURVE",
"567 425 OFFCURVE",
"616 425 CURVE SMOOTH",
"674 425 OFFCURVE",
"712 469 OFFCURVE",
"712 524 CURVE SMOOTH",
"712 655 OFFCURVE",
"577 750 OFFCURVE",
"421 750 CURVE SMOOTH",
"181 750 OFFCURVE",
"48 576 OFFCURVE",
"48 368 CURVE SMOOTH",
"48 161 OFFCURVE",
"183 -13 OFFCURVE",
"405 -13 CURVE SMOOTH"
);
}
);
width = 765;
}
);
leftKerningGroup = O;
leftMetricsKey = O;
rightKerningGroup = O;
unicode = 0043;
},
{
glyphname = D;
layers = (
{
anchors = (
{
name = bottom;
position = "{398, 0}";
},
{
name = strokeshort;
position = "{373, 354}";
},
{
name = top;
position = "{398, 735}";
}
);
background = {
paths = (
{
closed = 1;
nodes = (
"271 0 LINE SMOOTH",
"327 0 OFFCURVE",
"379 4 OFFCURVE",
"426 13 CURVE SMOOTH",
"520 31 OFFCURVE",
"601 69 OFFCURVE",
"656 126 CURVE SMOOTH",
"710 184 OFFCURVE",
"741 268 OFFCURVE",
"741 372 CURVE SMOOTH",
"741 427 OFFCURVE",
"732 477 OFFCURVE",
"714 520 CURVE SMOOTH",
"677 605 OFFCURVE",
"618 655 OFFCURVE",
"532 689 CURVE SMOOTH",
"446 724 OFFCURVE",
"358 735 OFFCURVE",
"253 735 CURVE SMOOTH",
"32 735 LINE",
"32 665 LINE",
"151 665 LINE",
"151 70 LINE",
"32 70 LINE",
"32 0 LINE"
);
},
{
closed = 1;
nodes = (
"266 664 LINE",
"294 664 OFFCURVE",
"319 663 OFFCURVE",
"343 661 CURVE SMOOTH",
"390 657 OFFCURVE",
"441 646 OFFCURVE",
"480 627 CURVE SMOOTH",
"519 609 OFFCURVE",
"556 579 OFFCURVE",
"579 539 CURVE SMOOTH",
"602 499 OFFCURVE",
"616 441 OFFCURVE",
"616 372 CURVE SMOOTH",
"616 326 OFFCURVE",
"610 285 OFFCURVE",
"598 250 CURVE SMOOTH",
"574 180 OFFCURVE",
"534 137 OFFCURVE",
"473 108 CURVE SMOOTH",
"412 80 OFFCURVE",
"348 70 OFFCURVE",
"266 70 CURVE"
);
}
);
};
guideLines = (
{
angle = 90;
position = "{398, 375}";
}
);
layerId = "EE746D13-63D7-48F9-B77E-C723CA6A668B";
paths = (
{
closed = 1;
nodes = (
"299 0 LINE SMOOTH",
"577 0 OFFCURVE",
"764 111 OFFCURVE",
"764 372 CURVE SMOOTH",
"764 637 OFFCURVE",
"558 735 OFFCURVE",
"299 735 CURVE SMOOTH",
"32 735 LINE",
"32 665 LINE",
"151 665 LINE",
"151 70 LINE",
"32 70 LINE",
"32 0 LINE"
);
},
{
closed = 1;
nodes = (
"266 664 LINE",
"299 664 LINE",
"512 664 OFFCURVE",
"644 593 OFFCURVE",
"644 372 CURVE SMOOTH",
"644 156 OFFCURVE",
"511 70 OFFCURVE",
"299 70 CURVE",
"300 70 OFFCURVE",
"266 70 OFFCURVE",
"266 70 CURVE"
);
}
);
width = 812;
}
);
leftKerningGroup = H;
leftMetricsKey = H;
note = D;
rightKerningGroup = D;
rightMetricsKey = O;
unicode = 0044;
},
{
glyphname = E;
layers = (
{
anchors = (
{
name = bottom;
position = "{384, 0}";
},
{
name = ogonek;
position = "{638, 0}";
},
{
name = top;
position = "{376, 735}";
}
);
guideLines = (
{
angle = 90;
position = "{363, 735}";
}
);
layerId = "EE746D13-63D7-48F9-B77E-C723CA6A668B";
paths = (
{
closed = 1;
nodes = (
"693 0 LINE",
"693 279 LINE",
"605 279 LINE",
"605 70 LINE",
"266 70 LINE",
"266 345 LINE",
"429 345 LINE",
"429 218 LINE",
"494 218 LINE",
"494 521 LINE",
"429 521 LINE",
"429 401 LINE",
"266 401 LINE",
"266 665 LINE",
"605 665 LINE",
"605 452 LINE",
"693 452 LINE",
"693 735 LINE",
"32 735 LINE",
"32 665 LINE",
"151 665 LINE",
"151 70 LINE",
"32 70 LINE",
"32 0 LINE"
);
}
);
width = 777;
}
);
leftKerningGroup = H;
leftMetricsKey = H;
note = E;
rightKerningGroup = E;
unicode = 0045;
},
{
glyphname = F;
layers = (
{
anchors = (
{
name = bottom;
position = "{208, 0}";
},
{
name = top;
position = "{345, 735}";
}
);
layerId = "EE746D13-63D7-48F9-B77E-C723CA6A668B";
paths = (
{
closed = 1;
nodes = (
"393 0 LINE",
"393 70 LINE",
"266 70 LINE",
"266 354 LINE",
"412 354 LINE",
"412 230 LINE",
"479 230 LINE",
"479 515 LINE",
"412 515 LINE",
"412 412 LINE",
"266 412 LINE",
"266 665 LINE",
"568 665 LINE",
"568 467 LINE",
"657 467 LINE",
"657 735 LINE",
"32 735 LINE",
"32 665 LINE",
"151 665 LINE",
"151 70 LINE",
"32 70 LINE",
"32 0 LINE"
);
}
);
width = 711;
}
);
leftKerningGroup = H;
leftMetricsKey = H;
note = F;
rightKerningGroup = F;
unicode = 0046;
},
{
glyphname = G;
layers = (
{
anchors = (
{
name = bottom;
position = "{425, 0}";
},
{
name = top;
position = "{405, 735}";
}
);
guideLines = (
{
angle = 90;
position = "{616, 395}";
},
{
angle = 103.1164;
position = "{650, 0}";
}
);
layerId = "EE746D13-63D7-48F9-B77E-C723CA6A668B";
paths = (
{
closed = 1;
nodes = (
"471 256 LINE",
"609 256 LINE",
"609 206 LINE SMOOTH",
"609 151 OFFCURVE",
"534 70 OFFCURVE",
"415 70 CURVE SMOOTH",
"258 70 OFFCURVE",
"173 182 OFFCURVE",
"173 373 CURVE SMOOTH",
"173 568 OFFCURVE",
"280 678 OFFCURVE",
"431 678 CURVE SMOOTH",
"528 678 OFFCURVE",
"598 633 OFFCURVE",
"620 594 CURVE",
"581 594 OFFCURVE",
"543 566 OFFCURVE",
"543 516 CURVE SMOOTH",
"543 466 OFFCURVE",
"577 435 OFFCURVE",
"629 435 CURVE SMOOTH",
"684 435 OFFCURVE",
"722 479 OFFCURVE",
"722 534 CURVE SMOOTH",
"722 645 OFFCURVE",
"587 750 OFFCURVE",
"421 750 CURVE SMOOTH",
"191 750 OFFCURVE",
"48 586 OFFCURVE",
"48 368 CURVE SMOOTH",
"48 151 OFFCURVE",
"173 -13 OFFCURVE",
"395 -13 CURVE SMOOTH",
"534 -13 OFFCURVE",
"609 59 OFFCURVE",
"631 80 CURVE",
"650 0 LINE",
"709 0 LINE",
"709 256 LINE",
"789 256 LINE",
"789 330 LINE",
"471 330 LINE"
);
}
);
width = 821;
}
);
leftKerningGroup = O;
leftMetricsKey = O;
note = G;
rightKerningGroup = O;
unicode = 0047;
},
{
glyphname = H;
layers = (
{
anchors = (
{
name = bottom;
position = "{438, 0}";
},
{
name = strokelong;
position = "{438, 548}";
},
{
name = top;
position = "{438, 735}";
}
);
guideLines = (
{
angle = 90;
position = "{438, 700}";
}
);
layerId = "EE746D13-63D7-48F9-B77E-C723CA6A668B";
paths = (
{
closed = 1;
nodes = (
"378 0 LINE",
"378 70 LINE",
"266 70 LINE",
"266 354 LINE",
"611 354 LINE",
"611 70 LINE",
"498 70 LINE",
"498 0 LINE",
"845 0 LINE",
"845 70 LINE",
"726 70 LINE",
"726 665 LINE",
"845 665 LINE",
"845 735 LINE",
"498 735 LINE",
"498 665 LINE",
"611 665 LINE",
"611 416 LINE",
"266 416 LINE",
"266 665 LINE",
"378 665 LINE",
"378 735 LINE",
"32 735 LINE",
"32 665 LINE",
"151 665 LINE",
"151 70 LINE",
"32 70 LINE",
"32 0 LINE"
);
}
);
width = 877;
}
);
leftKerningGroup = H;
note = H;
rightKerningGroup = H;
unicode = 0048;
},
{
glyphname = I;
layers = (
{
anchors = (
{
name = bottom;
position = "{226, 0}";
},
{
name = ogonek;
position = "{353, 0}";
},
{
name = top;
position = "{226, 735}";
}
);
guideLines = (
{
angle = 90;
position = "{226, 368}";
}
);
layerId = "EE746D13-63D7-48F9-B77E-C723CA6A668B";
paths = (
{
closed = 1;
nodes = (
"408 0 LINE",
"408 70 LINE",
"283 70 LINE",
"283 665 LINE",
"408 665 LINE",
"408 735 LINE",
"43 735 LINE",
"43 665 LINE",
"168 665 LINE",
"168 70 LINE",
"43 70 LINE",
"43 0 LINE"
);
}
);
width = 451;
}
);
leftKerningGroup = H;
note = I;
rightKerningGroup = H;
unicode = 0049;
},
{
glyphname = IJ;
layers = (
{
anchors = (
{
name = bottom;
position = "{366, 0}";
},
{
name = ogonek;
position = "{493, 0}";
},
{
name = top;
position = "{366, 735}";
}
);
layerId = "EE746D13-63D7-48F9-B77E-C723CA6A668B";
paths = (
{
closed = 1;
nodes = (
"589 0 LINE",
"589 70 LINE",
"464 70 LINE",
"464 665 LINE",
"589 665 LINE",
"589 735 LINE",
"224 735 LINE",
"224 665 LINE",
"349 665 LINE",
"349 70 LINE",
"224 70 LINE",
"224 0 LINE"
);
},
{
closed = 1;
nodes = (
"790 -281 OFFCURVE",
"850 -188 OFFCURVE",
"850 -18 CURVE SMOOTH",
"850 665 LINE",
"981 665 LINE",
"981 735 LINE",
"589 735 LINE",
"589 665 LINE",
"740 665 LINE",
"740 -31 LINE SMOOTH",
"740 -145 OFFCURVE",
"728 -226 OFFCURVE",
"625 -226 CURVE SMOOTH",
"594 -226 OFFCURVE",
"547 -214 OFFCURVE",
"535 -196 CURVE",
"562 -180 OFFCURVE",
"589 -149 OFFCURVE",
"589 -114 CURVE SMOOTH",
"589 -67 OFFCURVE",
"551 -36 OFFCURVE",
"508 -36 CURVE SMOOTH",
"463 -36 OFFCURVE",
"425 -68 OFFCURVE",
"425 -123 CURVE SMOOTH",
"425 -210 OFFCURVE",
"509 -281 OFFCURVE",
"628 -281 CURVE SMOOTH"
);
}
);
width = 981;
}
);
leftKerningGroup = H;
rightKerningGroup = H;
unicode = 0132;
},
{
glyphname = J;
layers = (
{
layerId = "EE746D13-63D7-48F9-B77E-C723CA6A668B";
paths = (
{
closed = 1;
nodes = (
"395 -13 OFFCURVE",
"455 80 OFFCURVE",
"455 250 CURVE SMOOTH",
"455 665 LINE",
"586 665 LINE",
"586 735 LINE",
"194 735 LINE",
"194 665 LINE",
"345 665 LINE",
"345 237 LINE SMOOTH",
"345 123 OFFCURVE",
"333 42 OFFCURVE",
"230 42 CURVE SMOOTH",
"199 42 OFFCURVE",
"152 54 OFFCURVE",
"140 72 CURVE",
"167 88 OFFCURVE",
"194 119 OFFCURVE",
"194 154 CURVE SMOOTH",
"194 201 OFFCURVE",
"156 232 OFFCURVE",
"113 232 CURVE SMOOTH",
"68 232 OFFCURVE",
"30 200 OFFCURVE",
"30 145 CURVE SMOOTH",
"30 58 OFFCURVE",
"114 -13 OFFCURVE",
"233 -13 CURVE SMOOTH"
);
}
);
width = 604;
}
);
leftKerningGroup = J;
rightKerningGroup = J;
rightMetricsKey = U;
unicode = 004A;
},
{
glyphname = J.alt;
layers = (
{
anchors = (
{
name = bottom;
position = "{344, 0}";
},
{
name = top;
position = "{339, 735}";
}
);
guideLines = (
{
angle = 90;
position = "{344, 344}";
}
);
layerId = "EE746D13-63D7-48F9-B77E-C723CA6A668B";
paths = (
{
closed = 1;
nodes = (
"339 -228 OFFCURVE",
"399 -135 OFFCURVE",
"399 35 CURVE SMOOTH",
"399 665 LINE",
"530 665 LINE",
"530 735 LINE",
"138 735 LINE",
"138 665 LINE",
"289 665 LINE",
"289 22 LINE SMOOTH",
"289 -92 OFFCURVE",
"277 -173 OFFCURVE",
"174 -173 CURVE SMOOTH",
"143 -173 OFFCURVE",
"96 -161 OFFCURVE",
"84 -143 CURVE",
"111 -127 OFFCURVE",
"138 -96 OFFCURVE",
"138 -61 CURVE SMOOTH",
"138 -14 OFFCURVE",
"100 17 OFFCURVE",
"57 17 CURVE SMOOTH",
"12 17 OFFCURVE",
"-26 -15 OFFCURVE",
"-26 -70 CURVE SMOOTH",
"-26 -157 OFFCURVE",
"58 -228 OFFCURVE",
"177 -228 CURVE SMOOTH"
);
}
);
width = 530;
}
);
leftKerningGroup = J;
note = J;
rightKerningGroup = J;
},
{
glyphname = K;
layers = (
{
anchors = (
{
name = bottom;
position = "{423, 0}";
},
{
name = top;
position = "{423, 735}";
}
);
guideLines = (
{
angle = 42.8789;
position = "{434, 509}";
},
{
angle = 42.8789;
position = "{527, 509}";
},
{
angle = 128.7351;
position = "{572, 70}";
},
{
angle = 128.7351;
position = "{596, 209}";
}
);
layerId = "EE746D13-63D7-48F9-B77E-C723CA6A668B";
paths = (
{
closed = 1;
nodes = (
"369 0 LINE",
"369 70 LINE",
"266 70 LINE",
"266 267 LINE",
"351 346 LINE",
"572 70 LINE",
"463 70 LINE",
"463 0 LINE",
"803 0 LINE",
"803 70 LINE",
"707 70 LINE",
"429 418 LINE",
"695 665 LINE",
"797 665 LINE",
"797 735 LINE",
"478 735 LINE",
"478 665 LINE",
"590 665 LINE",
"266 359 LINE",
"266 665 LINE",
"369 665 LINE",
"369 735 LINE",
"32 735 LINE",
"32 665 LINE",
"151 665 LINE",
"151 70 LINE",
"32 70 LINE",
"32 0 LINE"
);
}
);
width = 812;
}
);
leftKerningGroup = H;
leftMetricsKey = H;
note = K;
rightKerningGroup = B;
unicode = 004B;
},
{
glyphname = L;
layers = (
{
anchors = (
{
name = bottom;
position = "{341, 0}";
},
{
name = caron;
position = "{559, 524}";
},
{
name = slashshort;
position = "{208, 340}";
},
{
name = top;
position = "{210, 735}";
}
);
layerId = "EE746D13-63D7-48F9-B77E-C723CA6A668B";
paths = (
{
closed = 1;
nodes = (
"650 0 LINE",
"650 305 LINE",
"559 305 LINE",
"559 70 LINE",
"266 70 LINE",
"266 665 LINE",
"378 665 LINE",
"378 735 LINE",
"32 735 LINE",
"32 665 LINE",
"151 665 LINE",
"151 70 LINE",
"32 70 LINE",
"32 0 LINE"
);
}
);
width = 686;
}
);
leftKerningGroup = H;
leftMetricsKey = H;
note = L;
rightKerningGroup = L;
unicode = 004C;
},
{
glyphname = LJ;
layers = (
{
anchors = (
{
name = bottom;
position = "{884, 0}";
},
{
name = top;
position = "{879, 735}";
}
);
components = (
{
name = L;
}
);
guideLines = (
{
angle = 90;
position = "{155, 314}";
}
);
layerId = "EE746D13-63D7-48F9-B77E-C723CA6A668B";
paths = (
{
closed = 1;
nodes = (
"873 -281 OFFCURVE",
"933 -188 OFFCURVE",
"933 -18 CURVE SMOOTH",
"933 665 LINE",
"1064 665 LINE",
"1064 735 LINE",
"672 735 LINE",
"672 665 LINE",
"823 665 LINE",
"823 -31 LINE SMOOTH",
"823 -145 OFFCURVE",
"811 -226 OFFCURVE",
"708 -226 CURVE SMOOTH",
"677 -226 OFFCURVE",
"630 -214 OFFCURVE",
"618 -196 CURVE",
"645 -180 OFFCURVE",
"672 -149 OFFCURVE",
"672 -114 CURVE SMOOTH",
"672 -67 OFFCURVE",
"634 -36 OFFCURVE",
"591 -36 CURVE SMOOTH",
"546 -36 OFFCURVE",
"508 -68 OFFCURVE",
"508 -123 CURVE SMOOTH",
"508 -210 OFFCURVE",
"592 -281 OFFCURVE",
"711 -281 CURVE SMOOTH"
);
}
);
width = 1064;
}
);
leftKerningGroup = H;
leftMetricsKey = L;
note = uni01C7;
rightKerningGroup = J;
rightMetricsKey = J;
unicode = 01C7;
},
{
glyphname = M;
layers = (
{
anchors = (
{
name = bottom;
position = "{537, 0}";
},
{
name = top;
position = "{536, 735}";
}
);
guideLines = (
{
position = "{495, 106}";
},
{
angle = 64.9228;
position = "{647, 501}";
},
{
angle = 64.9228;
position = "{730, 501}";
},
{
angle = 113.9625;
position = "{433, 501}";
},
{
angle = 113.9625;
position = "{313, 501}";
},
{
position = "{97, 665}";
},
{
angle = 90;
position = "{536, 269}";
}
);
layerId = "EE746D13-63D7-48F9-B77E-C723CA6A668B";
paths = (
{
closed = 1;
nodes = (
"361 0 LINE",
"361 70 LINE",
"238 70 LINE",
"238 665 LINE",
"240 665 LINE",
"489 106 LINE",
"545 106 LINE",
"802 655 LINE",
"802 70 LINE",
"695 70 LINE",
"695 0 LINE",
"1038 0 LINE",
"1038 70 LINE",
"917 70 LINE",
"917 665 LINE",
"1031 665 LINE",
"1031 735 LINE",
"840 735 LINE",
"756 735 LINE",
"537 267 LINE",
"329 735 LINE",
"209 735 LINE",
"39 735 LINE",
"39 665 LINE",
"155 665 LINE",
"155 70 LINE",
"48 70 LINE",
"48 0 LINE"
);
}
);
width = 1075;
}
);
leftKerningGroup = H;
note = M;
rightKerningGroup = H;
unicode = 004D;
},
{
glyphname = N;
layers = (
{
anchors = (
{
name = bottom;
position = "{446, 0}";
},
{
name = top;
position = "{446, 735}";
}
);
guideLines = (
{
angle = 121.1028;
position = "{476, 433}";
},
{
angle = 121.1028;
position = "{360, 433}";
},
{
angle = 90;
position = "{446, 368}";
}
);
layerId = "EE746D13-63D7-48F9-B77E-C723CA6A668B";
paths = (
{
closed = 1;
nodes = (
"352 0 LINE",
"352 70 LINE",
"240 70 LINE",
"240 631 LINE",
"606 0 LINE",
"741 0 LINE",
"741 665 LINE",
"853 665 LINE",
"853 735 LINE",
"539 735 LINE",
"539 665 LINE",
"658 665 LINE",
"658 130 LINE",
"308 735 LINE",
"178 735 LINE",
"39 735 LINE",
"39 665 LINE",
"157 665 LINE",
"157 70 LINE",
"39 70 LINE",
"39 0 LINE"
);
}
);
width = 880;
}
);
leftKerningGroup = H;
leftMetricsKey = M;
note = N;
rightKerningGroup = H;
unicode = 004E;
},
{
glyphname = Eng;
layers = (
{
anchors = (
{
name = bottom;
position = "{446, 0}";
},
{
name = top;
position = "{446, 735}";
}
);
layerId = "EE746D13-63D7-48F9-B77E-C723CA6A668B";
paths = (
{
closed = 1;
nodes = (
"352 0 LINE",
"352 70 LINE",
"240 70 LINE",
"240 631 LINE",
"606 0 LINE",
"741 0 LINE",
"741 665 LINE",
"853 665 LINE",
"853 735 LINE",
"539 735 LINE",
"539 665 LINE",
"658 665 LINE",
"658 130 LINE",
"308 735 LINE",
"178 735 LINE",
"39 735 LINE",
"39 665 LINE",
"157 665 LINE",
"157 70 LINE",
"39 70 LINE",
"39 0 LINE"
);
},
{
closed = 1;
nodes = (
"672 -230 OFFCURVE",
"741 -164 OFFCURVE",
"741 -44 CURVE SMOOTH",
"741 114 LINE",
"658 114 LINE",
"658 -59 LINE SMOOTH",
"658 -129 OFFCURVE",
"625 -181 OFFCURVE",
"567 -181 CURVE SMOOTH",
"554 -181 OFFCURVE",
"531 -178 OFFCURVE",
"522 -171 CURVE",
"533 -163 OFFCURVE",
"549 -146 OFFCURVE",
"549 -119 CURVE SMOOTH",
"549 -84 OFFCURVE",
"520 -55 OFFCURVE",
"485 -55 CURVE SMOOTH",
"450 -55 OFFCURVE",
"421 -84 OFFCURVE",
"421 -119 CURVE SMOOTH",
"421 -181 OFFCURVE",
"473 -230 OFFCURVE",
"569 -230 CURVE SMOOTH"
);
}
);
width = 1194;
}
);
leftKerningGroup = H;
rightKerningGroup = J;
unicode = 014A;
},
{
glyphname = O;
layers = (
{
anchors = (
{
name = bottom;
position = "{402, 0}";
},
{
name = horn;
position = "{510, 735}";
},
{
name = slashlong;
position = "{402, 369}";
},
{
name = top;
position = "{402, 735}";
}
);
guideLines = (
{
angle = 90;
position = "{402, 369}";
}
);
layerId = "EE746D13-63D7-48F9-B77E-C723CA6A668B";
paths = (
{
closed = 1;
nodes = (
"623 -13 OFFCURVE",
"756 153 OFFCURVE",
"756 369 CURVE SMOOTH",
"756 585 OFFCURVE",
"623 750 OFFCURVE",
"402 750 CURVE SMOOTH",
"181 750 OFFCURVE",
"48 585 OFFCURVE",
"48 369 CURVE SMOOTH",
"48 153 OFFCURVE",
"181 -13 OFFCURVE",
"402 -13 CURVE SMOOTH"
);
},
{
closed = 1;
nodes = (
"253 57 OFFCURVE",
"173 215 OFFCURVE",
"173 369 CURVE SMOOTH",
"173 523 OFFCURVE",
"253 680 OFFCURVE",
"402 680 CURVE SMOOTH",
"547 680 OFFCURVE",
"631 523 OFFCURVE",
"631 369 CURVE SMOOTH",
"631 215 OFFCURVE",
"555 57 OFFCURVE",
"402 57 CURVE SMOOTH"
);
}
);
width = 804;
}
);
leftKerningGroup = O;
note = O;
rightKerningGroup = O;
unicode = 004F;
},
{
glyphname = OE;
layers = (
{
layerId = "EE746D13-63D7-48F9-B77E-C723CA6A668B";
paths = (
{
closed = 1;
nodes = (
"1053 0 LINE",
"1053 279 LINE",
"965 279 LINE",
"965 67 LINE",
"626 67 LINE",
"626 341 LINE",
"789 341 LINE",
"789 214 LINE",
"854 214 LINE",
"854 517 LINE",
"789 517 LINE",
"789 397 LINE",
"626 397 LINE",
"626 652 LINE",
"965 652 LINE",
"965 439 LINE",
"1053 439 LINE",
"1053 722 LINE",
"384 722 LINE SMOOTH",
"186 722 OFFCURVE",
"48 573 OFFCURVE",
"48 362 CURVE SMOOTH",
"48 154 OFFCURVE",
"182 0 OFFCURVE",
"382 0 CURVE SMOOTH"
);
},
{
closed = 1;
nodes = (
"385 67 LINE SMOOTH",
"264 67 OFFCURVE",
"173 181 OFFCURVE",
"173 363 CURVE SMOOTH",
"173 527 OFFCURVE",
"252 652 OFFCURVE",
"400 652 CURVE SMOOTH",
"516 652 LINE",
"516 67 LINE"
);
}
);
width = 1137;
}
);
leftKerningGroup = O;
leftMetricsKey = O;
rightKerningGroup = E;
rightMetricsKey = E;
unicode = 0152;
},
{
glyphname = P;
layers = (
{
anchors = (
{
name = top;
position = "{345, 735}";
}
);
guideLines = (
{
angle = 90;
position = "{332, 700}";
}
);
layerId = "EE746D13-63D7-48F9-B77E-C723CA6A668B";
paths = (
{
closed = 1;
nodes = (
"388 0 LINE",
"388 70 LINE",
"266 70 LINE",
"266 309 LINE",
"342 309 LINE SMOOTH",
"508 309 OFFCURVE",
"658 364 OFFCURVE",
"658 523 CURVE SMOOTH",
"658 681 OFFCURVE",
"541 735 OFFCURVE",
"382 735 CURVE SMOOTH",
"32 735 LINE",
"32 665 LINE",
"151 665 LINE",
"151 70 LINE",
"32 70 LINE",
"32 0 LINE"
);
},
{
closed = 1;
nodes = (
"266 665 LINE",
"352 665 LINE SMOOTH",
"471 665 OFFCURVE",
"540 628 OFFCURVE",
"540 519 CURVE SMOOTH",
"540 426 OFFCURVE",
"461 373 OFFCURVE",
"342 373 CURVE SMOOTH",
"266 373 LINE"
);
}
);
width = 691;
}
);
leftKerningGroup = H;
leftMetricsKey = H;
note = P;
rightKerningGroup = B;
unicode = 0050;
},
{
glyphname = Thorn;
layers = (
{
layerId = "EE746D13-63D7-48F9-B77E-C723CA6A668B";
paths = (
{
closed = 1;
nodes = (
"32 0 LINE",
"397 0 LINE",
"397 67 LINE",
"272 67 LINE",
"272 185 LINE",
"368 185 LINE SMOOTH",
"497 185 OFFCURVE",
"664 199 OFFCURVE",
"664 379 CURVE SMOOTH",
"664 559 OFFCURVE",
"497 572 OFFCURVE",
"368 572 CURVE SMOOTH",
"272 572 LINE",
"272 665 LINE",
"387 665 LINE",
"387 735 LINE",
"32 735 LINE",
"32 665 LINE",
"157 665 LINE",
"157 67 LINE",
"32 67 LINE"
);
},
{
closed = 1;
nodes = (
"272 248 LINE",
"272 502 LINE",
"368 502 LINE SMOOTH",
"457 502 OFFCURVE",
"546 480 OFFCURVE",
"546 375 CURVE SMOOTH",
"546 270 OFFCURVE",
"457 248 OFFCURVE",
"370 248 CURVE SMOOTH"
);
}
);
width = 697;
}
);
leftKerningGroup = H;
leftMetricsKey = H;
rightKerningGroup = P;
rightMetricsKey = P;
unicode = 00DE;
},
{
glyphname = Q;
layers = (
{
layerId = "EE746D13-63D7-48F9-B77E-C723CA6A668B";
paths = (
{
closed = 1;
nodes = (
"766 -118 OFFCURVE",
"831 -59 OFFCURVE",
"831 85 CURVE",
"765 85 LINE",
"765 -1 OFFCURVE",
"736 -32 OFFCURVE",
"695 -32 CURVE SMOOTH",
"657 -32 OFFCURVE",
"641 -7 OFFCURVE",
"610 52 CURVE",
"702 129 OFFCURVE",
"756 248 OFFCURVE",
"756 369 CURVE SMOOTH",
"756 585 OFFCURVE",
"623 750 OFFCURVE",
"402 750 CURVE SMOOTH",
"181 750 OFFCURVE",
"48 585 OFFCURVE",
"48 369 CURVE SMOOTH",
"48 153 OFFCURVE",
"189 -13 OFFCURVE",
"402 -13 CURVE SMOOTH",
"448 -13 OFFCURVE",
"489 -6 OFFCURVE",
"526 7 CURVE",
"561 -71 OFFCURVE",
"604 -118 OFFCURVE",
"680 -118 CURVE SMOOTH"
);
},
{
closed = 1;
nodes = (
"330 57 OFFCURVE",
"271 85 OFFCURVE",
"271 109 CURVE",
"268 158 OFFCURVE",
"318 183 OFFCURVE",
"352 183 CURVE SMOOTH",
"409 183 OFFCURVE",
"454 146 OFFCURVE",
"485 74 CURVE",
"460 62 OFFCURVE",
"433 57 OFFCURVE",
"402 57 CURVE SMOOTH"
);
},
{
closed = 1;
nodes = (
"522 207 OFFCURVE",
"451 245 OFFCURVE",
"379 245 CURVE SMOOTH",
"290 245 OFFCURVE",
"241 194 OFFCURVE",
"234 154 CURVE",
"200 210 OFFCURVE",
"173 291 OFFCURVE",
"173 369 CURVE SMOOTH",
"173 523 OFFCURVE",
"253 680 OFFCURVE",
"402 680 CURVE SMOOTH",
"551 680 OFFCURVE",
"631 523 OFFCURVE",
"631 369 CURVE SMOOTH",
"631 285 OFFCURVE",
"602 196 OFFCURVE",
"561 141 CURVE"
);
}
);
width = 813;
}
);
leftKerningGroup = O;
leftMetricsKey = O;
note = Q;
rightKerningGroup = O;
unicode = 0051;
},
{
glyphname = R;
layers = (
{
anchors = (
{
name = bottom;
position = "{385, 0}";
},
{
name = top;
position = "{365, 735}";
}
);
background = {
paths = (
{
closed = 1;
nodes = (
"739 -16 OFFCURVE",
"788 42 OFFCURVE",
"788 162 CURVE",
"788 187 LINE",
"722 187 LINE",
"722 162 LINE",
"722 101 OFFCURVE",
"705 70 OFFCURVE",
"672 70 CURVE SMOOTH",
"655 70 OFFCURVE",
"641 81 OFFCURVE",
"634 94 CURVE SMOOTH",
"625 108 OFFCURVE",
"617 135 OFFCURVE",
"613 156 CURVE SMOOTH",
"609 177 OFFCURVE",
"601 213 OFFCURVE",
"595 235 CURVE SMOOTH",
"585 272 OFFCURVE",
"577 294 OFFCURVE",
"559 317 CURVE SMOOTH",
"542 339 OFFCURVE",
"517 352 OFFCURVE",
"480 360 CURVE",
"535 371 OFFCURVE",
"574 386 OFFCURVE",
"609 414 CURVE SMOOTH",
"643 441 OFFCURVE",
"662 484 OFFCURVE",
"662 541 CURVE SMOOTH",
"662 568 OFFCURVE",
"658 591 OFFCURVE",
"650 612 CURVE SMOOTH",
"633 654 OFFCURVE",
"612 679 OFFCURVE",
"570 698 CURVE SMOOTH",
"528 717 OFFCURVE",
"500 725 OFFCURVE",
"445 730 CURVE SMOOTH",
"390 735 OFFCURVE",
"368 735 OFFCURVE",
"313 735 CURVE SMOOTH",
"32 735 LINE",
"32 665 LINE",
"151 665 LINE",
"151 70 LINE",
"32 70 LINE",
"32 0 LINE",
"377 0 LINE",
"377 70 LINE",
"266 70 LINE",
"266 335 LINE",
"381 335 LINE SMOOTH",
"385 335 OFFCURVE",
"390 334 OFFCURVE",
"396 333 CURVE SMOOTH",
"407 330 OFFCURVE",
"427 318 OFFCURVE",
"443 302 CURVE SMOOTH",
"458 286 OFFCURVE",
"474 254 OFFCURVE",
"481 215 CURVE SMOOTH",
"486 184 OFFCURVE",
"492 157 OFFCURVE",
"497 135 CURVE SMOOTH",
"508 91 OFFCURVE",
"525 47 OFFCURVE",
"547 23 CURVE SMOOTH",
"569 0 OFFCURVE",
"601 -16 OFFCURVE",
"642 -16 CURVE SMOOTH"
);
},
{
closed = 1;
nodes = (
"266 665 LINE",
"323 665 LINE SMOOTH",
"407 665 OFFCURVE",
"459 658 OFFCURVE",
"500 639 CURVE SMOOTH",
"541 619 OFFCURVE",
"559 585 OFFCURVE",
"559 532 CURVE SMOOTH",
"559 501 OFFCURVE",
"550 477 OFFCURVE",
"531 458 CURVE SMOOTH",
"493 421 OFFCURVE",
"429 408 OFFCURVE",
"327 408 CURVE SMOOTH",
"266 408 LINE"
);
}
);
};
guideLines = (
{
angle = 90;
position = "{347, 700}";
},
{
angle = 270;
position = "{365, 531}";
}
);
layerId = "EE746D13-63D7-48F9-B77E-C723CA6A668B";
paths = (
{
closed = 1;
nodes = (
"748 -19 OFFCURVE",
"789 34 OFFCURVE",
"789 139 CURVE",
"789 187 LINE",
"723 187 LINE",
"723 139 LINE",
"723 84 OFFCURVE",
"711 57 OFFCURVE",
"674 57 CURVE SMOOTH",
"642 57 OFFCURVE",
"629 84 OFFCURVE",
"627 139 CURVE SMOOTH",
"624 228 OFFCURVE",
"615 328 OFFCURVE",
"500 350 CURVE",
"597 371 OFFCURVE",
"678 424 OFFCURVE",
"678 531 CURVE SMOOTH",
"678 710 OFFCURVE",
"522 735 OFFCURVE",
"347 735 CURVE SMOOTH",
"32 735 LINE",
"32 665 LINE",
"151 665 LINE",
"151 70 LINE",
"32 70 LINE",
"32 0 LINE",
"377 0 LINE",
"377 70 LINE",
"266 70 LINE",
"266 325 LINE",
"375 325 LINE",
"504 325 OFFCURVE",
"501 225 OFFCURVE",
"503 129 CURVE SMOOTH",
"505 50 OFFCURVE",
"546 -19 OFFCURVE",
"650 -19 CURVE SMOOTH"
);
},
{
closed = 1;
nodes = (
"266 665 LINE",
"347 665 LINE SMOOTH",
"448 665 OFFCURVE",
"563 651 OFFCURVE",
"563 531 CURVE SMOOTH",
"563 426 OFFCURVE",
"438 397 OFFCURVE",
"347 397 CURVE SMOOTH",
"266 397 LINE"
);
}
);
width = 782;
}
);
leftKerningGroup = H;
leftMetricsKey = H;
note = R;
rightKerningGroup = B;
unicode = 0052;
},
{
glyphname = S;
layers = (
{
anchors = (
{
name = bottom;
position = "{362, 0}";
},
{
name = top;
position = "{352, 735}";
}
);
guideLines = (
{
angle = 90;
position = "{352, 430}";
}
);
layerId = "EE746D13-63D7-48F9-B77E-C723CA6A668B";
paths = (
{
closed = 1;
nodes = (
"535 -13 OFFCURVE",
"641 75 OFFCURVE",
"641 194 CURVE SMOOTH",
"641 333 OFFCURVE",
"522 381 OFFCURVE",
"352 429 CURVE SMOOTH",
"261 455 OFFCURVE",
"176 480 OFFCURVE",
"176 563 CURVE SMOOTH",
"176 639 OFFCURVE",
"266 678 OFFCURVE",
"357 678 CURVE SMOOTH",
"428 678 OFFCURVE",
"484 667 OFFCURVE",
"522 636 CURVE",
"486 636 OFFCURVE",
"455 612 OFFCURVE",
"455 565 CURVE SMOOTH",
"455 519 OFFCURVE",
"494 491 OFFCURVE",
"537 491 CURVE SMOOTH",
"590 491 OFFCURVE",
"620 532 OFFCURVE",
"620 584 CURVE SMOOTH",
"620 700 OFFCURVE",
"466 750 OFFCURVE",
"345 750 CURVE SMOOTH",
"179 750 OFFCURVE",
"69 663 OFFCURVE",
"69 543 CURVE SMOOTH",
"69 422 OFFCURVE",
"163 368 OFFCURVE",
"326 322 CURVE SMOOTH",
"450 287 OFFCURVE",
"534 259 OFFCURVE",
"534 177 CURVE SMOOTH",
"534 94 OFFCURVE",
"442 59 OFFCURVE",
"340 59 CURVE SMOOTH",
"256 59 OFFCURVE",
"193 83 OFFCURVE",
"162 115 CURVE",
"204 120 OFFCURVE",
"231 154 OFFCURVE",
"231 197 CURVE SMOOTH",
"231 233 OFFCURVE",
"197 267 OFFCURVE",
"153 267 CURVE SMOOTH",
"106 267 OFFCURVE",
"65 228 OFFCURVE",
"65 174 CURVE SMOOTH",
"65 55 OFFCURVE",
"203 -13 OFFCURVE",
"346 -13 CURVE SMOOTH"
);
}
);
width = 687;
}
);
leftKerningGroup = S;
rightKerningGroup = S;
unicode = 0053;
},
{
glyphname = Germandbls;
layers = (
{
anchors = (
{
name = bottom;
position = "{191, 0}";
}
);
layerId = "EE746D13-63D7-48F9-B77E-C723CA6A668B";
paths = (
{
closed = 1;
nodes = (
"515 681 OFFCURVE",
"583 633 OFFCURVE",
"583 564 CURVE",
"407 397 LINE",
"448 353 LINE",
"590 353 OFFCURVE",
"649 289 OFFCURVE",
"649 204 CURVE SMOOTH",
"649 97 OFFCURVE",
"585 52 OFFCURVE",
"506 52 CURVE SMOOTH",
"442 52 OFFCURVE",
"396 85 OFFCURVE",
"389 121 CURVE",
"414 128 OFFCURVE",
"432 156 OFFCURVE",
"432 188 CURVE SMOOTH",
"432 230 OFFCURVE",
"405 259 OFFCURVE",
"361 259 CURVE SMOOTH",
"307 259 OFFCURVE",
"290 213 OFFCURVE",
"290 188 CURVE SMOOTH",
"290 86 OFFCURVE",
"360 -14 OFFCURVE",
"525 -14 CURVE SMOOTH",
"662 -14 OFFCURVE",
"774 72 OFFCURVE",
"774 204 CURVE SMOOTH",
"774 310 OFFCURVE",
"688 412 OFFCURVE",
"529 416 CURVE",
"684 554 LINE",
"684 646 OFFCURVE",
"613 751 OFFCURVE",
"418 751 CURVE SMOOTH",
"242 751 OFFCURVE",
"115 662 OFFCURVE",
"115 471 CURVE SMOOTH",
"115 70 LINE",
"20 70 LINE",
"20 0 LINE",
"230 0 LINE",
"230 471 LINE SMOOTH",
"230 618 OFFCURVE",
"306 681 OFFCURVE",
"428 681 CURVE SMOOTH"
);
}
);
width = 817;
}
);
leftMetricsKey = U;
rightMetricsKey = three;
unicode = 1E9E;
},
{
glyphname = Schwa;
layers = (
{
layerId = "EE746D13-63D7-48F9-B77E-C723CA6A668B";
paths = (
{
closed = 1;
nodes = (
"236 750 OFFCURVE",
"120 659 OFFCURVE",
"72 498 CURVE",
"155 478 LINE",
"192 589 OFFCURVE",
"269 667 OFFCURVE",
"388 667 CURVE SMOOTH",
"543 667 OFFCURVE",
"627 523 OFFCURVE",
"627 369 CURVE",
"44 369 LINE",
"44 153 OFFCURVE",
"177 -13 OFFCURVE",
"398 -13 CURVE SMOOTH",
"619 -13 OFFCURVE",
"752 153 OFFCURVE",
"752 369 CURVE SMOOTH",
"752 585 OFFCURVE",
"619 750 OFFCURVE",
"398 750 CURVE SMOOTH"
);
},
{
closed = 1;
nodes = (
"269 57 OFFCURVE",
"192 175 OFFCURVE",
"173 307 CURVE",
"623 307 LINE",
"605 175 OFFCURVE",
"530 57 OFFCURVE",
"398 57 CURVE SMOOTH"
);
}
);
width = 800;
}
);
leftKerningGroup = O;
leftMetricsKey = "=|C";
rightKerningGroup = O;
rightMetricsKey = O;
unicode = 018F;
},
{
glyphname = T;
layers = (
{
anchors = (
{
name = bottom;
position = "{394, 0}";
},
{
name = strokeshort;
position = "{549, 286}";
},
{
name = top;
position = "{384, 735}";
}
);
guideLines = (
{
angle = 90;
position = "{384, 368}";
}
);
layerId = "EE746D13-63D7-48F9-B77E-C723CA6A668B";
paths = (
{
closed = 1;
nodes = (
"571 0 LINE",
"571 70 LINE",
"441 70 LINE",
"441 665 LINE",
"626 665 LINE",
"626 438 LINE",
"717 438 LINE",
"717 735 LINE",
"50 735 LINE",
"50 438 LINE",
"141 438 LINE",
"141 665 LINE",
"326 665 LINE",
"326 70 LINE",
"196 70 LINE",
"196 0 LINE"
);
}
);
width = 767;
}
);
leftKerningGroup = T;
note = T;
rightKerningGroup = T;
unicode = 0054;
},
{
glyphname = U;
layers = (
{
anchors = (
{
name = bottom;
position = "{420, 0}";
},
{
name = horn;
position = "{562, 735}";
},
{
name = ogonek;
position = "{463, 0}";
},
{
name = top;
position = "{420, 735}";
}
);
guideLines = (
{
angle = 90;
position = "{420, 700}";
}
);
layerId = "EE746D13-63D7-48F9-B77E-C723CA6A668B";
paths = (
{
closed = 1;
nodes = (
"609 -13 OFFCURVE",
"701 90 OFFCURVE",
"701 277 CURVE SMOOTH",
"701 665 LINE",
"803 665 LINE",
"803 735 LINE",
"491 735 LINE",
"491 665 LINE",
"618 665 LINE",
"618 263 LINE SMOOTH",
"618 138 OFFCURVE",
"548 60 OFFCURVE",
"429 60 CURVE SMOOTH",
"307 60 OFFCURVE",
"240 137 OFFCURVE",
"240 260 CURVE SMOOTH",
"240 665 LINE",
"348 665 LINE",
"348 735 LINE",
"20 735 LINE",
"20 665 LINE",
"125 665 LINE",
"125 262 LINE SMOOTH",
"125 97 OFFCURVE",
"222 -13 OFFCURVE",
"410 -13 CURVE SMOOTH"
);
}
);
width = 821;
}
);
leftKerningGroup = U;
note = U;
rightKerningGroup = J;
unicode = 0055;
},
{
glyphname = V;
layers = (
{
guideLines = (
{
angle = 90;
position = "{396, 549}";
},
{
angle = 250.4877;
position = "{575, 396}";
},
{
angle = 109.6067;
position = "{180, 396}";
},
{
angle = 109.6067;
position = "{300, 396}";
}
);
layerId = "EE746D13-63D7-48F9-B77E-C723CA6A668B";
paths = (
{
closed = 1;
nodes = (
"435 0 LINE",
"670 665 LINE",
"758 665 LINE",
"758 735 LINE",
"463 735 LINE",
"463 665 LINE",
"587 665 LINE",
"396 126 LINE",
"204 665 LINE",
"312 665 LINE",
"312 735 LINE",
"-14 735 LINE",
"-14 665 LINE",
"84 665 LINE",
"321 0 LINE"
);
}
);
width = 744;
}
);
leftKerningGroup = V;
rightKerningGroup = V;
unicode = 0056;
},
{
glyphname = W;
layers = (
{
anchors = (
{
name = bottom;
position = "{559, 0}";
},
{
name = top;
position = "{559, 735}";
}
);
guideLines = (
{
position = "{545, 504}";
},
{
position = "{342, 131}";
},
{
angle = 72;
position = "{763, 126}";
},
{
angle = 107.8384;
position = "{311, 333}";
},
{
angle = 72;
position = "{846, 126}";
},
{
angle = 107.8384;
position = "{191, 333}";
},
{
angle = 104.0867;
position = "{590, 398}";
},
{
angle = 90;
position = "{559, 520}";
}
);
layerId = "EE746D13-63D7-48F9-B77E-C723CA6A668B";
paths = (
{
closed = 1;
nodes = (
"843 665 LINE",
"938 665 LINE",
"765 131 LINE",
"631 665 LINE",
"525 665 LINE",
"375 134 LINE",
"204 665 LINE",
"323 665 LINE",
"323 735 LINE",
"-14 735 LINE",
"-14 665 LINE",
"84 665 LINE",
"298 0 LINE",
"412 0 LINE",
"559 520 LINE",
"691 0 LINE",
"805 0 LINE",
"1021 665 LINE",
"1109 665 LINE",
"1109 735 LINE",
"843 735 LINE"
);
}
);
width = 1094;
}
);
leftKerningGroup = V;
rightKerningGroup = V;
unicode = 0057;
},
{
glyphname = X;
layers = (
{
anchors = (
{
name = bottom;
position = "{381, 0}";
},
{
name = top;
position = "{381, 736}";
}
);
guideLines = (
{
angle = -56.0409;
position = "{220, 518}";
},
{
angle = -57.4042;
position = "{322, 561}";
},
{
angle = 54.2026;
position = "{488, 561}";
},
{
angle = 54.2515;
position = "{545, 524}";
},
{
angle = 123.4564;
position = "{448, 184}";
},
{
angle = 233.3326;
position = "{265, 184}";
}
);
layerId = "EE746D13-63D7-48F9-B77E-C723CA6A668B";
paths = (
{
closed = 1;
nodes = (
"280 0 LINE",
"280 70 LINE",
"180 70 LINE",
"362 314 LINE",
"523 70 LINE",
"427 70 LINE",
"427 0 LINE",
"754 0 LINE",
"754 70 LINE",
"658 70 LINE",
"443 383 LINE",
"646 665 LINE",
"735 665 LINE",
"735 735 LINE",
"465 735 LINE",
"465 665 LINE",
"563 665 LINE",
"400 439 LINE",
"256 665 LINE",
"347 665 LINE",
"347 735 LINE",
"25 735 LINE",
"25 665 LINE",
"121 665 LINE",
"319 371 LINE",
"97 70 LINE",
"8 70 LINE",
"8 0 LINE"
);
}
);
width = 762;
}
);
leftKerningGroup = V;
note = X;
rightKerningGroup = V;
unicode = 0058;
},
{
glyphname = Y;
layers = (
{
anchors = (
{
name = bottom;
position = "{381, 0}";
},
{
name = top;
position = "{396, 735}";
}
);
guideLines = (
{
angle = -59.4208;
position = "{227, 665}";
},
{
angle = 59.8476;
position = "{520, 574}";
},
{
angle = 90;
position = "{396, 700}";
}
);
layerId = "EE746D13-63D7-48F9-B77E-C723CA6A668B";
paths = (
{
closed = 1;
nodes = (
"550 0 LINE",
"550 70 LINE",
"438 70 LINE",
"438 291 LINE",
"657 665 LINE",
"749 665 LINE",
"749 735 LINE",
"453 735 LINE",
"453 665 LINE",
"574 665 LINE",
"402 369 LINE",
"227 665 LINE",
"339 665 LINE",
"339 735 LINE",
"2 735 LINE",
"2 665 LINE",
"102 665 LINE",
"323 291 LINE",
"323 70 LINE",
"204 70 LINE",
"204 0 LINE"
);
}
);
width = 749;
}
);
leftKerningGroup = V;
note = Y;
rightKerningGroup = V;
unicode = 0059;
},
{
glyphname = Z;
layers = (
{
anchors = (
{
name = bottom;
position = "{328, 0}";
},
{
name = top;
position = "{328, 735}";
}
);
guideLines = (
{
angle = 90;
position = "{593, 735}";
},
{
angle = 90;
position = "{85, 81}";
},
{
angle = 233.619;
position = "{395, 376}";
},
{
angle = 90;
position = "{328, 599}";
}
);
layerId = "EE746D13-63D7-48F9-B77E-C723CA6A668B";
paths = (
{
closed = 1;
nodes = (
"599 0 LINE",
"599 288 LINE",
"508 288 LINE",
"508 70 LINE",
"170 70 LINE",
"593 644 LINE",
"593 735 LINE",
"58 735 LINE",
"58 462 LINE",
"149 462 LINE",
"149 668 LINE",
"476 668 LINE",
"45 83 LINE",
"45 0 LINE"
);
}
);
width = 644;
}
);
leftKerningGroup = Z;
rightKerningGroup = Z;
unicode = 005A;
},
{
glyphname = a;
layers = (
{
anchors = (
{
name = bottom;
position = "{271, 0}";
},
{
name = ogonek;
position = "{485, 0}";
},
{
name = top;
position = "{271, 524}";
}
);
guideLines = (
{
angle = 90;
position = "{271, 538}";
}
);
layerId = "EE746D13-63D7-48F9-B77E-C723CA6A668B";
paths = (
{
closed = 1;
nodes = (
"260 -13 OFFCURVE",
"337 38 OFFCURVE",
"365 109 CURVE",
"370 45 OFFCURVE",
"414 -13 OFFCURVE",
"482 -13 CURVE SMOOTH",
"570 -13 OFFCURVE",
"597 51 OFFCURVE",
"597 137 CURVE",
"597 187 LINE",
"544 187 LINE",
"544 138 LINE",
"544 91 OFFCURVE",
"537 56 OFFCURVE",
"502 56 CURVE SMOOTH",
"466 56 OFFCURVE",
"459 91 OFFCURVE",
"459 138 CURVE SMOOTH",
"459 363 LINE SMOOTH",
"459 427 OFFCURVE",
"439 474 OFFCURVE",
"404 500 CURVE SMOOTH",
"368 527 OFFCURVE",
"324 538 OFFCURVE",
"271 538 CURVE SMOOTH",
"205 538 OFFCURVE",
"147 517 OFFCURVE",
"114 487 CURVE SMOOTH",
"82 458 OFFCURVE",
"64 426 OFFCURVE",
"64 399 CURVE SMOOTH",
"64 348 OFFCURVE",
"97 320 OFFCURVE",
"136 320 CURVE SMOOTH",
"173 320 OFFCURVE",
"204 348 OFFCURVE",
"204 389 CURVE SMOOTH",
"204 420 OFFCURVE",
"177 446 OFFCURVE",
"136 446 CURVE",
"159 471 OFFCURVE",
"204 487 OFFCURVE",
"250 487 CURVE SMOOTH",
"316 487 OFFCURVE",
"354 451 OFFCURVE",
"354 377 CURVE SMOOTH",
"354 347 OFFCURVE",
"335 322 OFFCURVE",
"306 305 CURVE SMOOTH",
"277 288 OFFCURVE",
"239 271 OFFCURVE",
"201 257 CURVE SMOOTH",
"163 243 OFFCURVE",
"124 222 OFFCURVE",
"95 201 CURVE SMOOTH",
"66 179 OFFCURVE",
"47 146 OFFCURVE",
"47 107 CURVE SMOOTH",
"47 32 OFFCURVE",
"103 -13 OFFCURVE",
"183 -13 CURVE SMOOTH"
);
},
{
closed = 1;
nodes = (
"171 57 OFFCURVE",
"151 79 OFFCURVE",
"151 112 CURVE SMOOTH",
"151 151 OFFCURVE",
"180 178 OFFCURVE",
"216 194 CURVE SMOOTH",
"250 209 OFFCURVE",
"316 244 OFFCURVE",
"357 285 CURVE",
"357 181 LINE SMOOTH",
"357 163 OFFCURVE",
"350 145 OFFCURVE",
"335 125 CURVE SMOOTH",
"305 86 OFFCURVE",
"254 57 OFFCURVE",
"208 57 CURVE SMOOTH"
);
}
);
width = 597;
}
);
leftMetricsKey = o;
unicode = 0061;
},
{
glyphname = ae;
layers = (
{
layerId = "EE746D13-63D7-48F9-B77E-C723CA6A668B";
paths = (
{
closed = 1;
nodes = (
"710 80 OFFCURVE",
"666 60 OFFCURVE",
"621 60 CURVE SMOOTH",
"570 60 OFFCURVE",
"528 83 OFFCURVE",
"504 122 CURVE SMOOTH",
"480 160 OFFCURVE",
"468 208 OFFCURVE",
"468 264 CURVE SMOOTH",
"468 268 LINE",
"843 268 LINE",
"842 352 OFFCURVE",
"816 423 OFFCURVE",
"772 468 CURVE SMOOTH",
"729 512 OFFCURVE",
"671 536 OFFCURVE",
"605 536 CURVE SMOOTH",
"538 536 OFFCURVE",
"476 513 OFFCURVE",
"430 455 CURVE",
"400 517 OFFCURVE",
"339 538 OFFCURVE",
"271 538 CURVE SMOOTH",
"205 538 OFFCURVE",
"147 517 OFFCURVE",
"114 487 CURVE SMOOTH",
"82 458 OFFCURVE",
"64 426 OFFCURVE",
"64 399 CURVE SMOOTH",
"64 348 OFFCURVE",
"97 320 OFFCURVE",
"136 320 CURVE SMOOTH",
"173 320 OFFCURVE",
"204 348 OFFCURVE",
"204 389 CURVE SMOOTH",
"204 420 OFFCURVE",
"177 446 OFFCURVE",
"136 446 CURVE",
"159 471 OFFCURVE",
"204 487 OFFCURVE",
"250 487 CURVE SMOOTH",
"316 487 OFFCURVE",
"354 451 OFFCURVE",
"354 377 CURVE SMOOTH",
"354 321 LINE",
"193 267 OFFCURVE",
"47 235 OFFCURVE",
"47 112 CURVE SMOOTH",
"47 52 OFFCURVE",
"93 -13 OFFCURVE",
"183 -13 CURVE SMOOTH",
"280 -13 OFFCURVE",
"346 38 OFFCURVE",
"403 122 CURVE",
"432 35 OFFCURVE",
"520 -13 OFFCURVE",
"611 -13 CURVE SMOOTH",
"649 -13 OFFCURVE",
"683 -6 OFFCURVE",
"713 8 CURVE SMOOTH",
"774 37 OFFCURVE",
"816 91 OFFCURVE",
"833 163 CURVE",
"776 181 LINE",
"769 156 OFFCURVE",
"758 134 OFFCURVE",
"742 116 CURVE SMOOTH"
);
},
{
closed = 1;
nodes = (
"518 451 OFFCURVE",
"561 478 OFFCURVE",
"608 478 CURVE SMOOTH",
"631 478 OFFCURVE",
"653 471 OFFCURVE",
"672 458 CURVE SMOOTH",
"710 432 OFFCURVE",
"735 382 OFFCURVE",
"736 321 CURVE",
"472 321 LINE",
"474 351 OFFCURVE",
"482 379 OFFCURVE",
"494 403 CURVE SMOOTH"
);
},
{
closed = 1;
nodes = (
"357 171 LINE SMOOTH",
"357 143 OFFCURVE",
"296 57 OFFCURVE",
"212 57 CURVE SMOOTH",
"161 57 OFFCURVE",
"141 85 OFFCURVE",
"141 118 CURVE SMOOTH",
"141 184 OFFCURVE",
"236 222 OFFCURVE",
"357 266 CURVE"
);
}
);
width = 881;
}
);
leftMetricsKey = a;
rightMetricsKey = e;
unicode = 00E6;
},
{
glyphname = ae.alt;
layers = (
{
guideLines = (
{
angle = 180;
position = "{327, 268}";
}
);
layerId = "EE746D13-63D7-48F9-B77E-C723CA6A668B";
paths = (
{
closed = 1;
nodes = (
"691 80 OFFCURVE",
"647 60 OFFCURVE",
"602 60 CURVE SMOOTH",
"551 60 OFFCURVE",
"509 83 OFFCURVE",
"485 122 CURVE SMOOTH",
"461 160 OFFCURVE",
"449 208 OFFCURVE",
"449 264 CURVE SMOOTH",
"449 268 LINE",
"824 268 LINE",
"823 352 OFFCURVE",
"797 423 OFFCURVE",
"753 468 CURVE SMOOTH",
"710 512 OFFCURVE",
"652 536 OFFCURVE",
"586 536 CURVE SMOOTH",
"554 536 OFFCURVE",
"525 531 OFFCURVE",
"499 521 CURVE SMOOTH",
"467 509 OFFCURVE",
"440 490 OFFCURVE",
"416 465 CURVE",
"408 479 OFFCURVE",
"397 491 OFFCURVE",
"385 500 CURVE SMOOTH",
"349 527 OFFCURVE",
"305 538 OFFCURVE",
"252 538 CURVE SMOOTH",
"186 538 OFFCURVE",
"128 517 OFFCURVE",
"95 487 CURVE SMOOTH",
"63 458 OFFCURVE",
"45 426 OFFCURVE",
"45 399 CURVE SMOOTH",
"45 348 OFFCURVE",
"78 320 OFFCURVE",
"117 320 CURVE SMOOTH",
"154 320 OFFCURVE",
"185 348 OFFCURVE",
"185 389 CURVE SMOOTH",
"185 420 OFFCURVE",
"158 446 OFFCURVE",
"117 446 CURVE",
"140 471 OFFCURVE",
"185 487 OFFCURVE",
"231 487 CURVE SMOOTH",
"297 487 OFFCURVE",
"335 451 OFFCURVE",
"335 377 CURVE SMOOTH",
"335 347 OFFCURVE",
"316 322 OFFCURVE",
"287 305 CURVE SMOOTH",
"258 288 OFFCURVE",
"220 271 OFFCURVE",
"182 257 CURVE SMOOTH",
"144 243 OFFCURVE",
"105 222 OFFCURVE",
"76 201 CURVE SMOOTH",
"47 180 OFFCURVE",
"28 146 OFFCURVE",
"28 107 CURVE SMOOTH",
"28 32 OFFCURVE",
"84 -13 OFFCURVE",
"164 -13 CURVE SMOOTH",
"241 -13 OFFCURVE",
"317 38 OFFCURVE",
"367 126 CURVE",
"377 106 OFFCURVE",
"389 87 OFFCURVE",
"403 70 CURVE SMOOTH",
"446 18 OFFCURVE",
"514 -13 OFFCURVE",
"592 -13 CURVE SMOOTH",
"630 -13 OFFCURVE",
"664 -6 OFFCURVE",
"694 8 CURVE SMOOTH",
"755 37 OFFCURVE",
"797 91 OFFCURVE",
"814 163 CURVE",
"757 181 LINE",
"750 156 OFFCURVE",
"739 134 OFFCURVE",
"723 116 CURVE SMOOTH"
);
},
{
closed = 1;
nodes = (
"499 451 OFFCURVE",
"542 478 OFFCURVE",
"589 478 CURVE SMOOTH",
"612 478 OFFCURVE",
"634 471 OFFCURVE",
"653 458 CURVE SMOOTH",
"691 432 OFFCURVE",
"716 382 OFFCURVE",
"717 321 CURVE",
"453 321 LINE",
"455 351 OFFCURVE",
"463 379 OFFCURVE",
"475 403 CURVE SMOOTH"
);
},
{
closed = 1;
nodes = (
"338 163 OFFCURVE",
"331 145 OFFCURVE",
"316 125 CURVE SMOOTH",
"286 86 OFFCURVE",
"235 57 OFFCURVE",
"189 57 CURVE SMOOTH",
"152 57 OFFCURVE",
"132 79 OFFCURVE",
"132 112 CURVE SMOOTH",
"132 151 OFFCURVE",
"161 178 OFFCURVE",
"197 194 CURVE SMOOTH",
"231 209 OFFCURVE",
"297 244 OFFCURVE",
"338 285 CURVE",
"338 181 LINE SMOOTH"
);
}
);
width = 847;
}
);
leftKerningGroup = a;
leftMetricsKey = "=a*0.6";
note = ae;
rightMetricsKey = "=e*0.6";
},
{
glyphname = b;
layers = (
{
anchors = (
{
name = bottom;
position = "{327, 0}";
},
{
name = top;
position = "{327, 524}";
}
);
guideLines = (
{
position = "{412, -194}";
}
);
layerId = "EE746D13-63D7-48F9-B77E-C723CA6A668B";
paths = (
{
closed = 1;
nodes = (
"384 -13 OFFCURVE",
"423 -1 OFFCURVE",
"457 23 CURVE SMOOTH",
"524 72 OFFCURVE",
"562 159 OFFCURVE",
"562 262 CURVE SMOOTH",
"562 424 OFFCURVE",
"473 538 OFFCURVE",
"337 538 CURVE SMOOTH",
"279 538 OFFCURVE",
"225 509 OFFCURVE",
"192 460 CURVE",
"192 735 LINE",
"-14 735 LINE",
"-14 675 LINE",
"87 675 LINE",
"87 0 LINE",
"132 0 LINE",
"170 97 LINE",
"202 22 OFFCURVE",
"270 -13 OFFCURVE",
"342 -13 CURVE SMOOTH"
);
},
{
closed = 1;
nodes = (
"295 46 OFFCURVE",
"272 57 OFFCURVE",
"252 79 CURVE SMOOTH",
"213 122 OFFCURVE",
"192 197 OFFCURVE",
"192 285 CURVE SMOOTH",
"192 328 OFFCURVE",
"203 374 OFFCURVE",
"223 414 CURVE SMOOTH",
"242 455 OFFCURVE",
"279 483 OFFCURVE",
"322 483 CURVE SMOOTH",
"367 483 OFFCURVE",
"402 454 OFFCURVE",
"422 409 CURVE SMOOTH",
"441 364 OFFCURVE",
"450 313 OFFCURVE",
"450 256 CURVE SMOOTH",
"450 220 OFFCURVE",
"445 187 OFFCURVE",
"436 155 CURVE SMOOTH",
"417 93 OFFCURVE",
"375 46 OFFCURVE",
"322 46 CURVE SMOOTH"
);
}
);
width = 609;
}
);
note = b;
rightKerningGroup = b;
unicode = 0062;
},
{
glyphname = c;
layers = (
{
anchors = (
{
name = bottom;
position = "{299, 0}";
},
{
name = top;
position = "{299, 524}";
}
);
guideLines = (
{
position = "{477, 191}";
},
{
angle = 90;
position = "{299, 263}";
},
{
angle = 161.8781;
position = "{503, 172}";
}
);
layerId = "EE746D13-63D7-48F9-B77E-C723CA6A668B";
paths = (
{
closed = 1;
nodes = (
"422 -13 OFFCURVE",
"505 56 OFFCURVE",
"530 163 CURVE",
"475 181 LINE",
"459 124 OFFCURVE",
"390 66 OFFCURVE",
"322 66 CURVE SMOOTH",
"219 66 OFFCURVE",
"158 143 OFFCURVE",
"158 268 CURVE SMOOTH",
"158 381 OFFCURVE",
"216 483 OFFCURVE",
"329 483 CURVE SMOOTH",
"380 483 OFFCURVE",
"421 458 OFFCURVE",
"442 424 CURVE",
"402 424 OFFCURVE",
"367 399 OFFCURVE",
"367 357 CURVE SMOOTH",
"367 315 OFFCURVE",
"400 288 OFFCURVE",
"442 288 CURVE SMOOTH",
"490 288 OFFCURVE",
"519 328 OFFCURVE",
"519 367 CURVE SMOOTH",
"519 472 OFFCURVE",
"420 538 OFFCURVE",
"312 538 CURVE SMOOTH",
"149 538 OFFCURVE",
"47 415 OFFCURVE",
"47 252 CURVE SMOOTH",
"47 98 OFFCURVE",
"151 -13 OFFCURVE",
"300 -13 CURVE SMOOTH"
);
}
);
width = 563;
}
);
leftKerningGroup = c;
leftMetricsKey = o;
note = c;
unicode = 0063;
},
{
glyphname = d;
layers = (
{
anchors = (
{
name = bottom;
position = "{277, 0}";
},
{
name = caron;
position = "{668, 524}";
},
{
name = strokeshort;
position = "{605, 576}";
},
{
name = top;
position = "{277, 735}";
}
);
guideLines = (
{
position = "{403, 83}";
},
{
angle = 90;
position = "{277, 395}";
}
);
layerId = "EE746D13-63D7-48F9-B77E-C723CA6A668B";
paths = (
{
closed = 1;
nodes = (
"318 -13 OFFCURVE",
"380 21 OFFCURVE",
"413 83 CURVE",
"432 0 LINE",
"605 0 LINE",
"605 55 LINE",
"517 55 LINE",
"517 735 LINE",
"297 735 LINE",
"297 675 LINE",
"412 675 LINE",
"412 460 LINE",
"379 508 OFFCURVE",
"322 538 OFFCURVE",
"268 538 CURVE SMOOTH",
"132 538 OFFCURVE",
"46 428 OFFCURVE",
"46 262 CURVE SMOOTH",
"46 97 OFFCURVE",
"132 -13 OFFCURVE",
"261 -13 CURVE SMOOTH"
);
},
{
closed = 1;
nodes = (
"255 49 OFFCURVE",
"232 60 OFFCURVE",
"213 81 CURVE SMOOTH",
"174 123 OFFCURVE",
"158 187 OFFCURVE",
"158 260 CURVE SMOOTH",
"158 315 OFFCURVE",
"167 367 OFFCURVE",
"187 411 CURVE SMOOTH",
"206 455 OFFCURVE",
"241 483 OFFCURVE",
"286 483 CURVE SMOOTH",
"331 483 OFFCURVE",
"367 455 OFFCURVE",
"388 413 CURVE SMOOTH",
"409 370 OFFCURVE",
"419 320 OFFCURVE",
"419 268 CURVE SMOOTH",
"419 141 OFFCURVE",
"361 49 OFFCURVE",
"282 49 CURVE SMOOTH"
);
}
);
width = 618;
}
);
leftKerningGroup = c;
note = d;
rightKerningGroup = d;
unicode = 0064;
},
{
glyphname = eth;
layers = (
{
layerId = "EE746D13-63D7-48F9-B77E-C723CA6A668B";
paths = (
{
closed = 1;
nodes = (
"464 706 LINE",
"445 745 LINE",
"345 689 LINE",
"277 722 OFFCURVE",
"199 735 OFFCURVE",
"120 735 CURVE",
"120 682 LINE",
"185 682 OFFCURVE",
"241 677 OFFCURVE",
"288 657 CURVE",
"195 605 LINE",
"214 566 LINE",
"332 632 LINE",
"375 601 OFFCURVE",
"406 552 OFFCURVE",
"427 475 CURVE",
"388 505 OFFCURVE",
"344 524 OFFCURVE",
"302 524 CURVE SMOOTH",
"147 524 OFFCURVE",
"47 424 OFFCURVE",
"47 256 CURVE SMOOTH",
"47 103 OFFCURVE",
"147 -13 OFFCURVE",
"303 -13 CURVE SMOOTH",
"459 -13 OFFCURVE",
"556 104 OFFCURVE",
"556 255 CURVE SMOOTH",
"556 469 OFFCURVE",
"488 595 OFFCURVE",
"388 663 CURVE"
);
},
{
closed = 1;
nodes = (
"214 49 OFFCURVE",
"159 131 OFFCURVE",
"159 250 CURVE SMOOTH",
"159 377 OFFCURVE",
"205 466 OFFCURVE",
"307 466 CURVE SMOOTH",
"396 466 OFFCURVE",
"445 394 OFFCURVE",
"453 281 CURVE",
"453 271 OFFCURVE",
"454 260 OFFCURVE",
"454 249 CURVE SMOOTH",
"454 131 OFFCURVE",
"390 49 OFFCURVE",
"308 49 CURVE SMOOTH"
);
}
);
width = 603;
}
);
unicode = 00F0;
},
{
glyphname = e;
layers = (
{
anchors = (
{
name = bottom;
position = "{290, 0}";
},
{
name = ogonek;
position = "{328, 0}";
},
{
name = top;
position = "{290, 524}";
}
);
guideLines = (
{
angle = 90;
position = "{524, 269}";
},
{
angle = 90;
position = "{298, 262}";
},
{
angle = 180;
position = "{346, 268}";
},
{
angle = 90;
position = "{47, 250}";
}
);
layerId = "EE746D13-63D7-48F9-B77E-C723CA6A668B";
paths = (
{
closed = 1;
nodes = (
"339 -13 OFFCURVE",
"373 -6 OFFCURVE",
"403 8 CURVE SMOOTH",
"464 37 OFFCURVE",
"506 91 OFFCURVE",
"523 163 CURVE",
"466 181 LINE",
"459 156 OFFCURVE",
"448 134 OFFCURVE",
"432 116 CURVE SMOOTH",
"400 80 OFFCURVE",
"356 60 OFFCURVE",
"311 60 CURVE SMOOTH",
"260 60 OFFCURVE",
"218 83 OFFCURVE",
"194 122 CURVE SMOOTH",
"170 160 OFFCURVE",
"158 208 OFFCURVE",
"158 264 CURVE SMOOTH",
"158 268 LINE",
"533 268 LINE",
"532 352 OFFCURVE",
"506 423 OFFCURVE",
"462 468 CURVE SMOOTH",
"419 512 OFFCURVE",
"361 536 OFFCURVE",
"295 536 CURVE SMOOTH",
"263 536 OFFCURVE",
"234 531 OFFCURVE",
"208 521 CURVE SMOOTH",
"158 502 OFFCURVE",
"118 467 OFFCURVE",
"88 416 CURVE SMOOTH",
"61 370 OFFCURVE",
"47 313 OFFCURVE",
"47 254 CURVE SMOOTH",
"47 186 OFFCURVE",
"70 121 OFFCURVE",
"112 70 CURVE SMOOTH",
"155 18 OFFCURVE",
"223 -13 OFFCURVE",
"301 -13 CURVE SMOOTH"
);
},
{
closed = 1;
nodes = (
"164 351 OFFCURVE",
"172 379 OFFCURVE",
"184 403 CURVE SMOOTH",
"208 451 OFFCURVE",
"251 478 OFFCURVE",
"298 478 CURVE SMOOTH",
"321 478 OFFCURVE",
"343 471 OFFCURVE",
"362 458 CURVE SMOOTH",
"400 432 OFFCURVE",
"425 382 OFFCURVE",
"426 321 CURVE",
"162 321 LINE"
);
}
);
width = 571;
}
);
leftMetricsKey = o;
unicode = 0065;
},
{
glyphname = schwa;
layers = (
{
layerId = "EE746D13-63D7-48F9-B77E-C723CA6A668B";
paths = (
{
closed = 1;
nodes = (
"232 536 OFFCURVE",
"198 529 OFFCURVE",
"168 515 CURVE SMOOTH",
"107 486 OFFCURVE",
"65 432 OFFCURVE",
"48 360 CURVE",
"105 342 LINE",
"112 367 OFFCURVE",
"123 389 OFFCURVE",
"139 407 CURVE SMOOTH",
"171 443 OFFCURVE",
"215 463 OFFCURVE",
"260 463 CURVE SMOOTH",
"311 463 OFFCURVE",
"353 440 OFFCURVE",
"377 401 CURVE SMOOTH",
"401 363 OFFCURVE",
"413 315 OFFCURVE",
"413 259 CURVE SMOOTH",
"413 255 LINE",
"38 255 LINE",
"39 171 OFFCURVE",
"65 100 OFFCURVE",
"109 55 CURVE SMOOTH",
"152 11 OFFCURVE",
"210 -13 OFFCURVE",
"276 -13 CURVE SMOOTH",
"308 -13 OFFCURVE",
"337 -8 OFFCURVE",
"363 2 CURVE SMOOTH",
"413 21 OFFCURVE",
"453 56 OFFCURVE",
"483 107 CURVE SMOOTH",
"510 153 OFFCURVE",
"524 210 OFFCURVE",
"524 269 CURVE SMOOTH",
"524 337 OFFCURVE",
"501 402 OFFCURVE",
"459 453 CURVE SMOOTH",
"416 505 OFFCURVE",
"348 536 OFFCURVE",
"270 536 CURVE SMOOTH"
);
},
{
closed = 1;
nodes = (
"407 172 OFFCURVE",
"399 144 OFFCURVE",
"387 120 CURVE SMOOTH",
"363 72 OFFCURVE",
"320 45 OFFCURVE",
"273 45 CURVE SMOOTH",
"250 45 OFFCURVE",
"228 52 OFFCURVE",
"209 65 CURVE SMOOTH",
"171 91 OFFCURVE",
"146 141 OFFCURVE",
"145 202 CURVE",
"409 202 LINE"
);
}
);
width = 571;
}
);
leftMetricsKey = "=|e";
rightMetricsKey = "=|e";
unicode = 0259;
},
{
glyphname = f;
layers = (
{
anchors = (
{
name = bottom;
position = "{179, 0}";
}
);
guideLines = (
{
position = "{215, 607}";
},
{
angle = 180;
position = "{282, 773}";
}
);
layerId = "EE746D13-63D7-48F9-B77E-C723CA6A668B";
paths = (
{
closed = 1;
nodes = (
"340 0 LINE",
"340 55 LINE",
"218 55 LINE",
"218 469 LINE",
"371 469 LINE",
"371 524 LINE",
"215 524 LINE",
"215 576 LINE SMOOTH",
"215 673 OFFCURVE",
"243 732 OFFCURVE",
"309 732 CURVE SMOOTH",
"341 732 OFFCURVE",
"365 721 OFFCURVE",
"372 710 CURVE",
"350 710 OFFCURVE",
"324 693 OFFCURVE",
"324 660 CURVE SMOOTH",
"324 629 OFFCURVE",
"343 590 OFFCURVE",
"394 590 CURVE SMOOTH",
"445 590 OFFCURVE",
"464 629 OFFCURVE",
"464 660 CURVE SMOOTH",
"464 715 OFFCURVE",
"409 773 OFFCURVE",
"303 773 CURVE SMOOTH",
"194 773 OFFCURVE",
"113 720 OFFCURVE",
"113 576 CURVE",
"113 524 LINE",
"18 524 LINE",
"18 469 LINE",
"113 469 LINE",
"113 55 LINE",
"18 55 LINE",
"18 0 LINE"
);
}
);
width = 394;
}
);
note = f;
unicode = 0066;
},
{
glyphname = g;
layers = (
{
anchors = (
{
name = top;
position = "{285, 524}";
}
);
guideLines = (
{
angle = 90;
position = "{501, 485}";
},
{
angle = 90;
position = "{134, 369}";
},
{
angle = 270;
position = "{89, 369}";
},
{
angle = 90;
position = "{26, 368}";
},
{
angle = 270;
position = "{552, 384}";
},
{
angle = 180;
position = "{11, 96}";
},
{
angle = 226.5482;
position = "{119, 231}";
},
{
angle = 180;
position = "{287, 631}";
},
{
angle = 226.5482;
position = "{205, 231}";
},
{
angle = 90;
position = "{286, 204}";
}
);
layerId = "EE746D13-63D7-48F9-B77E-C723CA6A668B";
paths = (
{
closed = 1;
nodes = (
"482 -248 OFFCURVE",
"552 -165 OFFCURVE",
"552 -81 CURVE SMOOTH",
"552 -17 OFFCURVE",
"511 78 OFFCURVE",
"349 78 CURVE SMOOTH",
"239 78 LINE SMOOTH",
"169 78 OFFCURVE",
"142 85 OFFCURVE",
"142 115 CURVE SMOOTH",
"142 142 OFFCURVE",
"163 156 OFFCURVE",
"237 154 CURVE",
"285 154 LINE SMOOTH",
"425 154 OFFCURVE",
"507 246 OFFCURVE",
"507 346 CURVE SMOOTH",
"507 415 OFFCURVE",
"478 469 OFFCURVE",
"431 502 CURVE",
"447 520 OFFCURVE",
"478 556 OFFCURVE",
"488 557 CURVE",
"482 550 OFFCURVE",
"481 539 OFFCURVE",
"481 534 CURVE SMOOTH",
"481 504 OFFCURVE",
"506 486 OFFCURVE",
"536 486 CURVE SMOOTH",
"564 486 OFFCURVE",
"589 506 OFFCURVE",
"589 541 CURVE SMOOTH",
"589 571 OFFCURVE",
"568 610 OFFCURVE",
"510 610 CURVE SMOOTH",
"461 610 OFFCURVE",
"431 591 OFFCURVE",
"381 525 CURVE",
"353 534 OFFCURVE",
"321 539 OFFCURVE",
"285 539 CURVE SMOOTH",
"149 539 OFFCURVE",
"62 447 OFFCURVE",
"62 346 CURVE SMOOTH",
"62 294 OFFCURVE",
"86 228 OFFCURVE",
"141 180 CURVE",
"118 176 OFFCURVE",
"59 154 OFFCURVE",
"59 89 CURVE SMOOTH",
"59 6 OFFCURVE",
"155 -13 OFFCURVE",
"239 -13 CURVE SMOOTH",
"338 -13 LINE SMOOTH",
"430 -13 OFFCURVE",
"448 -57 OFFCURVE",
"448 -89 CURVE SMOOTH",
"448 -135 OFFCURVE",
"409 -188 OFFCURVE",
"282 -188 CURVE SMOOTH",
"190 -188 OFFCURVE",
"130 -162 OFFCURVE",
"119 -144 CURVE",
"143 -136 OFFCURVE",
"158 -118 OFFCURVE",
"158 -90 CURVE SMOOTH",
"158 -51 OFFCURVE",
"129 -28 OFFCURVE",
"92 -28 CURVE SMOOTH",
"57 -28 OFFCURVE",
"26 -58 OFFCURVE",
"26 -100 CURVE SMOOTH",
"26 -178 OFFCURVE",
"128 -248 OFFCURVE",
"282 -248 CURVE SMOOTH"
);
},
{
closed = 1;
nodes = (
"211 204 OFFCURVE",
"166 270 OFFCURVE",
"166 342 CURVE SMOOTH",
"166 413 OFFCURVE",
"199 492 OFFCURVE",
"285 492 CURVE SMOOTH",
"371 492 OFFCURVE",
"403 414 OFFCURVE",
"403 342 CURVE SMOOTH",
"403 270 OFFCURVE",
"359 204 OFFCURVE",
"286 204 CURVE SMOOTH"
);
}
);
width = 597;
}
);
unicode = 0067;
},
{
glyphname = g.alt;
layers = (
{
guideLines = (
{
angle = 90;
position = "{56, 260}";
},
{
position = "{421, 430}";
}
);
layerId = "EE746D13-63D7-48F9-B77E-C723CA6A668B";
paths = (
{
closed = 1;
nodes = (
"457 -238 OFFCURVE",
"526 -121 OFFCURVE",
"526 17 CURVE SMOOTH",
"526 466 LINE",
"596 466 LINE",
"596 524 LINE",
"433 524 LINE",
"421 430 LINE",
"400 497 OFFCURVE",
"325 538 OFFCURVE",
"266 538 CURVE SMOOTH",
"128 538 OFFCURVE",
"46 412 OFFCURVE",
"46 267 CURVE SMOOTH",
"46 125 OFFCURVE",
"123 0 OFFCURVE",
"263 0 CURVE SMOOTH",
"334 0 OFFCURVE",
"405 44 OFFCURVE",
"421 111 CURVE",
"421 -13 LINE SMOOTH",
"421 -89 OFFCURVE",
"393 -187 OFFCURVE",
"271 -187 CURVE SMOOTH",
"221 -187 OFFCURVE",
"186 -172 OFFCURVE",
"179 -161 CURVE",
"193 -158 OFFCURVE",
"216 -140 OFFCURVE",
"216 -106 CURVE SMOOTH",
"216 -79 OFFCURVE",
"193 -51 OFFCURVE",
"155 -51 CURVE SMOOTH",
"108 -51 OFFCURVE",
"86 -89 OFFCURVE",
"86 -119 CURVE SMOOTH",
"86 -191 OFFCURVE",
"183 -238 OFFCURVE",
"272 -238 CURVE SMOOTH"
);
},
{
closed = 1;
nodes = (
"191 62 OFFCURVE",
"153 165 OFFCURVE",
"153 276 CURVE SMOOTH",
"153 379 OFFCURVE",
"202 473 OFFCURVE",
"286 473 CURVE SMOOTH",
"366 473 OFFCURVE",
"424 390 OFFCURVE",
"424 276 CURVE SMOOTH",
"424 153 OFFCURVE",
"372 62 OFFCURVE",
"284 62 CURVE SMOOTH"
);
}
);
width = 626;
}
);
leftMetricsKey = q;
rightMetricsKey = u;
},
{
glyphname = h;
layers = (
{
anchors = (
{
name = bottom;
position = "{337, 0}";
},
{
name = strokeshort;
position = "{360, 576}";
},
{
name = top;
position = "{337, 735}";
}
);
layerId = "EE746D13-63D7-48F9-B77E-C723CA6A668B";
paths = (
{
closed = 1;
nodes = (
"309 0 LINE",
"309 55 LINE",
"220 55 LINE",
"220 292 LINE SMOOTH",
"220 340 OFFCURVE",
"237 402 OFFCURVE",
"266 433 CURVE SMOOTH",
"295 464 OFFCURVE",
"322 471 OFFCURVE",
"355 471 CURVE SMOOTH",
"413 471 OFFCURVE",
"448 432 OFFCURVE",
"448 347 CURVE SMOOTH",
"448 55 LINE",
"359 55 LINE",
"359 0 LINE",
"653 0 LINE",
"653 55 LINE",
"553 55 LINE",
"553 353 LINE SMOOTH",
"553 385 OFFCURVE",
"549 413 OFFCURVE",
"541 437 CURVE SMOOTH",
"525 484 OFFCURVE",
"503 506 OFFCURVE",
"472 521 CURVE SMOOTH",
"441 536 OFFCURVE",
"419 538 OFFCURVE",
"391 538 CURVE SMOOTH",
"370 538 OFFCURVE",
"350 535 OFFCURVE",
"330 529 CURVE SMOOTH",
"289 516 OFFCURVE",
"245 482 OFFCURVE",
"220 431 CURVE",
"220 735 LINE",
"20 735 LINE",
"20 675 LINE",
"115 675 LINE",
"115 55 LINE",
"20 55 LINE",
"20 0 LINE"
);
}
);
width = 666;
}
);
leftKerningGroup = h;
note = h;
rightKerningGroup = h;
rightMetricsKey = d;
unicode = 0068;
},
{
glyphname = i;
layers = (
{
anchors = (
{
name = bottom;
position = "{172, 0}";
},
{
name = ogonek;
position = "{235, 0}";
}
);
guideLines = (
{
angle = 90;
position = "{234, 55}";
},
{
angle = 270;
position = "{172, 689}";
}
);
layerId = "EE746D13-63D7-48F9-B77E-C723CA6A668B";
paths = (
{
closed = 1;
nodes = (
"330 0 LINE",
"330 55 LINE",
"234 55 LINE",
"234 524 LINE",
"34 524 LINE",
"34 469 LINE",
"129 469 LINE",
"129 55 LINE",
"35 55 LINE",
"35 0 LINE"
);
},
{
closed = 1;
nodes = (
"211 616 OFFCURVE",
"245 649 OFFCURVE",
"245 688 CURVE SMOOTH",
"245 728 OFFCURVE",
"211 761 OFFCURVE",
"172 761 CURVE SMOOTH",
"133 761 OFFCURVE",
"100 729 OFFCURVE",
"100 688 CURVE SMOOTH",
"100 649 OFFCURVE",
"133 616 OFFCURVE",
"172 616 CURVE SMOOTH"
);
}
);
width = 342;
}
);
leftKerningGroup = i;
note = i;
unicode = 0069;
},
{
glyphname = idotless;
layers = (
{
anchors = (
{
name = top;
position = "{151, 524}";
}
);
guideLines = (
{
angle = 270;
position = "{181, 262}";
}
);
layerId = "EE746D13-63D7-48F9-B77E-C723CA6A668B";
paths = (
{
closed = 1;
nodes = (
"330 0 LINE",
"330 55 LINE",
"234 55 LINE",
"234 524 LINE",
"34 524 LINE",
"34 469 LINE",
"129 469 LINE",
"129 55 LINE",
"35 55 LINE",
"35 0 LINE"
);
}
);
width = 342;
}
);
leftKerningGroup = i;
note = dotlessi;
unicode = 0131;
},
{
glyphname = j;
layers = (
{
background = {
paths = (
{
closed = 1;
nodes = (
"167 -230 OFFCURVE",
"236 -164 OFFCURVE",
"236 -44 CURVE SMOOTH",
"236 524 LINE",
"12 524 LINE",
"12 469 LINE",
"131 469 LINE",
"131 -59 LINE SMOOTH",
"131 -106 OFFCURVE",
"121 -140 OFFCURVE",
"104 -156 CURVE SMOOTH",
"86 -171 OFFCURVE",
"70 -177 OFFCURVE",
"51 -177 CURVE SMOOTH",
"38 -177 OFFCURVE",
"27 -175 OFFCURVE",
"16 -171 CURVE",
"35 -163 OFFCURVE",
"44 -142 OFFCURVE",
"44 -109 CURVE SMOOTH",
"44 -75 OFFCURVE",
"18 -55 OFFCURVE",
"-13 -55 CURVE SMOOTH",
"-51 -55 OFFCURVE",
"-84 -81 OFFCURVE",
"-84 -124 CURVE SMOOTH",
"-84 -190 OFFCURVE",
"-32 -230 OFFCURVE",
"64 -230 CURVE SMOOTH"
);
}
);
};
guideLines = (
{
angle = 270;
position = "{169, 689}";
}
);
layerId = "EE746D13-63D7-48F9-B77E-C723CA6A668B";
paths = (
{
closed = 1;
nodes = (
"208 616 OFFCURVE",
"242 649 OFFCURVE",
"242 688 CURVE SMOOTH",
"242 728 OFFCURVE",
"208 761 OFFCURVE",
"169 761 CURVE SMOOTH",
"130 761 OFFCURVE",
"97 729 OFFCURVE",
"97 688 CURVE SMOOTH",
"97 649 OFFCURVE",
"130 616 OFFCURVE",
"169 616 CURVE SMOOTH"
);
},
{
closed = 1;
nodes = (
"-32 -230 OFFCURVE",
"-84 -181 OFFCURVE",
"-84 -119 CURVE SMOOTH",
"-84 -84 OFFCURVE",
"-55 -55 OFFCURVE",
"-20 -55 CURVE SMOOTH",
"15 -55 OFFCURVE",
"44 -84 OFFCURVE",
"44 -119 CURVE SMOOTH",
"44 -146 OFFCURVE",
"28 -163 OFFCURVE",
"17 -171 CURVE",
"26 -178 OFFCURVE",
"38 -181 OFFCURVE",
"51 -181 CURVE SMOOTH",
"109 -181 OFFCURVE",
"131 -129 OFFCURVE",
"131 -59 CURVE SMOOTH",
"131 469 LINE",
"12 469 LINE",
"12 524 LINE",
"236 524 LINE",
"236 -44 LINE SMOOTH",
"236 -164 OFFCURVE",
"167 -230 OFFCURVE",
"64 -230 CURVE SMOOTH"
);
}
);
width = 314;
}
);
note = j;
unicode = 006A;
},
{
glyphname = jdotless;
layers = (
{
anchors = (
{
name = top;
position = "{145, 524}";
}
);
layerId = "EE746D13-63D7-48F9-B77E-C723CA6A668B";
paths = (
{
closed = 1;
nodes = (
"167 -230 OFFCURVE",
"236 -164 OFFCURVE",
"236 -44 CURVE SMOOTH",
"236 524 LINE",
"12 524 LINE",
"12 469 LINE",
"131 469 LINE",
"131 -59 LINE SMOOTH",
"131 -129 OFFCURVE",
"109 -181 OFFCURVE",
"51 -181 CURVE SMOOTH",
"38 -181 OFFCURVE",
"26 -178 OFFCURVE",
"17 -171 CURVE",
"28 -163 OFFCURVE",
"44 -146 OFFCURVE",
"44 -119 CURVE SMOOTH",
"44 -84 OFFCURVE",
"15 -55 OFFCURVE",
"-20 -55 CURVE SMOOTH",
"-55 -55 OFFCURVE",
"-84 -84 OFFCURVE",
"-84 -119 CURVE SMOOTH",
"-84 -181 OFFCURVE",
"-32 -230 OFFCURVE",
"64 -230 CURVE SMOOTH"
);
}
);
width = 308;
}
);
leftMetricsKey = j;
note = uni0237;
rightMetricsKey = j;
unicode = 0237;
},
{
glyphname = k;
layers = (
{
anchors = (
{
name = bottom;
position = "{331, 0}";
}
);
guideLines = (
{
angle = 122.473;
position = "{558, 55}";
},
{
angle = 45;
position = "{455, 406}";
},
{
angle = 119.373;
position = "{380, 158}";
}
);
layerId = "EE746D13-63D7-48F9-B77E-C723CA6A668B";
paths = (
{
closed = 1;
nodes = (
"381 332 LINE",
"518 469 LINE",
"628 469 LINE",
"628 524 LINE",
"335 524 LINE",
"335 469 LINE",
"432 469 LINE",
"223 268 LINE",
"223 735 LINE",
"19 735 LINE",
"19 675 LINE",
"118 675 LINE",
"118 55 LINE",
"19 55 LINE",
"19 0 LINE",
"296 0 LINE",
"296 55 LINE",
"223 55 LINE",
"223 184 LINE",
"318 269 LINE",
"438 55 LINE",
"365 55 LINE",
"365 0 LINE",
"652 0 LINE",
"652 55 LINE",
"558 55 LINE"
);
}
);
width = 658;
}
);
unicode = 006B;
},
{
glyphname = kgreenlandic;
layers = (
{
layerId = "EE746D13-63D7-48F9-B77E-C723CA6A668B";
paths = (
{
closed = 1;
nodes = (
"396 332 LINE",
"533 469 LINE",
"643 469 LINE",
"643 524 LINE",
"350 524 LINE",
"350 469 LINE",
"447 469 LINE",
"238 268 LINE",
"238 524 LINE",
"34 524 LINE",
"34 464 LINE",
"133 464 LINE",
"133 55 LINE",
"34 55 LINE",
"34 0 LINE",
"311 0 LINE",
"311 55 LINE",
"238 55 LINE",
"238 184 LINE",
"333 269 LINE",
"453 55 LINE",
"380 55 LINE",
"380 0 LINE",
"667 0 LINE",
"667 55 LINE",
"573 55 LINE"
);
},
{
closed = 0;
nodes = (
"461 -175 LINE"
);
}
);
width = 673;
}
);
leftMetricsKey = i;
note = kgreenlandic;
rightKerningGroup = k;
rightMetricsKey = k;
unicode = 0138;
},
{
glyphname = l;
layers = (
{
anchors = (
{
name = bottom;
position = "{181, 0}";
},
{
name = caron;
position = "{400, 524}";
},
{
name = slashshort;
position = "{158, 368}";
},
{
name = top;
position = "{128, 735}";
}
);
layerId = "EE746D13-63D7-48F9-B77E-C723CA6A668B";
paths = (
{
closed = 1;
nodes = (
"335 0 LINE",
"335 55 LINE",
"230 55 LINE",
"230 735 LINE",
"16 735 LINE",
"16 675 LINE",
"125 675 LINE",
"125 55 LINE",
"16 55 LINE",
"16 0 LINE"
);
}
);
width = 351;
}
);
leftKerningGroup = l;
note = l;
unicode = 006C;
},
{
glyphname = m;
layers = (
{
anchors = (
{
name = bottom;
position = "{486, 1}";
},
{
name = top;
position = "{486, 523}";
}
);
background = {
paths = (
{
closed = 1;
nodes = (
"319 0 LINE",
"319 55 LINE",
"230 55 LINE",
"230 286 LINE SMOOTH",
"230 305 OFFCURVE",
"232 323 OFFCURVE",
"235 340 CURVE SMOOTH",
"241 375 OFFCURVE",
"255 409 OFFCURVE",
"276 433 CURVE SMOOTH",
"296 456 OFFCURVE",
"327 471 OFFCURVE",
"365 471 CURVE SMOOTH",
"423 471 OFFCURVE",
"458 432 OFFCURVE",
"458 347 CURVE SMOOTH",
"458 55 LINE",
"369 55 LINE",
"369 0 LINE",
"663 0 LINE",
"663 55 LINE",
"563 55 LINE",
"563 348 LINE SMOOTH",
"563 372 OFFCURVE",
"561 393 OFFCURVE",
"557 412 CURVE SMOOTH",
"549 451 OFFCURVE",
"537 475 OFFCURVE",
"518 494 CURVE SMOOTH",
"499 514 OFFCURVE",
"482 523 OFFCURVE",
"459 530 CURVE SMOOTH",
"437 537 OFFCURVE",
"421 538 OFFCURVE",
"401 538 CURVE SMOOTH",
"333 538 OFFCURVE",
"259 499 OFFCURVE",
"227 426 CURVE",
"215 532 LINE",
"30 524 LINE",
"30 469 LINE",
"125 469 LINE",
"125 55 LINE",
"30 55 LINE",
"30 0 LINE"
);
}
);
};
guideLines = (
{
angle = -30;
position = "{534, 434}";
},
{
angle = 90;
position = "{567, 415}";
}
);
layerId = "EE746D13-63D7-48F9-B77E-C723CA6A668B";
paths = (
{
closed = 1;
nodes = (
"314 0 LINE",
"314 55 LINE",
"230 55 LINE",
"230 266 LINE SMOOTH",
"230 365 OFFCURVE",
"269 471 OFFCURVE",
"349 471 CURVE SMOOTH",
"402 471 OFFCURVE",
"438 432 OFFCURVE",
"438 347 CURVE SMOOTH",
"438 55 LINE",
"354 55 LINE",
"354 0 LINE",
"627 0 LINE",
"627 55 LINE",
"543 55 LINE",
"543 327 LINE SMOOTH",
"543 393 OFFCURVE",
"585 471 OFFCURVE",
"653 471 CURVE SMOOTH",
"711 471 OFFCURVE",
"746 432 OFFCURVE",
"746 347 CURVE SMOOTH",
"746 55 LINE",
"667 55 LINE",
"667 0 LINE",
"941 0 LINE",
"941 55 LINE",
"851 55 LINE",
"851 348 LINE SMOOTH",
"851 372 OFFCURVE",
"849 393 OFFCURVE",
"845 412 CURVE SMOOTH",
"837 451 OFFCURVE",
"825 475 OFFCURVE",
"806 494 CURVE SMOOTH",
"787 514 OFFCURVE",
"770 523 OFFCURVE",
"747 530 CURVE SMOOTH",
"725 537 OFFCURVE",
"709 538 OFFCURVE",
"689 538 CURVE SMOOTH",
"623 538 OFFCURVE",
"565 506 OFFCURVE",
"533 434 CURVE",
"510 506 OFFCURVE",
"474 538 OFFCURVE",
"392 538 CURVE SMOOTH",
"325 538 OFFCURVE",
"256 499 OFFCURVE",
"227 426 CURVE",
"215 532 LINE",
"30 524 LINE",
"30 469 LINE",
"125 469 LINE",
"125 55 LINE",
"30 55 LINE",
"30 0 LINE"
);
}
);
width = 952;
}
);
leftMetricsKey = n;
note = m;
rightKerningGroup = h;
unicode = 006D;
},
{
glyphname = n;
layers = (
{
anchors = (
{
name = bottom;
position = "{345, 0}";
},
{
name = top;
position = "{333, 524}";
}
);
guideLines = (
{
angle = 90;
position = "{365, 471}";
},
{
angle = 90;
position = "{30, 28}";
},
{
angle = 90;
position = "{663, 28}";
}
);
layerId = "EE746D13-63D7-48F9-B77E-C723CA6A668B";
paths = (
{
closed = 1;
nodes = (
"319 0 LINE",
"319 55 LINE",
"230 55 LINE",
"230 286 LINE SMOOTH",
"230 305 OFFCURVE",
"232 323 OFFCURVE",
"235 340 CURVE SMOOTH",
"241 375 OFFCURVE",
"255 409 OFFCURVE",
"276 433 CURVE SMOOTH",
"296 456 OFFCURVE",
"327 471 OFFCURVE",
"365 471 CURVE SMOOTH",
"423 471 OFFCURVE",
"458 432 OFFCURVE",
"458 347 CURVE SMOOTH",
"458 55 LINE",
"369 55 LINE",
"369 0 LINE",
"663 0 LINE",
"663 55 LINE",
"563 55 LINE",
"563 348 LINE SMOOTH",
"563 372 OFFCURVE",
"561 393 OFFCURVE",
"557 412 CURVE SMOOTH",
"549 451 OFFCURVE",
"537 475 OFFCURVE",
"518 494 CURVE SMOOTH",
"499 514 OFFCURVE",
"482 523 OFFCURVE",
"459 530 CURVE SMOOTH",
"437 537 OFFCURVE",
"421 538 OFFCURVE",
"401 538 CURVE SMOOTH",
"333 538 OFFCURVE",
"259 499 OFFCURVE",
"227 426 CURVE",
"215 532 LINE",
"30 524 LINE",
"30 469 LINE",
"125 469 LINE",
"125 55 LINE",
"30 55 LINE",
"30 0 LINE"
);
}
);
width = 674;
}
);
note = n;
rightKerningGroup = n;
unicode = 006E;
},
{
glyphname = eng;
layers = (
{
anchors = (
{
name = bottom;
position = "{345, 0}";
},
{
name = top;
position = "{333, 524}";
}
);
layerId = "EE746D13-63D7-48F9-B77E-C723CA6A668B";
paths = (
{
closed = 1;
nodes = (
"549 451 OFFCURVE",
"537 475 OFFCURVE",
"518 494 CURVE SMOOTH",
"499 514 OFFCURVE",
"482 523 OFFCURVE",
"459 530 CURVE SMOOTH",
"437 537 OFFCURVE",
"421 538 OFFCURVE",
"401 538 CURVE SMOOTH",
"333 538 OFFCURVE",
"259 499 OFFCURVE",
"227 426 CURVE",
"215 532 LINE",
"30 524 LINE",
"30 469 LINE",
"125 469 LINE",
"125 55 LINE",
"30 55 LINE",
"30 0 LINE",
"319 0 LINE",
"319 55 LINE",
"230 55 LINE",
"230 286 LINE SMOOTH",
"230 305 OFFCURVE",
"232 323 OFFCURVE",
"235 340 CURVE SMOOTH",
"241 375 OFFCURVE",
"255 409 OFFCURVE",
"276 433 CURVE SMOOTH",
"296 456 OFFCURVE",
"327 471 OFFCURVE",
"365 471 CURVE SMOOTH",
"423 471 OFFCURVE",
"458 432 OFFCURVE",
"458 347 CURVE",
"457 -59 LINE",
"456 -129 OFFCURVE",
"435 -181 OFFCURVE",
"377 -181 CURVE SMOOTH",
"364 -181 OFFCURVE",
"352 -178 OFFCURVE",
"343 -171 CURVE",
"354 -163 OFFCURVE",
"370 -146 OFFCURVE",
"370 -119 CURVE SMOOTH",
"370 -84 OFFCURVE",
"341 -55 OFFCURVE",
"306 -55 CURVE SMOOTH",
"271 -55 OFFCURVE",
"242 -84 OFFCURVE",
"242 -119 CURVE SMOOTH",
"242 -181 OFFCURVE",
"294 -230 OFFCURVE",
"390 -230 CURVE SMOOTH",
"493 -230 OFFCURVE",
"561 -164 OFFCURVE",
"562 -44 CURVE",
"563 348 LINE",
"563 372 OFFCURVE",
"561 393 OFFCURVE",
"557 412 CURVE SMOOTH"
);
}
);
width = 635;
}
);
leftMetricsKey = n;
rightMetricsKey = j;
unicode = 014B;
},
{
glyphname = o;
layers = (
{
anchors = (
{
name = bottom;
position = "{303, 0}";
},
{
name = horn;
position = "{372, 529}";
},
{
name = top;
position = "{302, 524}";
}
);
background = {
paths = (
{
closed = 1;
nodes = (
"355 -13 OFFCURVE",
"400 -1 OFFCURVE",
"439 24 CURVE SMOOTH",
"516 73 OFFCURVE",
"556 159 OFFCURVE",
"556 262 CURVE SMOOTH",
"556 340 OFFCURVE",
"532 409 OFFCURVE",
"490 458 CURVE SMOOTH",
"447 508 OFFCURVE",
"380 538 OFFCURVE",
"302 538 CURVE SMOOTH",
"250 538 OFFCURVE",
"204 526 OFFCURVE",
"165 501 CURVE SMOOTH",
"87 453 OFFCURVE",
"47 366 OFFCURVE",
"47 262 CURVE SMOOTH",
"47 103 OFFCURVE",
"147 -13 OFFCURVE",
"303 -13 CURVE SMOOTH"
);
},
{
closed = 1;
nodes = (
"214 49 OFFCURVE",
"159 131 OFFCURVE",
"159 256 CURVE SMOOTH",
"159 299 OFFCURVE",
"164 338 OFFCURVE",
"174 371 CURVE SMOOTH",
"193 437 OFFCURVE",
"238 480 OFFCURVE",
"302 480 CURVE SMOOTH",
"334 480 OFFCURVE",
"361 470 OFFCURVE",
"383 450 CURVE SMOOTH",
"427 410 OFFCURVE",
"444 344 OFFCURVE",
"444 256 CURVE SMOOTH",
"444 131 OFFCURVE",
"390 49 OFFCURVE",
"303 49 CURVE SMOOTH"
);
}
);
};
guideLines = (
{
angle = 90.104;
position = "{303, 263}";
}
);
layerId = "EE746D13-63D7-48F9-B77E-C723CA6A668B";
paths = (
{
closed = 1;
nodes = (
"459 -13 OFFCURVE",
"556 104 OFFCURVE",
"556 262 CURVE SMOOTH",
"556 419 OFFCURVE",
"462 538 OFFCURVE",
"302 538 CURVE SMOOTH",
"147 538 OFFCURVE",
"47 424 OFFCURVE",
"47 262 CURVE SMOOTH",
"47 103 OFFCURVE",
"147 -13 OFFCURVE",
"303 -13 CURVE SMOOTH"
);
},
{
closed = 1;
nodes = (
"214 49 OFFCURVE",
"159 131 OFFCURVE",
"159 256 CURVE SMOOTH",
"159 377 OFFCURVE",
"200 480 OFFCURVE",
"302 480 CURVE SMOOTH",
"404 480 OFFCURVE",
"444 380 OFFCURVE",
"444 256 CURVE SMOOTH",
"444 131 OFFCURVE",
"390 49 OFFCURVE",
"303 49 CURVE SMOOTH"
);
}
);
width = 603;
}
);
leftKerningGroup = c;
note = o;
rightKerningGroup = b;
unicode = 006F;
},
{
glyphname = oe;
layers = (
{
layerId = "EE746D13-63D7-48F9-B77E-C723CA6A668B";
paths = (
{
closed = 1;
nodes = (
"815 -14 OFFCURVE",
"897 55 OFFCURVE",
"923 163 CURVE",
"865 181 LINE",
"844 104 OFFCURVE",
"778 60 OFFCURVE",
"710 60 CURVE SMOOTH",
"657 60 OFFCURVE",
"616 83 OFFCURVE",
"593 122 CURVE SMOOTH",
"569 161 OFFCURVE",
"556 209 OFFCURVE",
"556 265 CURVE SMOOTH",
"556 269 LINE",
"933 269 LINE",
"931 355 OFFCURVE",
"905 426 OFFCURVE",
"862 470 CURVE SMOOTH",
"819 515 OFFCURVE",
"760 539 OFFCURVE",
"694 539 CURVE SMOOTH",
"612 539 OFFCURVE",
"545 503 OFFCURVE",
"502 443 CURVE",
"454 506 OFFCURVE",
"388 538 OFFCURVE",
"302 538 CURVE SMOOTH",
"250 538 OFFCURVE",
"204 526 OFFCURVE",
"165 501 CURVE SMOOTH",
"87 453 OFFCURVE",
"47 366 OFFCURVE",
"47 262 CURVE SMOOTH",
"47 103 OFFCURVE",
"147 -13 OFFCURVE",
"303 -13 CURVE SMOOTH",
"387 -13 OFFCURVE",
"456 21 OFFCURVE",
"501 81 CURVE",
"546 22 OFFCURVE",
"614 -14 OFFCURVE",
"699 -14 CURVE SMOOTH"
);
},
{
closed = 1;
nodes = (
"560 322 LINE",
"568 417 OFFCURVE",
"625 481 OFFCURVE",
"697 481 CURVE SMOOTH",
"767 481 OFFCURVE",
"823 416 OFFCURVE",
"825 322 CURVE"
);
},
{
closed = 1;
nodes = (
"214 49 OFFCURVE",
"159 131 OFFCURVE",
"159 256 CURVE SMOOTH",
"159 299 OFFCURVE",
"164 338 OFFCURVE",
"174 371 CURVE SMOOTH",
"193 437 OFFCURVE",
"238 480 OFFCURVE",
"302 480 CURVE SMOOTH",
"334 480 OFFCURVE",
"361 470 OFFCURVE",
"383 450 CURVE SMOOTH",
"427 410 OFFCURVE",
"444 344 OFFCURVE",
"444 256 CURVE SMOOTH",
"444 131 OFFCURVE",
"390 49 OFFCURVE",
"303 49 CURVE SMOOTH"
);
}
);
width = 971;
}
);
leftMetricsKey = o;
rightMetricsKey = e;
unicode = 0153;
},
{
glyphname = p;
layers = (
{
anchors = (
{
name = top;
position = "{344, 524}";
}
);
guideLines = (
{
angle = 90;
position = "{198, 489}";
}
);
layerId = "EE746D13-63D7-48F9-B77E-C723CA6A668B";
paths = (
{
closed = 1;
nodes = (
"321 -196 LINE",
"321 -136 LINE",
"213 -136 LINE",
"213 65 LINE",
"246 16 OFFCURVE",
"299 -13 OFFCURVE",
"357 -13 CURVE SMOOTH",
"493 -13 OFFCURVE",
"579 101 OFFCURVE",
"579 263 CURVE SMOOTH",
"579 314 OFFCURVE",
"570 360 OFFCURVE",
"553 402 CURVE SMOOTH",
"518 485 OFFCURVE",
"451 538 OFFCURVE",
"369 538 CURVE SMOOTH",
"301 538 OFFCURVE",
"245 504 OFFCURVE",
"210 440 CURVE",
"198 537 LINE",
"13 524 LINE",
"13 469 LINE",
"108 469 LINE",
"108 -137 LINE",
"-7 -137 LINE",
"-7 -196 LINE"
);
},
{
closed = 1;
nodes = (
"292 42 OFFCURVE",
"256 70 OFFCURVE",
"236 114 CURVE SMOOTH",
"216 157 OFFCURVE",
"206 207 OFFCURVE",
"206 260 CURVE SMOOTH",
"206 386 OFFCURVE",
"260 476 OFFCURVE",
"338 476 CURVE SMOOTH",
"365 476 OFFCURVE",
"388 466 OFFCURVE",
"408 446 CURVE SMOOTH",
"449 405 OFFCURVE",
"467 341 OFFCURVE",
"467 269 CURVE SMOOTH",
"467 213 OFFCURVE",
"457 161 OFFCURVE",
"438 116 CURVE SMOOTH",
"418 71 OFFCURVE",
"383 42 OFFCURVE",
"338 42 CURVE SMOOTH"
);
}
);
width = 626;
}
);
note = p;
rightKerningGroup = b;
rightMetricsKey = b;
unicode = 0070;
},
{
glyphname = thorn;
layers = (
{
layerId = "EE746D13-63D7-48F9-B77E-C723CA6A668B";
paths = (
{
closed = 1;
nodes = (
"-7 -196 LINE",
"321 -196 LINE",
"321 -136 LINE",
"213 -136 LINE",
"213 65 LINE",
"246 16 OFFCURVE",
"299 -13 OFFCURVE",
"357 -13 CURVE SMOOTH",
"493 -13 OFFCURVE",
"579 101 OFFCURVE",
"579 263 CURVE SMOOTH",
"579 314 OFFCURVE",
"570 360 OFFCURVE",
"553 402 CURVE SMOOTH",
"518 485 OFFCURVE",
"451 538 OFFCURVE",
"369 538 CURVE SMOOTH",
"301 538 OFFCURVE",
"245 504 OFFCURVE",
"210 440 CURVE",
"210 750 LINE",
"13 750 LINE",
"13 695 LINE",
"108 695 LINE",
"108 -137 LINE",
"-7 -137 LINE"
);
},
{
closed = 1;
nodes = (
"292 42 OFFCURVE",
"256 70 OFFCURVE",
"236 114 CURVE SMOOTH",
"216 157 OFFCURVE",
"206 207 OFFCURVE",
"206 260 CURVE SMOOTH",
"206 386 OFFCURVE",
"260 476 OFFCURVE",
"338 476 CURVE SMOOTH",
"365 476 OFFCURVE",
"388 466 OFFCURVE",
"408 446 CURVE SMOOTH",
"448 405 OFFCURVE",
"467 341 OFFCURVE",
"467 269 CURVE SMOOTH",
"467 213 OFFCURVE",
"458 161 OFFCURVE",
"438 116 CURVE SMOOTH",
"418 71 OFFCURVE",
"383 42 OFFCURVE",
"338 42 CURVE SMOOTH"
);
}
);
width = 626;
}
);
leftMetricsKey = p;
rightMetricsKey = p;
unicode = 00FE;
},
{
glyphname = q;
layers = (
{
layerId = "EE746D13-63D7-48F9-B77E-C723CA6A668B";
paths = (
{
closed = 1;
nodes = (
"622 -195 LINE",
"622 -135 LINE",
"521 -135 LINE",
"521 524 LINE",
"476 524 LINE",
"438 428 LINE",
"406 503 OFFCURVE",
"338 538 OFFCURVE",
"266 538 CURVE SMOOTH",
"223 538 OFFCURVE",
"185 526 OFFCURVE",
"152 502 CURVE SMOOTH",
"85 454 OFFCURVE",
"46 366 OFFCURVE",
"46 263 CURVE SMOOTH",
"46 101 OFFCURVE",
"135 -13 OFFCURVE",
"271 -13 CURVE SMOOTH",
"329 -13 OFFCURVE",
"383 16 OFFCURVE",
"416 65 CURVE",
"416 -135 LINE",
"310 -134 LINE",
"310 -195 LINE"
);
},
{
closed = 1;
nodes = (
"241 42 OFFCURVE",
"206 71 OFFCURVE",
"187 116 CURVE SMOOTH",
"167 161 OFFCURVE",
"158 212 OFFCURVE",
"158 269 CURVE SMOOTH",
"158 305 OFFCURVE",
"163 339 OFFCURVE",
"172 370 CURVE SMOOTH",
"191 433 OFFCURVE",
"233 480 OFFCURVE",
"286 480 CURVE SMOOTH",
"312 480 OFFCURVE",
"335 469 OFFCURVE",
"355 448 CURVE SMOOTH",
"395 404 OFFCURVE",
"416 329 OFFCURVE",
"416 263 CURVE SMOOTH",
"416 197 OFFCURVE",
"405 152 OFFCURVE",
"385 111 CURVE SMOOTH",
"365 70 OFFCURVE",
"329 42 OFFCURVE",
"286 42 CURVE SMOOTH"
);
}
);
width = 622;
}
);
leftKerningGroup = c;
leftMetricsKey = d;
note = q;
unicode = 0071;
},
{
glyphname = r;
layers = (
{
anchors = (
{
name = bottom;
position = "{180, 0}";
},
{
name = top;
position = "{228, 524}";
}
);
layerId = "EE746D13-63D7-48F9-B77E-C723CA6A668B";
paths = (
{
closed = 1;
nodes = (
"340 0 LINE",
"340 55 LINE",
"230 55 LINE",
"230 281 LINE SMOOTH",
"230 329 OFFCURVE",
"238 375 OFFCURVE",
"255 415 CURVE SMOOTH",
"272 456 OFFCURVE",
"302 482 OFFCURVE",
"341 482 CURVE",
"336 477 LINE",
"330 469 OFFCURVE",
"321 453 OFFCURVE",
"321 439 CURVE SMOOTH",
"321 399 OFFCURVE",
"353 374 OFFCURVE",
"391 374 CURVE SMOOTH",
"431 374 OFFCURVE",
"465 403 OFFCURVE",
"465 454 CURVE SMOOTH",
"465 507 OFFCURVE",
"422 538 OFFCURVE",
"369 538 CURVE SMOOTH",
"330 538 OFFCURVE",
"295 521 OFFCURVE",
"273 496 CURVE SMOOTH",
"250 471 OFFCURVE",
"236 445 OFFCURVE",
"228 418 CURVE",
"215 532 LINE",
"30 524 LINE",
"30 469 LINE",
"125 469 LINE",
"125 55 LINE",
"30 55 LINE",
"30 0 LINE"
);
}
);
width = 473;
}
);
leftKerningGroup = r;
leftMetricsKey = n;
note = r;
rightKerningGroup = r;
unicode = 0072;
},
{
glyphname = s;
layers = (
{
anchors = (
{
name = bottom;
position = "{269, 0}";
},
{
name = top;
position = "{266, 524}";
}
);
guideLines = (
{
angle = 180;
position = "{248, 402}";
}
);
layerId = "EE746D13-63D7-48F9-B77E-C723CA6A668B";
paths = (
{
closed = 1;
nodes = (
"386 -13 OFFCURVE",
"488 42 OFFCURVE",
"488 146 CURVE SMOOTH",
"488 234 OFFCURVE",
"421 276 OFFCURVE",
"320 307 CURVE SMOOTH",
"234 333 OFFCURVE",
"152 352 OFFCURVE",
"152 402 CURVE SMOOTH",
"152 455 OFFCURVE",
"205 480 OFFCURVE",
"272 480 CURVE SMOOTH",
"312 480 OFFCURVE",
"349 472 OFFCURVE",
"381 456 CURVE",
"362 445 OFFCURVE",
"344 430 OFFCURVE",
"344 402 CURVE SMOOTH",
"344 363 OFFCURVE",
"374 339 OFFCURVE",
"411 339 CURVE SMOOTH",
"445 339 OFFCURVE",
"474 369 OFFCURVE",
"474 412 CURVE SMOOTH",
"474 491 OFFCURVE",
"358 538 OFFCURVE",
"266 538 CURVE SMOOTH",
"161 538 OFFCURVE",
"61 487 OFFCURVE",
"61 392 CURVE SMOOTH",
"61 305 OFFCURVE",
"137 265 OFFCURVE",
"228 240 CURVE SMOOTH",
"317 216 OFFCURVE",
"395 196 OFFCURVE",
"395 134 CURVE SMOOTH",
"395 74 OFFCURVE",
"340 47 OFFCURVE",
"266 47 CURVE SMOOTH",
"208 47 OFFCURVE",
"161 66 OFFCURVE",
"142 84 CURVE",
"166 84 OFFCURVE",
"189 108 OFFCURVE",
"189 141 CURVE SMOOTH",
"189 180 OFFCURVE",
"160 200 OFFCURVE",
"123 200 CURVE SMOOTH",
"88 200 OFFCURVE",
"57 170 OFFCURVE",
"57 128 CURVE SMOOTH",
"57 40 OFFCURVE",
"165 -13 OFFCURVE",
"269 -13 CURVE SMOOTH"
);
}
);
width = 528;
}
);
unicode = 0073;
},
{
glyphname = germandbls;
layers = (
{
layerId = "EE746D13-63D7-48F9-B77E-C723CA6A668B";
paths = (
{
closed = 1;
nodes = (
"422 487 OFFCURVE",
"555 508 OFFCURVE",
"555 617 CURVE SMOOTH",
"555 707 OFFCURVE",
"468 773 OFFCURVE",
"346 773 CURVE SMOOTH",
"196 773 OFFCURVE",
"110 695 OFFCURVE",
"110 576 CURVE SMOOTH",
"110 524 LINE",
"18 524 LINE",
"18 466 LINE",
"110 466 LINE",
"110 58 LINE",
"18 58 LINE",
"18 0 LINE",
"215 0 LINE",
"215 576 LINE SMOOTH",
"215 658 OFFCURVE",
"261 732 OFFCURVE",
"346 732 CURVE SMOOTH",
"415 732 OFFCURVE",
"450 682 OFFCURVE",
"450 617 CURVE SMOOTH",
"450 524 OFFCURVE",
"335 506 OFFCURVE",
"335 402 CURVE SMOOTH",
"335 256 OFFCURVE",
"546 253 OFFCURVE",
"546 140 CURVE SMOOTH",
"546 88 OFFCURVE",
"505 46 OFFCURVE",
"443 46 CURVE SMOOTH",
"380 46 OFFCURVE",
"349 85 OFFCURVE",
"349 93 CURVE",
"383 93 OFFCURVE",
"406 122 OFFCURVE",
"406 155 CURVE SMOOTH",
"406 194 OFFCURVE",
"377 219 OFFCURVE",
"340 219 CURVE SMOOTH",
"305 219 OFFCURVE",
"274 189 OFFCURVE",
"274 147 CURVE SMOOTH",
"274 89 OFFCURVE",
"306 -14 OFFCURVE",
"455 -14 CURVE SMOOTH",
"584 -14 OFFCURVE",
"651 55 OFFCURVE",
"651 150 CURVE SMOOTH",
"651 327 OFFCURVE",
"422 326 OFFCURVE",
"422 412 CURVE SMOOTH"
);
}
);
width = 671;
}
);
unicode = 00DF;
},
{
glyphname = t;
layers = (
{
anchors = (
{
name = bottom;
position = "{239, 0}";
},
{
name = caron;
position = "{355, 524}";
},
{
name = strokeshort;
position = "{332, 318}";
},
{
name = top;
position = "{215, 735}";
}
);
layerId = "EE746D13-63D7-48F9-B77E-C723CA6A668B";
paths = (
{
closed = 1;
nodes = (
"383 -13 OFFCURVE",
"423 52 OFFCURVE",
"423 181 CURVE SMOOTH",
"423 241 LINE",
"364 241 LINE",
"364 171 LINE SMOOTH",
"364 85 OFFCURVE",
"337 55 OFFCURVE",
"285 55 CURVE SMOOTH",
"242 55 OFFCURVE",
"214 84 OFFCURVE",
"214 141 CURVE SMOOTH",
"214 468 LINE",
"406 468 LINE",
"406 524 LINE",
"214 524 LINE",
"214 735 LINE",
"158 735 LINE",
"158 634 OFFCURVE",
"126 539 OFFCURVE",
"-7 518 CURVE",
"-7 468 LINE",
"109 468 LINE",
"109 144 LINE SMOOTH",
"109 91 OFFCURVE",
"129 49 OFFCURVE",
"159 24 CURVE SMOOTH",
"189 -1 OFFCURVE",
"227 -13 OFFCURVE",
"267 -13 CURVE SMOOTH"
);
}
);
width = 437;
}
);
leftKerningGroup = t;
note = t;
unicode = 0074;
},
{
glyphname = u;
layers = (
{
anchors = (
{
name = bottom;
position = "{309, 0}";
},
{
name = horn;
position = "{426, 524}";
},
{
name = ogonek;
position = "{590, 0}";
},
{
name = top;
position = "{309, 524}";
}
);
background = {
paths = (
{
closed = 1;
nodes = (
"355 525 LINE",
"355 470 LINE",
"444 470 LINE",
"444 239 LINE SMOOTH",
"444 220 OFFCURVE",
"442 202 OFFCURVE",
"439 185 CURVE SMOOTH",
"433 150 OFFCURVE",
"419 116 OFFCURVE",
"398 92 CURVE SMOOTH",
"378 69 OFFCURVE",
"347 54 OFFCURVE",
"309 54 CURVE SMOOTH",
"251 54 OFFCURVE",
"216 93 OFFCURVE",
"216 178 CURVE SMOOTH",
"216 470 LINE",
"305 470 LINE",
"305 525 LINE",
"11 525 LINE",
"11 469 LINE",
"111 470 LINE",
"111 176 LINE SMOOTH",
"111 152 OFFCURVE",
"113 131 OFFCURVE",
"117 112 CURVE SMOOTH",
"125 74 OFFCURVE",
"137 50 OFFCURVE",
"156 31 CURVE SMOOTH",
"176 11 OFFCURVE",
"192 2 OFFCURVE",
"215 -5 CURVE SMOOTH",
"237 -12 OFFCURVE",
"253 -13 OFFCURVE",
"273 -13 CURVE SMOOTH",
"341 -13 OFFCURVE",
"415 26 OFFCURVE",
"447 99 CURVE",
"459 -7 LINE",
"644 1 LINE",
"644 56 LINE",
"549 56 LINE",
"549 470 LINE",
"644 470 LINE",
"644 525 LINE"
);
}
);
};
guideLines = (
{
position = "{424, 83}";
},
{
angle = 90;
position = "{309, 54}";
}
);
layerId = "EE746D13-63D7-48F9-B77E-C723CA6A668B";
paths = (
{
closed = 1;
nodes = (
"645 0 LINE",
"645 55 LINE",
"550 55 LINE",
"550 524 LINE",
"356 524 LINE",
"356 469 LINE",
"444 469 LINE",
"444 239 LINE SMOOTH",
"444 144 OFFCURVE",
"403 54 OFFCURVE",
"309 54 CURVE SMOOTH",
"251 54 OFFCURVE",
"215 93 OFFCURVE",
"215 178 CURVE SMOOTH",
"215 524 LINE",
"11 524 LINE",
"11 469 LINE",
"110 469 LINE",
"110 176 LINE SMOOTH",
"110 65 OFFCURVE",
"158 -13 OFFCURVE",
"272 -13 CURVE SMOOTH",
"349 -13 OFFCURVE",
"415 26 OFFCURVE",
"447 99 CURVE",
"467 0 LINE"
);
}
);
width = 675;
}
);
leftKerningGroup = u;
leftMetricsKey = "=|n";
note = u;
rightKerningGroup = u;
rightMetricsKey = "=|n";
unicode = 0075;
},
{
glyphname = v;
layers = (
{
guideLines = (
{
angle = 110.1399;
position = "{176, 235}";
},
{
angle = 110.1399;
position = "{281, 235}";
},
{
angle = 70.5089;
position = "{460, 235}";
},
{
angle = 70.5089;
position = "{384, 235}";
}
);
layerId = "EE746D13-63D7-48F9-B77E-C723CA6A668B";
paths = (
{
closed = 1;
nodes = (
"377 0 LINE",
"543 469 LINE",
"627 469 LINE",
"627 524 LINE",
"377 524 LINE",
"377 469 LINE",
"467 469 LINE",
"333 92 LINE",
"195 469 LINE",
"295 469 LINE",
"295 524 LINE",
"0 524 LINE",
"0 469 LINE",
"90 469 LINE",
"262 0 LINE"
);
}
);
width = 627;
}
);
unicode = 0076;
},
{
glyphname = w;
layers = (
{
anchors = (
{
name = top;
position = "{487, 524}";
}
);
guideLines = (
{
angle = 110;
position = "{171, 235}";
},
{
angle = 110;
position = "{276, 235}";
},
{
angle = 71;
position = "{765, 235}";
},
{
angle = 71;
position = "{689, 235}";
},
{
angle = 71.6633;
position = "{418, 175}";
},
{
angle = 71.6633;
position = "{342, 175}";
},
{
angle = 90;
position = "{462, 128}";
},
{
position = "{321, 111}";
},
{
angle = 107.418;
position = "{495, 290}";
}
);
layerId = "EE746D13-63D7-48F9-B77E-C723CA6A668B";
paths = (
{
closed = 1;
nodes = (
"360 0 LINE",
"476 350 LINE",
"586 0 LINE",
"693 0 LINE",
"846 469 LINE",
"930 469 LINE",
"930 524 LINE",
"680 524 LINE",
"680 469 LINE",
"770 469 LINE",
"656 111 LINE",
"544 468 LINE",
"441 468 LINE",
"321 111 LINE",
"191 469 LINE",
"293 469 LINE",
"293 524 LINE",
"0 524 LINE",
"0 469 LINE",
"86 469 LINE",
"257 0 LINE"
);
}
);
width = 930;
}
);
unicode = 0077;
},
{
glyphname = x;
layers = (
{
anchors = (
{
name = top;
position = "{286, 524}";
}
);
guideLines = (
{
angle = 53.9275;
position = "{360, 394}";
},
{
angle = 53.9275;
position = "{436, 394}";
},
{
angle = 90;
position = "{315, 318}";
},
{
angle = 125.918;
position = "{247, 391}";
},
{
angle = 125.918;
position = "{138, 391}";
}
);
layerId = "EE746D13-63D7-48F9-B77E-C723CA6A668B";
paths = (
{
closed = 1;
nodes = (
"225 0 LINE",
"225 55 LINE",
"155 55 LINE",
"269 210 LINE",
"382 55 LINE",
"301 55 LINE",
"301 0 LINE",
"561 0 LINE",
"561 55 LINE",
"491 55 LINE",
"340 262 LINE",
"491 469 LINE",
"561 469 LINE",
"561 524 LINE",
"349 524 LINE",
"349 469 LINE",
"415 469 LINE",
"302 315 LINE",
"190 469 LINE",
"269 469 LINE",
"269 524 LINE",
"11 524 LINE",
"11 469 LINE",
"81 469 LINE",
"231 263 LINE",
"79 55 LINE",
"11 55 LINE",
"11 0 LINE"
);
}
);
width = 572;
}
);
leftKerningGroup = x;
note = x;
rightKerningGroup = x;
unicode = 0078;
},
{
glyphname = y;
layers = (
{
anchors = (
{
name = bottom;
position = "{426, 0}";
},
{
name = top;
position = "{336, 524}";
}
);
guideLines = (
{
angle = 90;
position = "{13, -119}";
},
{
position = "{107, -31}";
},
{
angle = 112.0069;
position = "{180, 229}";
},
{
angle = 112.0069;
position = "{290, 229}";
},
{
angle = 70.3693;
position = "{463, 234}";
},
{
angle = 70.3693;
position = "{387, 234}";
},
{
angle = 90;
position = "{336, 107}";
}
);
layerId = "EE746D13-63D7-48F9-B77E-C723CA6A668B";
paths = (
{
closed = 1;
nodes = (
"262 -228 OFFCURVE",
"319 -169 OFFCURVE",
"379 -2 CURVE SMOOTH",
"547 469 LINE",
"624 469 LINE",
"624 524 LINE",
"390 524 LINE",
"390 469 LINE",
"471 469 LINE",
"341 104 LINE",
"193 469 LINE",
"282 469 LINE",
"282 524 LINE",
"0 524 LINE",
"0 469 LINE",
"83 469 LINE",
"289 -41 LINE",
"250 -149 OFFCURVE",
"206 -184 OFFCURVE",
"169 -184 CURVE SMOOTH",
"151 -184 OFFCURVE",
"142 -179 OFFCURVE",
"135 -173 CURVE",
"146 -167 OFFCURVE",
"168 -149 OFFCURVE",
"168 -113 CURVE SMOOTH",
"168 -73 OFFCURVE",
"136 -41 OFFCURVE",
"96 -41 CURVE SMOOTH",
"55 -41 OFFCURVE",
"23 -73 OFFCURVE",
"23 -113 CURVE SMOOTH",
"23 -177 OFFCURVE",
"85 -228 OFFCURVE",
"165 -228 CURVE SMOOTH"
);
}
);
width = 620;
}
);
leftKerningGroup = y;
note = y;
rightKerningGroup = y;
unicode = 0079;
},
{
glyphname = z;
layers = (
{
anchors = (
{
name = bottom;
position = "{270, 0}";
},
{
name = top;
position = "{270, 524}";
}
);
guideLines = (
{
angle = 90;
position = "{270, 430}";
}
);
layerId = "EE746D13-63D7-48F9-B77E-C723CA6A668B";
paths = (
{
closed = 1;
nodes = (
"479 0 LINE",
"479 204 LINE",
"399 204 LINE",
"399 55 LINE",
"152 55 LINE",
"477 451 LINE",
"477 524 LINE",
"62 524 LINE",
"62 335 LINE",
"142 335 LINE",
"142 469 LINE",
"369 469 LINE",
"48 77 LINE",
"47 77 LINE",
"47 0 LINE"
);
}
);
width = 557;
}
);
note = z;
rightKerningGroup = z;
unicode = 007A;
},
{
glyphname = c_h;
layers = (
{
guideLines = (
{
angle = 90;
position = "{653, 366}";
}
);
layerId = "EE746D13-63D7-48F9-B77E-C723CA6A668B";
paths = (
{
closed = 1;
nodes = (
"422 -13 OFFCURVE",
"505 56 OFFCURVE",
"530 163 CURVE",
"475 181 LINE",
"459 124 OFFCURVE",
"390 66 OFFCURVE",
"322 66 CURVE SMOOTH",
"219 66 OFFCURVE",
"158 143 OFFCURVE",
"158 268 CURVE SMOOTH",
"158 381 OFFCURVE",
"216 483 OFFCURVE",
"329 483 CURVE SMOOTH",
"380 483 OFFCURVE",
"421 458 OFFCURVE",
"442 424 CURVE",
"402 424 OFFCURVE",
"367 399 OFFCURVE",
"367 357 CURVE SMOOTH",
"367 315 OFFCURVE",
"400 288 OFFCURVE",
"442 288 CURVE SMOOTH",
"490 288 OFFCURVE",
"519 328 OFFCURVE",
"519 367 CURVE SMOOTH",
"519 472 OFFCURVE",
"420 538 OFFCURVE",
"312 538 CURVE SMOOTH",
"149 538 OFFCURVE",
"47 415 OFFCURVE",
"47 252 CURVE SMOOTH",
"47 98 OFFCURVE",
"151 -13 OFFCURVE",
"300 -13 CURVE SMOOTH"
);
},
{
closed = 1;
nodes = (
"653 57 LINE",
"563 57 LINE",
"563 0 LINE",
"853 0 LINE",
"853 57 LINE",
"758 57 LINE",
"758 292 LINE SMOOTH",
"758 387 OFFCURVE",
"838 469 OFFCURVE",
"908 469 CURVE SMOOTH",
"955 469 OFFCURVE",
"986 433 OFFCURVE",
"986 357 CURVE SMOOTH",
"986 57 LINE",
"891 57 LINE",
"891 0 LINE",
"1196 0 LINE",
"1196 57 LINE",
"1091 57 LINE",
"1091 353 LINE SMOOTH",
"1091 385 OFFCURVE",
"1087 413 OFFCURVE",
"1079 437 CURVE SMOOTH",
"1063 484 OFFCURVE",
"1041 506 OFFCURVE",
"1010 521 CURVE SMOOTH",
"978 536 OFFCURVE",
"957 538 OFFCURVE",
"929 538 CURVE SMOOTH",
"908 538 OFFCURVE",
"888 535 OFFCURVE",
"868 529 CURVE SMOOTH",
"827 516 OFFCURVE",
"783 482 OFFCURVE",
"758 431 CURVE",
"758 735 LINE",
"605 735 LINE SMOOTH",
"496 735 OFFCURVE",
"406 648 OFFCURVE",
"406 537 CURVE SMOOTH",
"406 500 OFFCURVE",
"423 459 OFFCURVE",
"446 427 CURVE",
"490 457 LINE",
"470 483 OFFCURVE",
"465 507 OFFCURVE",
"465 537 CURVE SMOOTH",
"465 615 OFFCURVE",
"528 676 OFFCURVE",
"605 676 CURVE SMOOTH",
"653 676 LINE"
);
}
);
width = 1209;
}
);
leftKerningGroup = c;
leftMetricsKey = c;
note = c_h;
rightKerningGroup = h;
rightMetricsKey = h;
},
{
glyphname = c_k;
layers = (
{
guideLines = (
{
angle = 45;
position = "{345, 604}";
}
);
layerId = "EE746D13-63D7-48F9-B77E-C723CA6A668B";
paths = (
{
closed = 1;
nodes = (
"422 -13 OFFCURVE",
"505 56 OFFCURVE",
"530 163 CURVE",
"475 181 LINE",
"459 124 OFFCURVE",
"390 66 OFFCURVE",
"322 66 CURVE SMOOTH",
"219 66 OFFCURVE",
"158 143 OFFCURVE",
"158 268 CURVE SMOOTH",
"158 381 OFFCURVE",
"216 483 OFFCURVE",
"329 483 CURVE SMOOTH",
"380 483 OFFCURVE",
"421 458 OFFCURVE",
"442 424 CURVE",
"402 424 OFFCURVE",
"367 399 OFFCURVE",
"367 357 CURVE SMOOTH",
"367 315 OFFCURVE",
"400 288 OFFCURVE",
"442 288 CURVE SMOOTH",
"490 288 OFFCURVE",
"519 328 OFFCURVE",
"519 367 CURVE SMOOTH",
"519 472 OFFCURVE",
"420 538 OFFCURVE",
"312 538 CURVE SMOOTH",
"149 538 OFFCURVE",
"47 415 OFFCURVE",
"47 252 CURVE SMOOTH",
"47 98 OFFCURVE",
"151 -13 OFFCURVE",
"300 -13 CURVE SMOOTH"
);
},
{
closed = 1;
nodes = (
"470 483 OFFCURVE",
"462 507 OFFCURVE",
"462 537 CURVE SMOOTH",
"462 615 OFFCURVE",
"525 676 OFFCURVE",
"602 676 CURVE SMOOTH",
"681 676 LINE",
"681 55 LINE",
"582 55 LINE",
"582 0 LINE",
"859 0 LINE",
"859 55 LINE",
"786 55 LINE",
"786 184 LINE",
"881 269 LINE",
"1001 55 LINE",
"928 55 LINE",
"928 0 LINE",
"1215 0 LINE",
"1215 55 LINE",
"1121 55 LINE",
"944 332 LINE",
"1081 469 LINE",
"1191 469 LINE",
"1191 524 LINE",
"898 524 LINE",
"898 469 LINE",
"995 469 LINE",
"786 268 LINE",
"786 735 LINE",
"605 735 LINE SMOOTH",
"496 735 OFFCURVE",
"406 648 OFFCURVE",
"406 537 CURVE SMOOTH",
"406 500 OFFCURVE",
"423 459 OFFCURVE",
"446 427 CURVE",
"490 457 LINE"
);
}
);
width = 1221;
}
);
leftKerningGroup = c;
leftMetricsKey = c;
note = c_k;
rightMetricsKey = k;
},
{
glyphname = c_t;
layers = (
{
guideLines = (
{
angle = 90;
position = "{530, 163}";
},
{
position = "{363, 745}";
},
{
angle = 90;
position = "{418, 666}";
}
);
layerId = "EE746D13-63D7-48F9-B77E-C723CA6A668B";
paths = (
{
closed = 1;
nodes = (
"422 -13 OFFCURVE",
"505 56 OFFCURVE",
"530 163 CURVE",
"475 181 LINE",
"459 124 OFFCURVE",
"390 66 OFFCURVE",
"322 66 CURVE SMOOTH",
"219 66 OFFCURVE",
"158 143 OFFCURVE",
"158 268 CURVE SMOOTH",
"158 381 OFFCURVE",
"216 483 OFFCURVE",
"329 483 CURVE SMOOTH",
"380 483 OFFCURVE",
"421 458 OFFCURVE",
"442 424 CURVE",
"402 424 OFFCURVE",
"367 399 OFFCURVE",
"367 357 CURVE SMOOTH",
"367 315 OFFCURVE",
"400 288 OFFCURVE",
"442 288 CURVE SMOOTH",
"490 288 OFFCURVE",
"519 328 OFFCURVE",
"519 367 CURVE SMOOTH",
"519 472 OFFCURVE",
"420 538 OFFCURVE",
"312 538 CURVE SMOOTH",
"149 538 OFFCURVE",
"47 415 OFFCURVE",
"47 252 CURVE SMOOTH",
"47 98 OFFCURVE",
"151 -13 OFFCURVE",
"300 -13 CURVE SMOOTH"
);
},
{
closed = 1;
nodes = (
"946 -13 OFFCURVE",
"986 52 OFFCURVE",
"986 181 CURVE SMOOTH",
"986 241 LINE",
"927 241 LINE",
"927 171 LINE SMOOTH",
"927 85 OFFCURVE",
"900 55 OFFCURVE",
"848 55 CURVE SMOOTH",
"805 55 OFFCURVE",
"777 84 OFFCURVE",
"777 141 CURVE SMOOTH",
"777 468 LINE",
"969 468 LINE",
"969 524 LINE",
"777 524 LINE",
"777 665 LINE",
"721 665 LINE",
"721 554 OFFCURVE",
"639 529 OFFCURVE",
"556 518 CURVE",
"556 468 LINE",
"672 468 LINE",
"672 144 LINE SMOOTH",
"672 91 OFFCURVE",
"692 49 OFFCURVE",
"722 24 CURVE SMOOTH",
"752 -1 OFFCURVE",
"790 -13 OFFCURVE",
"830 -13 CURVE SMOOTH"
);
},
{
closed = 1;
nodes = (
"777 665 LINE",
"777 758 OFFCURVE",
"705 860 OFFCURVE",
"536 860 CURVE SMOOTH",
"368 860 OFFCURVE",
"296 740 OFFCURVE",
"296 646 CURVE SMOOTH",
"296 558 OFFCURVE",
"341 502 OFFCURVE",
"407 460 CURVE",
"435 506 LINE",
"382 535 OFFCURVE",
"352 575 OFFCURVE",
"352 646 CURVE SMOOTH",
"352 707 OFFCURVE",
"401 801 OFFCURVE",
"536 801 CURVE SMOOTH",
"672 801 OFFCURVE",
"721 727 OFFCURVE",
"721 665 CURVE"
);
}
);
width = 1000;
}
);
leftMetricsKey = c;
rightMetricsKey = t;
},
{
glyphname = f_f;
layers = (
{
layerId = "EE746D13-63D7-48F9-B77E-C723CA6A668B";
paths = (
{
closed = 1;
nodes = (
"670 0 LINE",
"670 55 LINE",
"548 55 LINE",
"548 469 LINE",
"701 469 LINE",
"701 524 LINE",
"545 524 LINE",
"545 576 LINE SMOOTH",
"545 673 OFFCURVE",
"573 732 OFFCURVE",
"639 732 CURVE SMOOTH",
"671 732 OFFCURVE",
"695 721 OFFCURVE",
"702 710 CURVE",
"680 710 OFFCURVE",
"654 693 OFFCURVE",
"654 660 CURVE SMOOTH",
"654 629 OFFCURVE",
"673 590 OFFCURVE",
"724 590 CURVE SMOOTH",
"775 590 OFFCURVE",
"794 629 OFFCURVE",
"794 660 CURVE SMOOTH",
"794 715 OFFCURVE",
"739 773 OFFCURVE",
"633 773 CURVE SMOOTH",
"524 773 OFFCURVE",
"443 720 OFFCURVE",
"443 576 CURVE",
"443 524 LINE",
"348 524 LINE",
"348 469 LINE",
"443 469 LINE",
"443 55 LINE",
"358 55 LINE",
"358 0 LINE"
);
},
{
closed = 1;
nodes = (
"300 0 LINE",
"300 55 LINE",
"218 55 LINE",
"218 469 LINE",
"371 469 LINE",
"371 524 LINE",
"215 524 LINE",
"215 576 LINE SMOOTH",
"215 673 OFFCURVE",
"253 732 OFFCURVE",
"329 732 CURVE SMOOTH",
"371 732 OFFCURVE",
"401 716 OFFCURVE",
"412 700 CURVE",
"390 700 OFFCURVE",
"364 683 OFFCURVE",
"364 650 CURVE SMOOTH",
"364 619 OFFCURVE",
"383 580 OFFCURVE",
"434 580 CURVE SMOOTH",
"485 580 OFFCURVE",
"504 619 OFFCURVE",
"504 650 CURVE SMOOTH",
"504 705 OFFCURVE",
"439 773 OFFCURVE",
"323 773 CURVE SMOOTH",
"204 773 OFFCURVE",
"113 720 OFFCURVE",
"113 576 CURVE",
"113 524 LINE",
"18 524 LINE",
"18 469 LINE",
"113 469 LINE",
"113 55 LINE",
"18 55 LINE",
"18 0 LINE"
);
}
);
width = 724;
}
);
leftMetricsKey = f;
note = f_f;
rightMetricsKey = f;
},
{
glyphname = f_f_i;
layers = (
{
layerId = "EE746D13-63D7-48F9-B77E-C723CA6A668B";
paths = (
{
closed = 1;
nodes = (
"877 524 LINE",
"555 524 LINE",
"555 566 LINE SMOOTH",
"555 673 OFFCURVE",
"607 730 OFFCURVE",
"691 730 CURVE SMOOTH",
"736 730 OFFCURVE",
"759 717 OFFCURVE",
"773 705 CURVE",
"759 699 OFFCURVE",
"738 684 OFFCURVE",
"738 651 CURVE SMOOTH",
"738 620 OFFCURVE",
"757 585 OFFCURVE",
"808 585 CURVE SMOOTH",
"859 585 OFFCURVE",
"878 624 OFFCURVE",
"878 655 CURVE SMOOTH",
"878 708 OFFCURVE",
"819 773 OFFCURVE",
"675 773 CURVE SMOOTH",
"604 773 OFFCURVE",
"534 748 OFFCURVE",
"492 693 CURVE",
"468 735 OFFCURVE",
"410 773 OFFCURVE",
"323 773 CURVE SMOOTH",
"204 773 OFFCURVE",
"113 720 OFFCURVE",
"113 576 CURVE SMOOTH",
"113 524 LINE",
"18 524 LINE",
"18 469 LINE",
"113 469 LINE",
"113 55 LINE",
"18 55 LINE",
"18 0 LINE",
"300 0 LINE",
"300 55 LINE",
"218 55 LINE",
"218 469 LINE",
"453 469 LINE",
"453 55 LINE",
"358 55 LINE",
"358 0 LINE",
"636 0 LINE",
"636 55 LINE",
"558 55 LINE",
"558 469 LINE",
"772 469 LINE",
"772 55 LINE",
"694 55 LINE",
"694 0 LINE",
"973 0 LINE",
"973 55 LINE",
"877 55 LINE"
);
},
{
closed = 1;
nodes = (
"215 524 LINE",
"215 576 LINE SMOOTH",
"215 673 OFFCURVE",
"253 732 OFFCURVE",
"329 732 CURVE SMOOTH",
"371 732 OFFCURVE",
"401 716 OFFCURVE",
"412 700 CURVE",
"390 700 OFFCURVE",
"364 683 OFFCURVE",
"364 650 CURVE SMOOTH",
"364 619 OFFCURVE",
"383 580 OFFCURVE",
"434 580 CURVE SMOOTH",
"441 580 OFFCURVE",
"448 581 OFFCURVE",
"453 582 CURVE",
"453 566 LINE",
"453 524 LINE"
);
}
);
width = 980;
}
);
leftMetricsKey = f;
note = f_f_i;
rightMetricsKey = "=i*0.6";
},
{
glyphname = f_f_l;
layers = (
{
guideLines = (
{
angle = 90;
position = "{772, 324}";
}
);
layerId = "EE746D13-63D7-48F9-B77E-C723CA6A668B";
paths = (
{
closed = 1;
nodes = (
"877 768 LINE",
"794 753 LINE",
"764 765 OFFCURVE",
"724 773 OFFCURVE",
"675 773 CURVE SMOOTH",
"604 773 OFFCURVE",
"534 748 OFFCURVE",
"492 693 CURVE",
"468 735 OFFCURVE",
"410 773 OFFCURVE",
"323 773 CURVE SMOOTH",
"204 773 OFFCURVE",
"113 720 OFFCURVE",
"113 576 CURVE SMOOTH",
"113 524 LINE",
"18 524 LINE",
"18 469 LINE",
"113 469 LINE",
"113 55 LINE",
"18 55 LINE",
"18 0 LINE",
"300 0 LINE",
"300 55 LINE",
"218 55 LINE",
"218 469 LINE",
"453 469 LINE",
"453 55 LINE",
"358 55 LINE",
"358 0 LINE",
"636 0 LINE",
"636 55 LINE",
"558 55 LINE",
"558 469 LINE",
"782 469 LINE",
"782 524 LINE",
"555 524 LINE",
"555 566 LINE SMOOTH",
"555 673 OFFCURVE",
"607 730 OFFCURVE",
"691 730 CURVE SMOOTH",
"736 730 OFFCURVE",
"768 718 OFFCURVE",
"782 706 CURVE",
"763 703 OFFCURVE",
"738 683 OFFCURVE",
"738 651 CURVE SMOOTH",
"738 629 OFFCURVE",
"748 605 OFFCURVE",
"772 593 CURVE",
"772 55 LINE",
"694 55 LINE",
"694 0 LINE",
"973 0 LINE",
"973 55 LINE",
"877 55 LINE"
);
},
{
closed = 1;
nodes = (
"215 524 LINE",
"215 576 LINE SMOOTH",
"215 673 OFFCURVE",
"253 732 OFFCURVE",
"329 732 CURVE SMOOTH",
"371 732 OFFCURVE",
"401 716 OFFCURVE",
"412 700 CURVE",
"390 700 OFFCURVE",
"364 683 OFFCURVE",
"364 650 CURVE SMOOTH",
"364 619 OFFCURVE",
"383 580 OFFCURVE",
"434 580 CURVE SMOOTH",
"441 580 OFFCURVE",
"448 581 OFFCURVE",
"453 582 CURVE",
"453 566 LINE",
"453 524 LINE"
);
}
);
width = 989;
}
);
leftMetricsKey = f;
note = f_f_l;
rightMetricsKey = l;
},
{
glyphname = f_j;
layers = (
{
layerId = "EE746D13-63D7-48F9-B77E-C723CA6A668B";
paths = (
{
closed = 1;
nodes = (
"215 524 LINE",
"215 566 LINE SMOOTH",
"215 673 OFFCURVE",
"267 730 OFFCURVE",
"351 730 CURVE SMOOTH",
"396 730 OFFCURVE",
"419 717 OFFCURVE",
"433 705 CURVE",
"419 699 OFFCURVE",
"398 684 OFFCURVE",
"398 651 CURVE SMOOTH",
"398 620 OFFCURVE",
"417 585 OFFCURVE",
"468 585 CURVE SMOOTH",
"519 585 OFFCURVE",
"538 624 OFFCURVE",
"538 655 CURVE SMOOTH",
"538 708 OFFCURVE",
"479 773 OFFCURVE",
"335 773 CURVE SMOOTH",
"223 773 OFFCURVE",
"113 710 OFFCURVE",
"113 566 CURVE SMOOTH",
"113 524 LINE",
"18 524 LINE",
"18 469 LINE",
"113 469 LINE",
"113 55 LINE",
"18 55 LINE",
"18 0 LINE",
"296 0 LINE",
"296 55 LINE",
"218 55 LINE",
"218 469 LINE",
"431 469 LINE",
"431 -59 LINE SMOOTH",
"431 -129 OFFCURVE",
"409 -181 OFFCURVE",
"351 -181 CURVE SMOOTH",
"338 -181 OFFCURVE",
"326 -178 OFFCURVE",
"317 -171 CURVE",
"328 -163 OFFCURVE",
"344 -146 OFFCURVE",
"344 -119 CURVE SMOOTH",
"344 -84 OFFCURVE",
"315 -55 OFFCURVE",
"280 -55 CURVE SMOOTH",
"245 -55 OFFCURVE",
"216 -84 OFFCURVE",
"216 -119 CURVE SMOOTH",
"216 -181 OFFCURVE",
"268 -230 OFFCURVE",
"364 -230 CURVE SMOOTH",
"467 -230 OFFCURVE",
"536 -164 OFFCURVE",
"536 -44 CURVE SMOOTH",
"536 523 LINE",
"537 524 LINE"
);
}
);
width = 610;
}
);
leftMetricsKey = f;
note = f_j;
rightMetricsKey = j;
},
{
glyphname = fi;
layers = (
{
layerId = "EE746D13-63D7-48F9-B77E-C723CA6A668B";
paths = (
{
closed = 1;
nodes = (
"537 524 LINE",
"215 524 LINE",
"215 566 LINE SMOOTH",
"215 673 OFFCURVE",
"267 730 OFFCURVE",
"351 730 CURVE SMOOTH",
"396 730 OFFCURVE",
"419 717 OFFCURVE",
"433 705 CURVE",
"419 699 OFFCURVE",
"398 684 OFFCURVE",
"398 651 CURVE SMOOTH",
"398 620 OFFCURVE",
"417 585 OFFCURVE",
"468 585 CURVE SMOOTH",
"519 585 OFFCURVE",
"538 624 OFFCURVE",
"538 655 CURVE SMOOTH",
"538 708 OFFCURVE",
"479 773 OFFCURVE",
"335 773 CURVE SMOOTH",
"223 773 OFFCURVE",
"113 710 OFFCURVE",
"113 566 CURVE SMOOTH",
"113 524 LINE",
"18 524 LINE",
"18 469 LINE",
"113 469 LINE",
"113 55 LINE",
"18 55 LINE",
"18 0 LINE",
"296 0 LINE",
"296 55 LINE",
"218 55 LINE",
"218 469 LINE",
"432 469 LINE",
"432 55 LINE",
"354 55 LINE",
"354 0 LINE",
"633 0 LINE",
"633 55 LINE",
"537 55 LINE"
);
}
);
width = 645;
}
);
leftMetricsKey = f;
note = fi;
rightMetricsKey = i;
unicode = FB01;
},
{
glyphname = fl;
layers = (
{
guideLines = (
{
angle = 90;
position = "{432, 262}";
},
{
angle = 90;
position = "{354, 28}";
}
);
layerId = "EE746D13-63D7-48F9-B77E-C723CA6A668B";
paths = (
{
closed = 1;
nodes = (
"215 524 LINE",
"215 566 LINE SMOOTH",
"215 673 OFFCURVE",
"267 730 OFFCURVE",
"351 730 CURVE SMOOTH",
"396 730 OFFCURVE",
"428 718 OFFCURVE",
"442 706 CURVE",
"423 703 OFFCURVE",
"398 683 OFFCURVE",
"398 651 CURVE SMOOTH",
"398 629 OFFCURVE",
"408 605 OFFCURVE",
"432 593 CURVE",
"432 55 LINE",
"354 55 LINE",
"354 0 LINE",
"633 0 LINE",
"633 55 LINE",
"537 55 LINE",
"537 768 LINE",
"454 753 LINE",
"424 765 OFFCURVE",
"384 773 OFFCURVE",
"335 773 CURVE SMOOTH",
"223 773 OFFCURVE",
"113 710 OFFCURVE",
"113 566 CURVE SMOOTH",
"113 524 LINE",
"18 524 LINE",
"18 469 LINE",
"113 469 LINE",
"113 55 LINE",
"18 55 LINE",
"18 0 LINE",
"296 0 LINE",
"296 55 LINE",
"218 55 LINE",
"218 469 LINE",
"442 469 LINE",
"442 524 LINE"
);
}
);
width = 649;
}
);
leftMetricsKey = f;
note = fl;
rightMetricsKey = l;
unicode = FB02;
},
{
glyphname = s_h;
layers = (
{
guideLines = (
{
angle = 90;
position = "{548, 138}";
}
);
layerId = "EE746D13-63D7-48F9-B77E-C723CA6A668B";
paths = (
{
closed = 1;
nodes = (
"386 -13 OFFCURVE",
"488 42 OFFCURVE",
"488 146 CURVE SMOOTH",
"488 234 OFFCURVE",
"421 276 OFFCURVE",
"320 307 CURVE SMOOTH",
"234 333 OFFCURVE",
"152 352 OFFCURVE",
"152 402 CURVE SMOOTH",
"152 455 OFFCURVE",
"205 480 OFFCURVE",
"272 480 CURVE SMOOTH",
"312 480 OFFCURVE",
"349 472 OFFCURVE",
"381 456 CURVE",
"362 445 OFFCURVE",
"344 430 OFFCURVE",
"344 402 CURVE SMOOTH",
"344 363 OFFCURVE",
"374 339 OFFCURVE",
"411 339 CURVE SMOOTH",
"445 339 OFFCURVE",
"474 369 OFFCURVE",
"474 412 CURVE SMOOTH",
"474 491 OFFCURVE",
"358 538 OFFCURVE",
"266 538 CURVE SMOOTH",
"161 538 OFFCURVE",
"61 487 OFFCURVE",
"61 392 CURVE SMOOTH",
"61 305 OFFCURVE",
"137 265 OFFCURVE",
"228 240 CURVE SMOOTH",
"317 216 OFFCURVE",
"395 196 OFFCURVE",
"395 134 CURVE SMOOTH",
"395 74 OFFCURVE",
"340 47 OFFCURVE",
"266 47 CURVE SMOOTH",
"208 47 OFFCURVE",
"161 66 OFFCURVE",
"142 84 CURVE",
"166 84 OFFCURVE",
"189 108 OFFCURVE",
"189 141 CURVE SMOOTH",
"189 180 OFFCURVE",
"160 200 OFFCURVE",
"123 200 CURVE SMOOTH",
"88 200 OFFCURVE",
"57 170 OFFCURVE",
"57 128 CURVE SMOOTH",
"57 40 OFFCURVE",
"165 -13 OFFCURVE",
"269 -13 CURVE SMOOTH"
);
},
{
closed = 1;
nodes = (
"638 57 LINE",
"548 57 LINE",
"548 0 LINE",
"838 0 LINE",
"838 57 LINE",
"743 57 LINE",
"743 292 LINE SMOOTH",
"743 387 OFFCURVE",
"823 469 OFFCURVE",
"893 469 CURVE SMOOTH",
"940 469 OFFCURVE",
"971 433 OFFCURVE",
"971 357 CURVE SMOOTH",
"971 57 LINE",
"876 57 LINE",
"876 0 LINE",
"1181 0 LINE",
"1181 57 LINE",
"1076 57 LINE",
"1076 353 LINE SMOOTH",
"1076 385 OFFCURVE",
"1072 413 OFFCURVE",
"1064 437 CURVE SMOOTH",
"1048 484 OFFCURVE",
"1026 506 OFFCURVE",
"995 521 CURVE SMOOTH",
"963 536 OFFCURVE",
"942 538 OFFCURVE",
"914 538 CURVE SMOOTH",
"893 538 OFFCURVE",
"873 535 OFFCURVE",
"853 529 CURVE SMOOTH",
"812 517 OFFCURVE",
"768 482 OFFCURVE",
"743 431 CURVE",
"743 735 LINE",
"555 735 LINE SMOOTH",
"456 735 OFFCURVE",
"366 668 OFFCURVE",
"366 567 CURVE SMOOTH",
"366 500 OFFCURVE",
"391 474 OFFCURVE",
"421 430 CURVE",
"462 454 LINE",
"438 493 OFFCURVE",
"425 507 OFFCURVE",
"425 557 CURVE SMOOTH",
"425 635 OFFCURVE",
"488 676 OFFCURVE",
"555 676 CURVE SMOOTH",
"638 676 LINE"
);
}
);
width = 1194;
}
);
leftKerningGroup = s;
leftMetricsKey = s;
note = s_h;
rightKerningGroup = h;
rightMetricsKey = h;
},
{
glyphname = s_k;
layers = (
{
guideLines = (
{
angle = 90;
position = "{488, 28}";
}
);
layerId = "EE746D13-63D7-48F9-B77E-C723CA6A668B";
paths = (
{
closed = 1;
nodes = (
"386 -13 OFFCURVE",
"488 42 OFFCURVE",
"488 146 CURVE SMOOTH",
"488 234 OFFCURVE",
"421 276 OFFCURVE",
"320 307 CURVE SMOOTH",
"234 333 OFFCURVE",
"152 352 OFFCURVE",
"152 402 CURVE SMOOTH",
"152 455 OFFCURVE",
"205 480 OFFCURVE",
"272 480 CURVE SMOOTH",
"312 480 OFFCURVE",
"349 472 OFFCURVE",
"381 456 CURVE",
"362 445 OFFCURVE",
"344 430 OFFCURVE",
"344 402 CURVE SMOOTH",
"344 363 OFFCURVE",
"374 339 OFFCURVE",
"411 339 CURVE SMOOTH",
"445 339 OFFCURVE",
"474 369 OFFCURVE",
"474 412 CURVE SMOOTH",
"474 491 OFFCURVE",
"358 538 OFFCURVE",
"266 538 CURVE SMOOTH",
"161 538 OFFCURVE",
"61 487 OFFCURVE",
"61 392 CURVE SMOOTH",
"61 305 OFFCURVE",
"137 265 OFFCURVE",
"228 240 CURVE SMOOTH",
"317 216 OFFCURVE",
"395 196 OFFCURVE",
"395 134 CURVE SMOOTH",
"395 74 OFFCURVE",
"340 47 OFFCURVE",
"266 47 CURVE SMOOTH",
"208 47 OFFCURVE",
"161 66 OFFCURVE",
"142 84 CURVE",
"166 84 OFFCURVE",
"189 108 OFFCURVE",
"189 141 CURVE SMOOTH",
"189 180 OFFCURVE",
"160 200 OFFCURVE",
"123 200 CURVE SMOOTH",
"88 200 OFFCURVE",
"57 170 OFFCURVE",
"57 128 CURVE SMOOTH",
"57 40 OFFCURVE",
"165 -13 OFFCURVE",
"269 -13 CURVE SMOOTH"
);
},
{
closed = 1;
nodes = (
"646 55 LINE",
"547 55 LINE",
"547 0 LINE",
"824 0 LINE",
"824 55 LINE",
"751 55 LINE",
"751 184 LINE",
"846 269 LINE",
"966 55 LINE",
"893 55 LINE",
"893 0 LINE",
"1180 0 LINE",
"1180 55 LINE",
"1086 55 LINE",
"909 332 LINE",
"1046 469 LINE",
"1156 469 LINE",
"1156 524 LINE",
"863 524 LINE",
"863 469 LINE",
"960 469 LINE",
"751 268 LINE",
"751 735 LINE",
"555 735 LINE SMOOTH",
"456 735 OFFCURVE",
"366 668 OFFCURVE",
"366 567 CURVE SMOOTH",
"366 500 OFFCURVE",
"391 474 OFFCURVE",
"421 430 CURVE",
"462 454 LINE",
"438 493 OFFCURVE",
"425 507 OFFCURVE",
"425 557 CURVE SMOOTH",
"425 635 OFFCURVE",
"488 676 OFFCURVE",
"555 676 CURVE SMOOTH",
"646 676 LINE"
);
}
);
width = 1186;
}
);
leftKerningGroup = s;
leftMetricsKey = s;
note = _398;
rightMetricsKey = k;
},
{
glyphname = s_t;
layers = (
{
guideLines = (
{
angle = 90;
position = "{488, 493}";
}
);
layerId = "EE746D13-63D7-48F9-B77E-C723CA6A668B";
paths = (
{
closed = 1;
nodes = (
"911 -13 OFFCURVE",
"951 52 OFFCURVE",
"951 181 CURVE SMOOTH",
"951 241 LINE",
"892 241 LINE",
"892 171 LINE SMOOTH",
"892 85 OFFCURVE",
"865 55 OFFCURVE",
"813 55 CURVE SMOOTH",
"770 55 OFFCURVE",
"742 84 OFFCURVE",
"742 141 CURVE SMOOTH",
"742 468 LINE",
"934 468 LINE",
"934 524 LINE",
"742 524 LINE",
"742 665 LINE",
"686 665 LINE",
"686 554 OFFCURVE",
"604 529 OFFCURVE",
"521 518 CURVE",
"521 468 LINE",
"637 468 LINE",
"637 144 LINE SMOOTH",
"637 91 OFFCURVE",
"657 49 OFFCURVE",
"687 24 CURVE SMOOTH",
"717 -1 OFFCURVE",
"755 -13 OFFCURVE",
"795 -13 CURVE SMOOTH"
);
},
{
closed = 1;
nodes = (
"742 665 LINE",
"742 758 OFFCURVE",
"670 860 OFFCURVE",
"501 860 CURVE SMOOTH",
"333 860 OFFCURVE",
"261 740 OFFCURVE",
"261 646 CURVE SMOOTH",
"261 558 OFFCURVE",
"306 502 OFFCURVE",
"381 456 CURVE",
"400 507 LINE",
"347 535 OFFCURVE",
"317 575 OFFCURVE",
"317 646 CURVE SMOOTH",
"317 707 OFFCURVE",
"366 801 OFFCURVE",
"501 801 CURVE SMOOTH",
"637 801 OFFCURVE",
"686 727 OFFCURVE",
"686 665 CURVE"
);
},
{
closed = 1;
nodes = (
"386 -13 OFFCURVE",
"488 42 OFFCURVE",
"488 146 CURVE SMOOTH",
"488 234 OFFCURVE",
"421 276 OFFCURVE",
"320 307 CURVE SMOOTH",
"234 333 OFFCURVE",
"152 352 OFFCURVE",
"152 402 CURVE SMOOTH",
"152 455 OFFCURVE",
"205 480 OFFCURVE",
"272 480 CURVE SMOOTH",
"312 480 OFFCURVE",
"349 472 OFFCURVE",
"381 456 CURVE",
"362 445 OFFCURVE",
"344 430 OFFCURVE",
"344 402 CURVE SMOOTH",
"344 363 OFFCURVE",
"374 339 OFFCURVE",
"411 339 CURVE SMOOTH",
"445 339 OFFCURVE",
"474 369 OFFCURVE",
"474 412 CURVE SMOOTH",
"474 491 OFFCURVE",
"358 538 OFFCURVE",
"266 538 CURVE SMOOTH",
"161 538 OFFCURVE",
"61 487 OFFCURVE",
"61 392 CURVE SMOOTH",
"61 305 OFFCURVE",
"137 265 OFFCURVE",
"228 240 CURVE SMOOTH",
"317 216 OFFCURVE",
"395 196 OFFCURVE",
"395 134 CURVE SMOOTH",
"395 74 OFFCURVE",
"340 47 OFFCURVE",
"266 47 CURVE SMOOTH",
"208 47 OFFCURVE",
"161 66 OFFCURVE",
"142 84 CURVE",
"166 84 OFFCURVE",
"189 108 OFFCURVE",
"189 141 CURVE SMOOTH",
"189 180 OFFCURVE",
"160 200 OFFCURVE",
"123 200 CURVE SMOOTH",
"88 200 OFFCURVE",
"57 170 OFFCURVE",
"57 128 CURVE SMOOTH",
"57 40 OFFCURVE",
"165 -13 OFFCURVE",
"269 -13 CURVE SMOOTH"
);
}
);
width = 965;
}
);
leftMetricsKey = s;
rightMetricsKey = t;
},
{
glyphname = t_t;
layers = (
{
layerId = "EE746D13-63D7-48F9-B77E-C723CA6A668B";
paths = (
{
closed = 1;
nodes = (
"383 -13 OFFCURVE",
"423 52 OFFCURVE",
"423 181 CURVE SMOOTH",
"423 241 LINE",
"364 241 LINE",
"364 171 LINE SMOOTH",
"364 85 OFFCURVE",
"337 55 OFFCURVE",
"285 55 CURVE SMOOTH",
"242 55 OFFCURVE",
"214 84 OFFCURVE",
"214 141 CURVE SMOOTH",
"214 468 LINE",
"406 468 LINE",
"406 524 LINE",
"214 524 LINE",
"214 735 LINE",
"158 735 LINE",
"158 634 OFFCURVE",
"126 539 OFFCURVE",
"-7 518 CURVE",
"-7 468 LINE",
"109 468 LINE",
"109 144 LINE SMOOTH",
"109 91 OFFCURVE",
"129 49 OFFCURVE",
"159 24 CURVE SMOOTH",
"189 -1 OFFCURVE",
"227 -13 OFFCURVE",
"267 -13 CURVE SMOOTH"
);
},
{
closed = 1;
nodes = (
"754 -12 OFFCURVE",
"794 53 OFFCURVE",
"794 182 CURVE SMOOTH",
"794 242 LINE",
"735 242 LINE",
"735 172 LINE SMOOTH",
"735 86 OFFCURVE",
"708 56 OFFCURVE",
"656 56 CURVE SMOOTH",
"613 56 OFFCURVE",
"585 85 OFFCURVE",
"585 142 CURVE SMOOTH",
"585 469 LINE",
"777 469 LINE",
"777 525 LINE",
"585 525 LINE",
"585 736 LINE",
"529 736 LINE",
"529 635 OFFCURVE",
"497 524 OFFCURVE",
"364 524 CURVE",
"364 468 LINE",
"480 468 LINE",
"480 145 LINE SMOOTH",
"480 92 OFFCURVE",
"500 50 OFFCURVE",
"530 25 CURVE SMOOTH",
"560 0 OFFCURVE",
"598 -12 OFFCURVE",
"638 -12 CURVE SMOOTH"
);
}
);
width = 808;
}
);
leftKerningGroup = t;
leftMetricsKey = t;
note = t_t;
rightMetricsKey = t;
},
{
glyphname = a.sc;
layers = (
{
anchors = (
{
name = bottom;
position = "{336, 0}";
},
{
name = ogonek;
position = "{640, 0}";
},
{
name = top;
position = "{336, 576}";
}
);
guideLines = (
{
angle = 90;
position = "{324, 64}";
},
{
angle = -66.2768;
position = "{502, 320}";
},
{
angle = -66.2768;
position = "{386, 320}";
},
{
angle = 246.653;
position = "{183, 320}";
},
{
angle = 246.653;
position = "{261, 320}";
},
{
angle = 180;
position = "{324, 242}";
}
);
layerId = "EE746D13-63D7-48F9-B77E-C723CA6A668B";
paths = (
{
closed = 1;
nodes = (
"265 0 LINE",
"265 64 LINE",
"150 64 LINE",
"202 186 LINE",
"445 186 LINE",
"498 64 LINE",
"393 64 LINE",
"393 0 LINE",
"694 0 LINE",
"694 64 LINE",
"614 64 LINE",
"389 576 LINE",
"293 576 LINE",
"72 64 LINE",
"-13 64 LINE",
"-13 0 LINE"
);
},
{
closed = 1;
nodes = (
"323 463 LINE",
"420 242 LINE",
"227 242 LINE"
);
}
);
width = 671;
}
);
leftKerningGroup = A;
note = A;
rightKerningGroup = A;
},
{
glyphname = b.sc;
layers = (
{
anchors = (
{
name = top;
position = "{308, 576}";
}
);
layerId = "EE746D13-63D7-48F9-B77E-C723CA6A668B";
paths = (
{
closed = 1;
nodes = (
"287 0 LINE SMOOTH",
"466 0 OFFCURVE",
"585 44 OFFCURVE",
"585 164 CURVE SMOOTH",
"585 256 OFFCURVE",
"503 303 OFFCURVE",
"431 309 CURVE",
"504 326 OFFCURVE",
"546 368 OFFCURVE",
"546 427 CURVE SMOOTH",
"546 536 OFFCURVE",
"465 576 OFFCURVE",
"278 576 CURVE SMOOTH",
"30 576 LINE",
"30 515 LINE",
"152 515 LINE",
"152 64 LINE",
"30 64 LINE",
"30 0 LINE"
);
},
{
closed = 1;
nodes = (
"259 279 LINE",
"307 279 LINE SMOOTH",
"401 279 OFFCURVE",
"478 247 OFFCURVE",
"478 166 CURVE SMOOTH",
"478 85 OFFCURVE",
"401 64 OFFCURVE",
"307 64 CURVE SMOOTH",
"259 64 LINE"
);
},
{
closed = 1;
nodes = (
"259 515 LINE",
"307 515 LINE SMOOTH",
"378 515 OFFCURVE",
"444 501 OFFCURVE",
"444 422 CURVE SMOOTH",
"444 355 OFFCURVE",
"375 329 OFFCURVE",
"307 329 CURVE SMOOTH",
"259 329 LINE"
);
}
);
width = 619;
}
);
leftMetricsKey = h.sc;
note = B;
rightKerningGroup = B;
},
{
glyphname = c.sc;
layers = (
{
anchors = (
{
name = bottom;
position = "{335, 0}";
},
{
name = top;
position = "{335, 576}";
}
);
guideLines = (
{
angle = 90;
position = "{255, 685}";
},
{
angle = 90;
position = "{372, 642}";
},
{
position = "{601, 239}";
}
);
layerId = "EE746D13-63D7-48F9-B77E-C723CA6A668B";
paths = (
{
closed = 1;
nodes = (
"501 -13 OFFCURVE",
"594 69 OFFCURVE",
"631 196 CURVE",
"561 212 LINE",
"534 124 OFFCURVE",
"468 63 OFFCURVE",
"358 63 CURVE SMOOTH",
"232 63 OFFCURVE",
"157 155 OFFCURVE",
"157 292 CURVE SMOOTH",
"157 432 OFFCURVE",
"242 527 OFFCURVE",
"367 527 CURVE SMOOTH",
"460 527 OFFCURVE",
"516 490 OFFCURVE",
"530 459 CURVE",
"503 459 OFFCURVE",
"478 437 OFFCURVE",
"478 397 CURVE SMOOTH",
"478 357 OFFCURVE",
"512 333 OFFCURVE",
"553 333 CURVE SMOOTH",
"600 333 OFFCURVE",
"628 371 OFFCURVE",
"628 411 CURVE SMOOTH",
"628 515 OFFCURVE",
"500 591 OFFCURVE",
"369 591 CURVE SMOOTH",
"161 591 OFFCURVE",
"39 463 OFFCURVE",
"39 288 CURVE SMOOTH",
"39 114 OFFCURVE",
"163 -13 OFFCURVE",
"355 -13 CURVE SMOOTH"
);
}
);
width = 672;
}
);
leftMetricsKey = o.sc;
},
{
glyphname = d.sc;
layers = (
{
anchors = (
{
name = bottom;
position = "{334, 0}";
},
{
name = strokeshort;
position = "{372, 264}";
},
{
name = top;
position = "{334, 576}";
}
);
background = {
paths = (
{
closed = 1;
nodes = (
"152 0 LINE SMOOTH",
"208 0 OFFCURVE",
"260 4 OFFCURVE",
"307 13 CURVE SMOOTH",
"401 31 OFFCURVE",
"482 69 OFFCURVE",
"537 126 CURVE SMOOTH",
"591 184 OFFCURVE",
"622 268 OFFCURVE",
"622 372 CURVE SMOOTH",
"622 427 OFFCURVE",
"613 477 OFFCURVE",
"595 520 CURVE SMOOTH",
"558 605 OFFCURVE",
"499 655 OFFCURVE",
"413 689 CURVE SMOOTH",
"327 724 OFFCURVE",
"239 735 OFFCURVE",
"134 735 CURVE SMOOTH",
"-87 735 LINE",
"-87 665 LINE",
"32 665 LINE",
"32 70 LINE",
"-87 70 LINE",
"-87 0 LINE"
);
},
{
closed = 1;
nodes = (
"147 664 LINE",
"175 664 OFFCURVE",
"200 663 OFFCURVE",
"224 661 CURVE SMOOTH",
"271 657 OFFCURVE",
"322 646 OFFCURVE",
"361 627 CURVE SMOOTH",
"400 609 OFFCURVE",
"437 579 OFFCURVE",
"460 539 CURVE SMOOTH",
"483 499 OFFCURVE",
"497 441 OFFCURVE",
"497 372 CURVE SMOOTH",
"497 326 OFFCURVE",
"491 285 OFFCURVE",
"479 250 CURVE SMOOTH",
"455 180 OFFCURVE",
"415 137 OFFCURVE",
"354 108 CURVE SMOOTH",
"293 80 OFFCURVE",
"229 70 OFFCURVE",
"147 70 CURVE"
);
}
);
};
guideLines = (
{
angle = 90;
position = "{334, 288}";
},
{
angle = 180;
position = "{609, 288}";
}
);
layerId = "EE746D13-63D7-48F9-B77E-C723CA6A668B";
paths = (
{
closed = 1;
nodes = (
"258 0 LINE",
"304 0 LINE SMOOTH",
"497 0 OFFCURVE",
"668 85 OFFCURVE",
"668 288 CURVE SMOOTH",
"668 491 OFFCURVE",
"497 576 OFFCURVE",
"304 576 CURVE SMOOTH",
"258 576 LINE",
"30 576 LINE",
"30 512 LINE",
"151 512 LINE",
"151 64 LINE",
"30 64 LINE",
"30 0 LINE"
);
},
{
closed = 1;
nodes = (
"258 64 LINE",
"258 511 LINE",
"304 511 LINE",
"451 511 OFFCURVE",
"550 441 OFFCURVE",
"550 288 CURVE SMOOTH",
"550 135 OFFCURVE",
"451 64 OFFCURVE",
"304 64 CURVE"
);
}
);
width = 707;
}
);
leftMetricsKey = h.sc;
note = D;
rightKerningGroup = D;
rightMetricsKey = o.sc;
},
{
glyphname = e.sc;
layers = (
{
anchors = (
{
name = bottom;
position = "{327, 0}";
},
{
name = ogonek;
position = "{569, 0}";
},
{
name = top;
position = "{327, 576}";
}
);
layerId = "EE746D13-63D7-48F9-B77E-C723CA6A668B";
paths = (
{
closed = 1;
nodes = (
"624 0 LINE",
"624 208 LINE",
"548 208 LINE",
"548 64 LINE",
"258 64 LINE",
"258 265 LINE",
"389 265 LINE",
"389 158 LINE",
"448 158 LINE",
"448 421 LINE",
"389 421 LINE",
"389 321 LINE",
"258 321 LINE",
"258 512 LINE",
"548 512 LINE",
"548 364 LINE",
"624 364 LINE",
"624 576 LINE",
"30 576 LINE",
"30 512 LINE",
"151 512 LINE",
"151 64 LINE",
"30 64 LINE",
"30 0 LINE"
);
}
);
width = 700;
}
);
leftMetricsKey = h.sc;
note = E;
},
{
glyphname = schwa.sc;
layers = (
{
layerId = "EE746D13-63D7-48F9-B77E-C723CA6A668B";
paths = (
{
closed = 1;
nodes = (
"203 591 OFFCURVE",
"110 509 OFFCURVE",
"63 382 CURVE",
"133 366 LINE",
"170 454 OFFCURVE",
"236 515 OFFCURVE",
"346 515 CURVE SMOOTH",
"474 515 OFFCURVE",
"548 405 OFFCURVE",
"549 289 CURVE",
"41 289 LINE",
"41 121 OFFCURVE",
"159 -13 OFFCURVE",
"349 -13 CURVE SMOOTH",
"538 -13 OFFCURVE",
"667 119 OFFCURVE",
"667 288 CURVE SMOOTH",
"667 459 OFFCURVE",
"536 591 OFFCURVE",
"349 591 CURVE SMOOTH"
);
},
{
closed = 1;
nodes = (
"242 51 OFFCURVE",
"181 136 OFFCURVE",
"164 233 CURVE",
"544 233 LINE",
"525 137 OFFCURVE",
"458 51 OFFCURVE",
"349 51 CURVE SMOOTH"
);
}
);
width = 706;
}
);
leftMetricsKey = "=|c.sc";
rightMetricsKey = o.sc;
},
{
glyphname = f.sc;
layers = (
{
anchors = (
{
name = top;
position = "{311, 576}";
}
);
layerId = "EE746D13-63D7-48F9-B77E-C723CA6A668B";
paths = (
{
closed = 1;
nodes = (
"387 0 LINE",
"387 64 LINE",
"258 64 LINE",
"258 270 LINE",
"377 270 LINE",
"377 163 LINE",
"436 163 LINE",
"436 421 LINE",
"377 421 LINE",
"377 326 LINE",
"258 326 LINE",
"258 512 LINE",
"516 512 LINE",
"516 364 LINE",
"592 364 LINE",
"592 576 LINE",
"30 576 LINE",
"30 512 LINE",
"151 512 LINE",
"151 64 LINE",
"30 64 LINE",
"30 0 LINE"
);
}
);
width = 640;
}
);
leftMetricsKey = h.sc;
note = F;
rightKerningGroup = F;
},
{
glyphname = g.sc;
layers = (
{
anchors = (
{
name = bottom;
position = "{374, 0}";
},
{
name = top;
position = "{374, 576}";
}
);
layerId = "EE746D13-63D7-48F9-B77E-C723CA6A668B";
paths = (
{
closed = 1;
nodes = (
"419 200 LINE",
"542 200 LINE",
"542 163 LINE SMOOTH",
"542 119 OFFCURVE",
"480 63 OFFCURVE",
"368 63 CURVE SMOOTH",
"237 63 OFFCURVE",
"157 154 OFFCURVE",
"157 295 CURVE SMOOTH",
"157 439 OFFCURVE",
"257 530 OFFCURVE",
"383 530 CURVE SMOOTH",
"470 530 OFFCURVE",
"523 496 OFFCURVE",
"537 470 CURVE",
"512 470 OFFCURVE",
"483 448 OFFCURVE",
"483 408 CURVE SMOOTH",
"483 369 OFFCURVE",
"517 343 OFFCURVE",
"563 343 CURVE SMOOTH",
"613 343 OFFCURVE",
"643 379 OFFCURVE",
"643 423 CURVE SMOOTH",
"643 510 OFFCURVE",
"523 594 OFFCURVE",
"374 594 CURVE SMOOTH",
"177 594 OFFCURVE",
"39 464 OFFCURVE",
"39 291 CURVE SMOOTH",
"39 119 OFFCURVE",
"161 -13 OFFCURVE",
"350 -13 CURVE SMOOTH",
"480 -13 OFFCURVE",
"532 46 OFFCURVE",
"552 63 CURVE",
"569 0 LINE",
"632 0 LINE",
"632 200 LINE",
"704 200 LINE",
"704 264 LINE",
"419 264 LINE"
);
}
);
width = 750;
}
);
leftMetricsKey = o.sc;
},
{
glyphname = h.sc;
layers = (
{
anchors = (
{
name = bottom;
position = "{395, 0}";
},
{
name = strokelong;
position = "{395, 436}";
},
{
name = top;
position = "{395, 575}";
}
);
layerId = "EE746D13-63D7-48F9-B77E-C723CA6A668B";
paths = (
{
closed = 1;
nodes = (
"362 0 LINE",
"362 64 LINE",
"258 64 LINE",
"258 268 LINE",
"532 268 LINE",
"532 64 LINE",
"427 64 LINE",
"427 0 LINE",
"760 0 LINE",
"760 64 LINE",
"639 64 LINE",
"639 512 LINE",
"760 512 LINE",
"760 576 LINE",
"427 576 LINE",
"427 512 LINE",
"532 512 LINE",
"532 324 LINE",
"258 324 LINE",
"258 512 LINE",
"363 512 LINE",
"363 576 LINE",
"30 576 LINE",
"30 512 LINE",
"151 512 LINE",
"151 64 LINE",
"30 64 LINE",
"30 0 LINE"
);
}
);
width = 790;
}
);
note = H;
rightKerningGroup = H;
},
{
glyphname = i.sc;
layers = (
{
anchors = (
{
name = bottom;
position = "{205, 0}";
},
{
name = ogonek;
position = "{323, 0}";
},
{
name = top;
position = "{205, 576}";
}
);
layerId = "EE746D13-63D7-48F9-B77E-C723CA6A668B";
paths = (
{
closed = 1;
nodes = (
"379 512 LINE",
"379 576 LINE",
"30 576 LINE",
"30 512 LINE",
"151 512 LINE",
"151 64 LINE",
"30 64 LINE",
"30 0 LINE",
"378 0 LINE",
"378 64 LINE",
"258 64 LINE",
"258 512 LINE"
);
}
);
width = 409;
}
);
note = I;
},
{
glyphname = j.sc;
layers = (
{
anchors = (
{
name = top;
position = "{282, 576}";
}
);
layerId = "EE746D13-63D7-48F9-B77E-C723CA6A668B";
paths = (
{
closed = 1;
nodes = (
"277 -196 OFFCURVE",
"333 -132 OFFCURVE",
"333 7 CURVE SMOOTH",
"333 506 LINE",
"455 506 LINE",
"455 576 LINE",
"92 576 LINE",
"92 506 LINE",
"231 506 LINE",
"231 -6 LINE SMOOTH",
"231 -90 OFFCURVE",
"205 -141 OFFCURVE",
"140 -141 CURVE SMOOTH",
"109 -141 OFFCURVE",
"82 -133 OFFCURVE",
"70 -118 CURVE",
"102 -107 OFFCURVE",
"124 -76 OFFCURVE",
"124 -41 CURVE SMOOTH",
"124 -2 OFFCURVE",
"90 29 OFFCURVE",
"51 29 CURVE SMOOTH",
"10 29 OFFCURVE",
"-24 -3 OFFCURVE",
"-24 -50 CURVE SMOOTH",
"-24 -137 OFFCURVE",
"52 -196 OFFCURVE",
"143 -196 CURVE SMOOTH"
);
}
);
width = 455;
}
);
note = J;
rightKerningGroup = J;
},
{
glyphname = k.sc;
layers = (
{
anchors = (
{
name = bottom;
position = "{372, 0}";
},
{
name = top;
position = "{372, 576}";
}
);
guideLines = (
{
angle = 128.6851;
position = "{393, 202}";
},
{
angle = 128.6851;
position = "{519, 202}";
},
{
angle = 40.2841;
position = "{394, 398}";
},
{
angle = 40.2841;
position = "{492, 398}";
},
{
angle = 90;
position = "{336, 32}";
},
{
angle = 90;
position = "{409, 544}";
}
);
layerId = "EE746D13-63D7-48F9-B77E-C723CA6A668B";
paths = (
{
closed = 1;
nodes = (
"336 0 LINE",
"336 64 LINE",
"259 64 LINE",
"259 203 LINE",
"340 269 LINE",
"503 64 LINE",
"409 64 LINE",
"409 0 LINE",
"728 0 LINE",
"728 64 LINE",
"629 64 LINE",
"415 332 LINE",
"626 512 LINE",
"722 512 LINE",
"722 576 LINE",
"409 576 LINE",
"409 512 LINE",
"528 512 LINE",
"259 284 LINE",
"259 512 LINE",
"336 512 LINE",
"336 576 LINE",
"30 576 LINE",
"30 512 LINE",
"152 512 LINE",
"152 64 LINE",
"30 64 LINE",
"30 0 LINE"
);
}
);
width = 736;
}
);
leftMetricsKey = h.sc;
note = K;
rightKerningGroup = K;
},
{
glyphname = kgreenlandic.sc;
layers = (
{
layerId = "EE746D13-63D7-48F9-B77E-C723CA6A668B";
paths = (
{
closed = 1;
nodes = (
"336 0 LINE",
"336 64 LINE",
"259 64 LINE",
"259 203 LINE",
"340 269 LINE",
"503 64 LINE",
"409 64 LINE",
"409 0 LINE",
"728 0 LINE",
"728 64 LINE",
"629 64 LINE",
"415 332 LINE",
"626 512 LINE",
"722 512 LINE",
"722 576 LINE",
"409 576 LINE",
"409 512 LINE",
"528 512 LINE",
"259 284 LINE",
"259 576 LINE",
"30 576 LINE",
"30 512 LINE",
"152 512 LINE",
"152 64 LINE",
"30 64 LINE",
"30 0 LINE"
);
}
);
width = 600;
}
);
},
{
glyphname = l.sc;
layers = (
{
anchors = (
{
name = bottom;
position = "{308, 0}";
},
{
name = caron;
position = "{518, 314}";
},
{
name = slashshort;
position = "{204, 263}";
},
{
name = top;
position = "{204, 576}";
}
);
layerId = "EE746D13-63D7-48F9-B77E-C723CA6A668B";
paths = (
{
closed = 1;
nodes = (
"30 0 LINE",
"585 0 LINE",
"585 230 LINE",
"509 230 LINE",
"509 64 LINE",
"258 64 LINE",
"258 512 LINE",
"372 512 LINE",
"372 576 LINE",
"30 576 LINE",
"30 512 LINE",
"151 512 LINE",
"151 64 LINE",
"30 64 LINE"
);
}
);
width = 619;
}
);
},
{
glyphname = lj.sc;
layers = (
{
anchors = (
{
name = bottom;
position = "{308, 0}";
},
{
name = caron;
position = "{517, 271}";
},
{
name = top;
position = "{204, 576}";
}
);
layerId = "EE746D13-63D7-48F9-B77E-C723CA6A668B";
paths = (
{
closed = 1;
nodes = (
"585 0 LINE",
"585 230 LINE",
"509 230 LINE",
"509 64 LINE",
"258 64 LINE",
"258 512 LINE",
"372 512 LINE",
"372 576 LINE",
"30 576 LINE",
"30 512 LINE",
"151 512 LINE",
"151 64 LINE",
"30 64 LINE",
"30 0 LINE"
);
},
{
closed = 1;
nodes = (
"806 -281 OFFCURVE",
"862 -217 OFFCURVE",
"862 -78 CURVE SMOOTH",
"862 506 LINE",
"984 506 LINE",
"984 576 LINE",
"621 576 LINE",
"621 506 LINE",
"760 506 LINE",
"760 -91 LINE SMOOTH",
"760 -175 OFFCURVE",
"734 -226 OFFCURVE",
"669 -226 CURVE SMOOTH",
"638 -226 OFFCURVE",
"611 -218 OFFCURVE",
"599 -203 CURVE",
"631 -192 OFFCURVE",
"653 -161 OFFCURVE",
"653 -126 CURVE SMOOTH",
"653 -87 OFFCURVE",
"619 -56 OFFCURVE",
"580 -56 CURVE SMOOTH",
"539 -56 OFFCURVE",
"505 -88 OFFCURVE",
"505 -135 CURVE SMOOTH",
"505 -222 OFFCURVE",
"581 -281 OFFCURVE",
"672 -281 CURVE SMOOTH"
);
}
);
width = 984;
}
);
leftMetricsKey = l.sc;
rightMetricsKey = j.sc;
},
{
glyphname = m.sc;
layers = (
{
anchors = (
{
name = bottom;
position = "{490, 0}";
},
{
name = top;
position = "{490, 576}";
}
);
guideLines = (
{
position = "{405, 106}";
},
{
angle = 115.3102;
position = "{326, 336}";
},
{
angle = 115.3102;
position = "{438, 336}";
},
{
angle = 63.0543;
position = "{611, 336}";
},
{
angle = 63.0542;
position = "{533, 336}";
}
);
layerId = "EE746D13-63D7-48F9-B77E-C723CA6A668B";
paths = (
{
closed = 1;
nodes = (
"356 0 LINE",
"356 64 LINE",
"233 64 LINE",
"233 512 LINE",
"243 512 LINE",
"439 96 LINE",
"489 96 LINE",
"695 502 LINE",
"701 502 LINE",
"701 64 LINE",
"594 64 LINE",
"594 0 LINE",
"934 0 LINE",
"934 64 LINE",
"808 64 LINE",
"808 512 LINE",
"927 512 LINE",
"927 576 LINE",
"733 576 LINE",
"655 576 LINE",
"484 239 LINE",
"324 576 LINE",
"212 576 LINE",
"37 576 LINE",
"37 512 LINE",
"158 512 LINE",
"158 64 LINE",
"46 64 LINE",
"46 0 LINE"
);
}
);
width = 969;
}
);
note = M;
rightKerningGroup = H;
},
{
glyphname = n.sc;
layers = (
{
anchors = (
{
name = bottom;
position = "{394, 0}";
},
{
name = top;
position = "{395, 576}";
}
);
layerId = "EE746D13-63D7-48F9-B77E-C723CA6A668B";
paths = (
{
closed = 1;
nodes = (
"353 0 LINE",
"353 64 LINE",
"228 64 LINE",
"228 494 LINE",
"518 0 LINE",
"644 0 LINE",
"644 512 LINE",
"759 512 LINE",
"759 576 LINE",
"436 576 LINE",
"436 512 LINE",
"567 512 LINE",
"567 103 LINE",
"290 576 LINE",
"30 576 LINE",
"30 512 LINE",
"151 512 LINE",
"151 64 LINE",
"30 64 LINE",
"30 0 LINE"
);
}
);
width = 784;
}
);
leftMetricsKey = h.sc;
note = N;
rightKerningGroup = H;
},
{
glyphname = eng.sc;
layers = (
{
anchors = (
{
name = bottom;
position = "{394, 0}";
},
{
name = top;
position = "{395, 576}";
}
);
layerId = "EE746D13-63D7-48F9-B77E-C723CA6A668B";
paths = (
{
closed = 1;
nodes = (
"436 512 LINE",
"567 512 LINE",
"567 103 LINE",
"290 576 LINE",
"30 576 LINE",
"30 512 LINE",
"151 512 LINE",
"151 64 LINE",
"30 64 LINE",
"30 0 LINE",
"353 0 LINE",
"353 64 LINE",
"228 64 LINE",
"228 494 LINE",
"518 0 LINE",
"542 0 LINE",
"542 -91 LINE SMOOTH",
"542 -175 OFFCURVE",
"516 -226 OFFCURVE",
"451 -226 CURVE SMOOTH",
"420 -226 OFFCURVE",
"393 -218 OFFCURVE",
"381 -203 CURVE",
"413 -192 OFFCURVE",
"435 -161 OFFCURVE",
"435 -126 CURVE SMOOTH",
"435 -87 OFFCURVE",
"401 -56 OFFCURVE",
"362 -56 CURVE SMOOTH",
"321 -56 OFFCURVE",
"287 -88 OFFCURVE",
"287 -135 CURVE SMOOTH",
"287 -222 OFFCURVE",
"363 -281 OFFCURVE",
"454 -281 CURVE SMOOTH",
"588 -281 OFFCURVE",
"644 -217 OFFCURVE",
"644 -78 CURVE SMOOTH",
"644 512 LINE",
"759 512 LINE",
"759 576 LINE",
"436 576 LINE"
);
}
);
width = 784;
}
);
leftMetricsKey = n.sc;
rightMetricsKey = n.sc;
},
{
glyphname = o.sc;
layers = (
{
anchors = (
{
name = bottom;
position = "{357, 0}";
},
{
name = horn;
position = "{460, 576}";
},
{
name = ogonek;
position = "{404, 0}";
},
{
name = slashlong;
position = "{357, 288}";
},
{
name = top;
position = "{357, 576}";
}
);
guideLines = (
{
position = "{-29, 591}";
},
{
angle = 90;
position = "{357, 289}";
},
{
angle = 179.7135;
position = "{357, 288}";
}
);
layerId = "EE746D13-63D7-48F9-B77E-C723CA6A668B";
paths = (
{
closed = 1;
nodes = (
"546 -13 OFFCURVE",
"675 119 OFFCURVE",
"675 288 CURVE SMOOTH",
"675 459 OFFCURVE",
"544 591 OFFCURVE",
"357 591 CURVE SMOOTH",
"168 591 OFFCURVE",
"39 457 OFFCURVE",
"39 288 CURVE SMOOTH",
"39 121 OFFCURVE",
"167 -13 OFFCURVE",
"357 -13 CURVE SMOOTH"
);
},
{
closed = 1;
nodes = (
"230 51 OFFCURVE",
"157 171 OFFCURVE",
"157 289 CURVE SMOOTH",
"157 404 OFFCURVE",
"230 527 OFFCURVE",
"357 527 CURVE SMOOTH",
"486 527 OFFCURVE",
"557 404 OFFCURVE",
"557 287 CURVE SMOOTH",
"557 171 OFFCURVE",
"486 51 OFFCURVE",
"357 51 CURVE SMOOTH"
);
}
);
width = 714;
}
);
leftKerningGroup = O;
note = O;
rightKerningGroup = O;
},
{
glyphname = p.sc;
layers = (
{
anchors = (
{
name = top;
position = "{308, 576}";
}
);
layerId = "EE746D13-63D7-48F9-B77E-C723CA6A668B";
paths = (
{
closed = 1;
nodes = (
"384 0 LINE",
"384 64 LINE",
"259 64 LINE",
"259 194 LINE",
"282 194 LINE SMOOTH",
"437 194 OFFCURVE",
"587 238 OFFCURVE",
"587 386 CURVE SMOOTH",
"587 533 OFFCURVE",
"470 576 OFFCURVE",
"311 576 CURVE SMOOTH",
"30 576 LINE",
"30 512 LINE",
"152 512 LINE",
"152 64 LINE",
"30 64 LINE",
"30 0 LINE"
);
},
{
closed = 1;
nodes = (
"259 512 LINE",
"311 512 LINE SMOOTH",
"411 512 OFFCURVE",
"480 478 OFFCURVE",
"480 380 CURVE SMOOTH",
"480 288 OFFCURVE",
"401 254 OFFCURVE",
"282 254 CURVE SMOOTH",
"259 254 LINE"
);
}
);
width = 618;
}
);
leftMetricsKey = h.sc;
note = P;
rightKerningGroup = P;
},
{
glyphname = thorn.sc;
layers = (
{
layerId = "EE746D13-63D7-48F9-B77E-C723CA6A668B";
paths = (
{
closed = 1;
nodes = (
"30 0 LINE",
"387 0 LINE",
"387 61 LINE",
"262 61 LINE",
"262 127 LINE",
"294 127 LINE SMOOTH",
"416 127 OFFCURVE",
"577 132 OFFCURVE",
"577 289 CURVE SMOOTH",
"577 446 OFFCURVE",
"416 450 OFFCURVE",
"294 450 CURVE SMOOTH",
"262 450 LINE",
"262 511 LINE",
"377 511 LINE",
"377 575 LINE",
"30 575 LINE",
"30 511 LINE",
"155 511 LINE",
"155 61 LINE",
"30 61 LINE"
);
},
{
closed = 1;
nodes = (
"262 184 LINE",
"262 386 LINE",
"304 386 LINE SMOOTH",
"386 386 OFFCURVE",
"470 372 OFFCURVE",
"470 285 CURVE SMOOTH",
"470 198 OFFCURVE",
"386 184 OFFCURVE",
"306 184 CURVE SMOOTH"
);
}
);
width = 608;
}
);
leftMetricsKey = h.sc;
rightMetricsKey = p.sc;
},
{
glyphname = q.sc;
layers = (
{
layerId = "EE746D13-63D7-48F9-B77E-C723CA6A668B";
paths = (
{
closed = 1;
nodes = (
"668 12 OFFCURVE",
"644 -21 OFFCURVE",
"607 -21 CURVE SMOOTH",
"581 -21 OFFCURVE",
"554 -6 OFFCURVE",
"534 52 CURVE",
"598 106 OFFCURVE",
"635 188 OFFCURVE",
"635 288 CURVE SMOOTH",
"635 469 OFFCURVE",
"514 591 OFFCURVE",
"337 591 CURVE SMOOTH",
"158 591 OFFCURVE",
"39 467 OFFCURVE",
"39 288 CURVE SMOOTH",
"39 111 OFFCURVE",
"157 -13 OFFCURVE",
"337 -13 CURVE SMOOTH",
"378 -13 OFFCURVE",
"416 -7 OFFCURVE",
"450 5 CURVE",
"489 -68 OFFCURVE",
"527 -107 OFFCURVE",
"596 -107 CURVE SMOOTH",
"678 -107 OFFCURVE",
"721 -46 OFFCURVE",
"721 67 CURVE",
"668 67 LINE"
);
},
{
closed = 1;
nodes = (
"456 527 OFFCURVE",
"517 414 OFFCURVE",
"517 287 CURVE SMOOTH",
"517 229 OFFCURVE",
"504 175 OFFCURVE",
"479 133 CURVE",
"443 190 OFFCURVE",
"380 224 OFFCURVE",
"316 224 CURVE SMOOTH",
"242 224 OFFCURVE",
"198 185 OFFCURVE",
"186 150 CURVE",
"167 190 OFFCURVE",
"157 238 OFFCURVE",
"157 289 CURVE SMOOTH",
"157 414 OFFCURVE",
"220 527 OFFCURVE",
"337 527 CURVE SMOOTH"
);
},
{
closed = 1;
nodes = (
"216 145 OFFCURVE",
"260 167 OFFCURVE",
"291 167 CURVE SMOOTH",
"343 167 OFFCURVE",
"384 134 OFFCURVE",
"412 68 CURVE",
"390 57 OFFCURVE",
"365 51 OFFCURVE",
"337 51 CURVE SMOOTH",
"267 51 OFFCURVE",
"218 76 OFFCURVE",
"218 103 CURVE"
);
}
);
width = 705;
}
);
leftKerningGroup = O;
leftMetricsKey = o.sc;
note = Q;
rightKerningGroup = D;
},
{
glyphname = r.sc;
layers = (
{
anchors = (
{
name = bottom;
position = "{356, 0}";
},
{
name = top;
position = "{356, 576}";
}
);
layerId = "EE746D13-63D7-48F9-B77E-C723CA6A668B";
paths = (
{
closed = 1;
nodes = (
"651 -13 OFFCURVE",
"682 34 OFFCURVE",
"682 149 CURVE",
"624 149 LINE",
"624 84 OFFCURVE",
"614 57 OFFCURVE",
"587 57 CURVE SMOOTH",
"560 57 OFFCURVE",
"555 84 OFFCURVE",
"550 119 CURVE SMOOTH",
"542 178 OFFCURVE",
"508 236 OFFCURVE",
"443 248 CURVE",
"520 259 OFFCURVE",
"601 311 OFFCURVE",
"601 403 CURVE SMOOTH",
"601 556 OFFCURVE",
"465 576 OFFCURVE",
"310 576 CURVE SMOOTH",
"30 576 LINE",
"30 512 LINE",
"152 512 LINE",
"152 64 LINE",
"30 64 LINE",
"30 0 LINE",
"373 0 LINE",
"373 64 LINE",
"259 64 LINE",
"259 221 LINE",
"348 221 LINE",
"397 221 OFFCURVE",
"435 185 OFFCURVE",
"444 109 CURVE SMOOTH",
"451 50 OFFCURVE",
"479 -13 OFFCURVE",
"563 -13 CURVE SMOOTH"
);
},
{
closed = 1;
nodes = (
"259 512 LINE",
"340 512 LINE SMOOTH",
"406 512 OFFCURVE",
"494 487 OFFCURVE",
"494 403 CURVE SMOOTH",
"494 303 OFFCURVE",
"386 287 OFFCURVE",
"340 287 CURVE SMOOTH",
"259 287 LINE"
);
}
);
width = 677;
}
);
leftMetricsKey = h.sc;
note = R;
rightKerningGroup = R;
},
{
glyphname = s.sc;
layers = (
{
anchors = (
{
name = bottom;
position = "{331, 0}";
},
{
name = top;
position = "{319, 576}";
}
);
guideLines = (
{
angle = 90;
position = "{319, 562}";
},
{
angle = 90;
position = "{576, 157}";
},
{
angle = 90;
position = "{61, 139}";
},
{
position = "{0, 595}";
},
{
position = "{0, 288}";
},
{
position = "{0, 442}";
}
);
layerId = "EE746D13-63D7-48F9-B77E-C723CA6A668B";
paths = (
{
closed = 1;
nodes = (
"467 -13 OFFCURVE",
"576 35 OFFCURVE",
"576 159 CURVE SMOOTH",
"576 289 OFFCURVE",
"439 324 OFFCURVE",
"319 350 CURVE SMOOTH",
"202 375 OFFCURVE",
"171 394 OFFCURVE",
"171 435 CURVE SMOOTH",
"171 480 OFFCURVE",
"225 523 OFFCURVE",
"319 523 CURVE SMOOTH",
"398 523 OFFCURVE",
"426 509 OFFCURVE",
"450 495 CURVE",
"441 493 OFFCURVE",
"422 468 OFFCURVE",
"422 438 CURVE SMOOTH",
"422 395 OFFCURVE",
"455 368 OFFCURVE",
"496 368 CURVE SMOOTH",
"533 368 OFFCURVE",
"565 395 OFFCURVE",
"565 438 CURVE SMOOTH",
"565 524 OFFCURVE",
"461 591 OFFCURVE",
"319 591 CURVE SMOOTH",
"204 591 OFFCURVE",
"71 542 OFFCURVE",
"71 418 CURVE SMOOTH",
"71 292 OFFCURVE",
"202 272 OFFCURVE",
"319 248 CURVE SMOOTH",
"439 223 OFFCURVE",
"473 190 OFFCURVE",
"473 144 CURVE SMOOTH",
"473 86 OFFCURVE",
"411 55 OFFCURVE",
"319 55 CURVE SMOOTH",
"226 55 OFFCURVE",
"169 78 OFFCURVE",
"163 95 CURVE",
"176 100 OFFCURVE",
"207 117 OFFCURVE",
"207 158 CURVE SMOOTH",
"207 201 OFFCURVE",
"175 223 OFFCURVE",
"134 223 CURVE SMOOTH",
"96 223 OFFCURVE",
"61 190 OFFCURVE",
"61 144 CURVE SMOOTH",
"61 47 OFFCURVE",
"174 -13 OFFCURVE",
"319 -13 CURVE SMOOTH"
);
}
);
width = 619;
}
);
},
{
glyphname = germandbls.sc;
layers = (
{
layerId = "EE746D13-63D7-48F9-B77E-C723CA6A668B";
paths = (
{
closed = 1;
nodes = (
"417 520 OFFCURVE",
"475 487 OFFCURVE",
"475 439 CURVE",
"328 309 LINE",
"360 274 LINE",
"470 274 OFFCURVE",
"526 225 OFFCURVE",
"526 159 CURVE SMOOTH",
"526 110 OFFCURVE",
"491 50 OFFCURVE",
"420 50 CURVE SMOOTH",
"370 50 OFFCURVE",
"329 66 OFFCURVE",
"324 94 CURVE",
"343 99 OFFCURVE",
"357 121 OFFCURVE",
"357 146 CURVE SMOOTH",
"357 179 OFFCURVE",
"336 201 OFFCURVE",
"302 201 CURVE SMOOTH",
"260 201 OFFCURVE",
"247 166 OFFCURVE",
"247 146 CURVE SMOOTH",
"247 67 OFFCURVE",
"311 -11 OFFCURVE",
"440 -11 CURVE SMOOTH",
"546 -11 OFFCURVE",
"633 56 OFFCURVE",
"633 159 CURVE SMOOTH",
"633 241 OFFCURVE",
"556 320 OFFCURVE",
"433 323 CURVE",
"563 431 LINE",
"563 502 OFFCURVE",
"498 584 OFFCURVE",
"346 584 CURVE SMOOTH",
"209 584 OFFCURVE",
"93 505 OFFCURVE",
"93 356 CURVE SMOOTH",
"93 64 LINE",
"19 64 LINE",
"19 0 LINE",
"200 0 LINE",
"200 356 LINE SMOOTH",
"200 471 OFFCURVE",
"269 520 OFFCURVE",
"354 520 CURVE SMOOTH"
);
}
);
width = 676;
}
);
leftMetricsKey = u.sc;
rightMetricsKey = three;
},
{
glyphname = t.sc;
layers = (
{
anchors = (
{
name = bottom;
position = "{337, 0}";
},
{
name = strokeshort;
position = "{508, 244}";
},
{
name = top;
position = "{338, 576}";
}
);
layerId = "EE746D13-63D7-48F9-B77E-C723CA6A668B";
paths = (
{
closed = 1;
nodes = (
"512 0 LINE",
"512 64 LINE",
"391 64 LINE",
"391 512 LINE",
"552 512 LINE",
"552 341 LINE",
"628 341 LINE",
"628 576 LINE",
"47 576 LINE",
"47 341 LINE",
"123 341 LINE",
"123 512 LINE",
"284 512 LINE",
"284 64 LINE",
"163 64 LINE",
"163 0 LINE"
);
}
);
width = 675;
}
);
leftKerningGroup = T;
note = T;
rightKerningGroup = T;
},
{
glyphname = u.sc;
layers = (
{
anchors = (
{
name = bottom;
position = "{370, 0}";
},
{
name = horn;
position = "{504, 558}";
},
{
name = ogonek;
position = "{415, 0}";
},
{
name = top;
position = "{370, 576}";
}
);
layerId = "EE746D13-63D7-48F9-B77E-C723CA6A668B";
paths = (
{
closed = 1;
nodes = (
"541 -13 OFFCURVE",
"615 75 OFFCURVE",
"615 237 CURVE SMOOTH",
"615 512 LINE",
"720 512 LINE",
"720 576 LINE",
"411 576 LINE",
"411 512 LINE",
"538 512 LINE",
"538 218 LINE SMOOTH",
"538 120 OFFCURVE",
"478 55 OFFCURVE",
"386 55 CURVE SMOOTH",
"291 55 OFFCURVE",
"233 119 OFFCURVE",
"233 215 CURVE SMOOTH",
"233 512 LINE",
"341 512 LINE",
"341 576 LINE",
"19 576 LINE",
"19 512 LINE",
"126 512 LINE",
"126 222 LINE SMOOTH",
"126 82 OFFCURVE",
"204 -13 OFFCURVE",
"367 -13 CURVE SMOOTH"
);
}
);
width = 737;
}
);
leftKerningGroup = U;
note = U;
rightKerningGroup = U;
},
{
glyphname = v.sc;
layers = (
{
guideLines = (
{
angle = 111.8207;
position = "{191, 256}";
},
{
angle = 248.5661;
position = "{493, 256}";
},
{
angle = 111.8207;
position = "{301, 256}";
},
{
angle = 248.5661;
position = "{416, 256}";
}
);
layerId = "EE746D13-63D7-48F9-B77E-C723CA6A668B";
paths = (
{
closed = 1;
nodes = (
"392 0 LINE",
"593 512 LINE",
"683 512 LINE",
"683 576 LINE",
"392 576 LINE",
"392 512 LINE",
"516 512 LINE",
"359 111 LINE",
"199 512 LINE",
"307 512 LINE",
"307 576 LINE",
"-12 576 LINE",
"-12 512 LINE",
"88 512 LINE",
"293 0 LINE"
);
}
);
width = 671;
}
);
leftKerningGroup = V;
rightKerningGroup = V;
},
{
glyphname = w.sc;
layers = (
{
anchors = (
{
name = bottom;
position = "{492, 0}";
},
{
name = top;
position = "{522, 576}";
}
);
guideLines = (
{
angle = 107.9637;
position = "{164, 256}";
},
{
angle = 107.9637;
position = "{275, 256}";
},
{
angle = 248.1465;
position = "{391, 324}";
},
{
angle = 248.1465;
position = "{468, 324}";
},
{
angle = 107.9637;
position = "{535, 256}";
},
{
angle = 107.9637;
position = "{646, 256}";
}
);
layerId = "EE746D13-63D7-48F9-B77E-C723CA6A668B";
paths = (
{
closed = 1;
nodes = (
"725 512 LINE",
"822 512 LINE",
"698 131 LINE",
"563 513 LINE",
"467 513 LINE",
"322 134 LINE",
"199 512 LINE",
"320 512 LINE",
"320 576 LINE",
"-12 576 LINE",
"-12 512 LINE",
"88 512 LINE",
"254 0 LINE",
"345 0 LINE",
"493 385 LINE",
"630 0 LINE",
"732 0 LINE",
"899 512 LINE",
"995 512 LINE",
"995 576 LINE",
"725 576 LINE"
);
}
);
width = 982;
}
);
},
{
glyphname = x.sc;
layers = (
{
anchors = (
{
name = top;
position = "{346, 576}";
}
);
guideLines = (
{
angle = 90;
position = "{684, 549}";
},
{
angle = 90;
position = "{22, 549}";
},
{
angle = 130.3871;
position = "{200, 402}";
},
{
angle = 130.3871;
position = "{321, 402}";
},
{
angle = 228.0587;
position = "{470, 409}";
},
{
angle = 228.0587;
position = "{394, 409}";
}
);
layerId = "EE746D13-63D7-48F9-B77E-C723CA6A668B";
paths = (
{
closed = 1;
nodes = (
"261 0 LINE",
"261 64 LINE",
"160 64 LINE",
"328 251 LINE",
"488 64 LINE",
"388 64 LINE",
"388 0 LINE",
"684 0 LINE",
"684 64 LINE",
"609 64 LINE",
"404 305 LINE",
"590 512 LINE",
"667 512 LINE",
"667 576 LINE",
"417 576 LINE",
"417 512 LINE",
"514 512 LINE",
"362 343 LINE",
"219 512 LINE",
"319 512 LINE",
"319 576 LINE",
"22 576 LINE",
"22 512 LINE",
"97 512 LINE",
"285 288 LINE",
"84 64 LINE",
"7 64 LINE",
"7 0 LINE"
);
}
);
width = 691;
}
);
leftKerningGroup = X;
note = X;
},
{
glyphname = y.sc;
layers = (
{
anchors = (
{
name = bottom;
position = "{336, 0}";
},
{
name = top;
position = "{352, 576}";
}
);
guideLines = (
{
angle = 123.4434;
position = "{283, 405}";
},
{
angle = 123.4434;
position = "{172, 405}";
},
{
angle = 235.6421;
position = "{407, 375}";
}
);
layerId = "EE746D13-63D7-48F9-B77E-C723CA6A668B";
paths = (
{
closed = 1;
nodes = (
"502 0 LINE",
"502 64 LINE",
"390 64 LINE",
"390 237 LINE",
"578 512 LINE",
"672 512 LINE",
"672 576 LINE",
"403 576 LINE",
"403 512 LINE",
"501 512 LINE",
"354 297 LINE",
"212 512 LINE",
"301 512 LINE",
"301 576 LINE",
"0 576 LINE",
"0 512 LINE",
"101 512 LINE",
"283 237 LINE",
"283 64 LINE",
"164 64 LINE",
"164 0 LINE"
);
}
);
width = 672;
}
);
leftKerningGroup = Y;
note = Y;
rightKerningGroup = Y;
},
{
glyphname = z.sc;
layers = (
{
anchors = (
{
name = bottom;
position = "{291, 0}";
},
{
name = top;
position = "{291, 576}";
}
);
guideLines = (
{
angle = 229.5599;
position = "{345, 296}";
},
{
angle = 229.56;
position = "{235, 296}";
}
);
layerId = "EE746D13-63D7-48F9-B77E-C723CA6A668B";
paths = (
{
closed = 1;
nodes = (
"540 0 LINE",
"540 228 LINE",
"464 228 LINE",
"464 63 LINE",
"154 63 LINE",
"534 505 LINE",
"534 576 LINE",
"55 576 LINE",
"55 360 LINE",
"131 360 LINE",
"131 516 LINE",
"422 516 LINE",
"42 65 LINE",
"42 0 LINE"
);
}
);
width = 582;
}
);
},
{
glyphname = ordfeminine;
layers = (
{
layerId = "EE746D13-63D7-48F9-B77E-C723CA6A668B";
paths = (
{
closed = 1;
nodes = (
"252 261 OFFCURVE",
"318 305 OFFCURVE",
"342 365 CURVE",
"346 311 OFFCURVE",
"384 261 OFFCURVE",
"442 261 CURVE SMOOTH",
"517 261 OFFCURVE",
"540 316 OFFCURVE",
"540 389 CURVE",
"540 432 LINE",
"495 432 LINE",
"495 390 LINE",
"495 350 OFFCURVE",
"489 320 OFFCURVE",
"459 320 CURVE SMOOTH",
"428 320 OFFCURVE",
"422 350 OFFCURVE",
"422 390 CURVE SMOOTH",
"422 582 LINE SMOOTH",
"422 637 OFFCURVE",
"405 677 OFFCURVE",
"375 700 CURVE SMOOTH",
"344 723 OFFCURVE",
"307 732 OFFCURVE",
"261 732 CURVE SMOOTH",
"205 732 OFFCURVE",
"155 714 OFFCURVE",
"127 688 CURVE SMOOTH",
"101 663 OFFCURVE",
"84 636 OFFCURVE",
"84 613 CURVE SMOOTH",
"84 570 OFFCURVE",
"113 546 OFFCURVE",
"146 546 CURVE SMOOTH",
"178 546 OFFCURVE",
"204 570 OFFCURVE",
"204 605 CURVE SMOOTH",
"204 631 OFFCURVE",
"181 653 OFFCURVE",
"146 653 CURVE",
"166 675 OFFCURVE",
"204 688 OFFCURVE",
"243 688 CURVE SMOOTH",
"300 688 OFFCURVE",
"332 658 OFFCURVE",
"332 594 CURVE SMOOTH",
"332 569 OFFCURVE",
"316 547 OFFCURVE",
"291 533 CURVE SMOOTH",
"266 519 OFFCURVE",
"234 504 OFFCURVE",
"202 492 CURVE SMOOTH",
"169 480 OFFCURVE",
"136 462 OFFCURVE",
"111 444 CURVE SMOOTH",
"86 426 OFFCURVE",
"70 397 OFFCURVE",
"70 364 CURVE SMOOTH",
"70 299 OFFCURVE",
"118 261 OFFCURVE",
"186 261 CURVE SMOOTH"
);
},
{
closed = 1;
nodes = (
"176 321 OFFCURVE",
"159 340 OFFCURVE",
"159 368 CURVE SMOOTH",
"159 401 OFFCURVE",
"184 424 OFFCURVE",
"214 438 CURVE SMOOTH",
"243 451 OFFCURVE",
"300 481 OFFCURVE",
"335 516 CURVE",
"335 427 LINE SMOOTH",
"335 411 OFFCURVE",
"329 396 OFFCURVE",
"316 379 CURVE SMOOTH",
"290 346 OFFCURVE",
"247 321 OFFCURVE",
"208 321 CURVE SMOOTH"
);
}
);
width = 610;
}
);
note = ordfeminine;
unicode = 00AA;
},
{
glyphname = ordmasculine;
layers = (
{
layerId = "EE746D13-63D7-48F9-B77E-C723CA6A668B";
paths = (
{
closed = 1;
nodes = (
"422 279 OFFCURVE",
"505 379 OFFCURVE",
"505 514 CURVE SMOOTH",
"505 648 OFFCURVE",
"425 750 OFFCURVE",
"288 750 CURVE SMOOTH",
"155 750 OFFCURVE",
"70 653 OFFCURVE",
"70 514 CURVE SMOOTH",
"70 378 OFFCURVE",
"155 279 OFFCURVE",
"289 279 CURVE SMOOTH"
);
},
{
closed = 1;
nodes = (
"213 332 OFFCURVE",
"166 402 OFFCURVE",
"166 509 CURVE SMOOTH",
"166 612 OFFCURVE",
"201 700 OFFCURVE",
"288 700 CURVE SMOOTH",
"375 700 OFFCURVE",
"409 615 OFFCURVE",
"409 509 CURVE SMOOTH",
"409 402 OFFCURVE",
"363 332 OFFCURVE",
"289 332 CURVE SMOOTH"
);
}
);
width = 575;
}
);
note = ordmasculine;
unicode = 00BA;
},
{
glyphname = uni03BC;
layers = (
{
layerId = "EE746D13-63D7-48F9-B77E-C723CA6A668B";
paths = (
{
closed = 1;
nodes = (
"532 524 LINE",
"338 524 LINE",
"338 469 LINE",
"426 469 LINE",
"426 239 LINE SMOOTH",
"426 144 OFFCURVE",
"385 54 OFFCURVE",
"291 54 CURVE SMOOTH",
"233 54 OFFCURVE",
"197 93 OFFCURVE",
"197 178 CURVE SMOOTH",
"197 524 LINE",
"-7 524 LINE",
"-7 469 LINE",
"92 469 LINE",
"92 -141 LINE",
"-7 -141 LINE",
"-7 -196 LINE",
"192 -196 LINE",
"192 10 LINE",
"214 -7 OFFCURVE",
"243 -13 OFFCURVE",
"274 -13 CURVE SMOOTH",
"341 -13 OFFCURVE",
"397 26 OFFCURVE",
"429 99 CURVE",
"449 0 LINE",
"627 0 LINE",
"627 55 LINE",
"532 55 LINE"
);
}
);
width = 657;
}
);
leftMetricsKey = p;
note = uni03BC;
rightMetricsKey = u;
unicode = 03BC;
},
{
glyphname = zero;
layers = (
{
guideLines = (
{
position = "{603, 745}";
}
);
layerId = "EE746D13-63D7-48F9-B77E-C723CA6A668B";
paths = (
{
closed = 1;
nodes = (
"493 -11 OFFCURVE",
"586 142 OFFCURVE",
"586 312 CURVE SMOOTH",
"586 482 OFFCURVE",
"493 634 OFFCURVE",
"310 634 CURVE SMOOTH",
"127 634 OFFCURVE",
"34 482 OFFCURVE",
"34 312 CURVE SMOOTH",
"34 142 OFFCURVE",
"127 -11 OFFCURVE",
"310 -11 CURVE SMOOTH"
);
},
{
closed = 1;
nodes = (
"198 59 OFFCURVE",
"155 189 OFFCURVE",
"155 312 CURVE SMOOTH",
"155 436 OFFCURVE",
"198 568 OFFCURVE",
"310 568 CURVE SMOOTH",
"422 568 OFFCURVE",
"465 436 OFFCURVE",
"465 312 CURVE SMOOTH",
"465 187 OFFCURVE",
"422 59 OFFCURVE",
"310 59 CURVE SMOOTH"
);
}
);
width = 620;
}
);
note = zero;
unicode = 0030;
},
{
glyphname = one;
layers = (
{
guideLines = (
{
angle = 90;
position = "{78, 55}";
},
{
angle = 180;
position = "{511, 145}";
},
{
position = "{283, 620}";
}
);
layerId = "EE746D13-63D7-48F9-B77E-C723CA6A668B";
paths = (
{
closed = 1;
nodes = (
"241 620 LINE",
"221 554 OFFCURVE",
"156 507 OFFCURVE",
"50 502 CURVE",
"50 447 LINE",
"101 438 OFFCURVE",
"157 439 OFFCURVE",
"209 462 CURVE",
"209 55 LINE",
"51 55 LINE",
"51 0 LINE",
"474 0 LINE",
"474 55 LINE",
"315 55 LINE",
"316 620 LINE"
);
}
);
width = 494;
}
);
note = one;
unicode = 0031;
},
{
glyphname = one_alt;
layers = (
{
layerId = "EE746D13-63D7-48F9-B77E-C723CA6A668B";
paths = (
{
closed = 1;
nodes = (
"50 616 LINE",
"50 556 LINE",
"208 556 LINE",
"208 55 LINE",
"50 55 LINE",
"50 0 LINE",
"474 0 LINE",
"474 55 LINE",
"315 55 LINE",
"315 616 LINE"
);
}
);
width = 494;
}
);
},
{
glyphname = two;
layers = (
{
layerId = "EE746D13-63D7-48F9-B77E-C723CA6A668B";
paths = (
{
closed = 1;
nodes = (
"491 119 OFFCURVE",
"454 91 OFFCURVE",
"413 91 CURVE SMOOTH",
"338 91 OFFCURVE",
"311 130 OFFCURVE",
"229 130 CURVE SMOOTH",
"182 130 OFFCURVE",
"148 118 OFFCURVE",
"126 96 CURVE",
"146 146 OFFCURVE",
"187 169 OFFCURVE",
"253 197 CURVE SMOOTH",
"363 243 OFFCURVE",
"513 313 OFFCURVE",
"513 441 CURVE SMOOTH",
"513 549 OFFCURVE",
"428 634 OFFCURVE",
"278 634 CURVE SMOOTH",
"141 634 OFFCURVE",
"51 533 OFFCURVE",
"51 452 CURVE SMOOTH",
"51 407 OFFCURVE",
"78 374 OFFCURVE",
"129 374 CURVE SMOOTH",
"174 374 OFFCURVE",
"206 408 OFFCURVE",
"206 445 CURVE SMOOTH",
"206 483 OFFCURVE",
"172 509 OFFCURVE",
"137 512 CURVE",
"148 532 OFFCURVE",
"192 568 OFFCURVE",
"262 568 CURVE SMOOTH",
"348 568 OFFCURVE",
"397 511 OFFCURVE",
"397 437 CURVE SMOOTH",
"397 333 OFFCURVE",
"290 290 OFFCURVE",
"218 254 CURVE SMOOTH",
"121 205 OFFCURVE",
"35 150 OFFCURVE",
"35 0 CURVE",
"117 0 LINE",
"117 43 OFFCURVE",
"146 65 OFFCURVE",
"178 65 CURVE SMOOTH",
"260 65 OFFCURVE",
"287 -14 OFFCURVE",
"398 -14 CURVE SMOOTH",
"494 -14 OFFCURVE",
"545 63 OFFCURVE",
"545 201 CURVE",
"491 201 LINE"
);
}
);
width = 600;
}
);
unicode = 0032;
},
{
glyphname = two_alt;
layers = (
{
guideLines = (
{
angle = 126.6071;
position = "{335, 162}";
},
{
angle = 214.751;
position = "{244, 122}";
},
{
angle = 216.0412;
position = "{166, 145}";
},
{
angle = 173.8678;
position = "{547, 176}";
}
);
layerId = "EE746D13-63D7-48F9-B77E-C723CA6A668B";
paths = (
{
closed = 1;
nodes = (
"481 88 LINE",
"195 88 LINE",
"324 177 LINE SMOOTH",
"424 247 OFFCURVE",
"534 323 OFFCURVE",
"534 441 CURVE SMOOTH",
"534 559 OFFCURVE",
"449 634 OFFCURVE",
"299 634 CURVE SMOOTH",
"162 634 OFFCURVE",
"52 543 OFFCURVE",
"52 472 CURVE SMOOTH",
"52 427 OFFCURVE",
"79 384 OFFCURVE",
"130 384 CURVE SMOOTH",
"175 384 OFFCURVE",
"207 418 OFFCURVE",
"207 455 CURVE SMOOTH",
"207 493 OFFCURVE",
"173 519 OFFCURVE",
"138 522 CURVE",
"152 539 OFFCURVE",
"203 568 OFFCURVE",
"273 568 CURVE SMOOTH",
"359 568 OFFCURVE",
"418 511 OFFCURVE",
"418 427 CURVE SMOOTH",
"418 328 OFFCURVE",
"353 285 OFFCURVE",
"289 234 CURVE",
"43 55 LINE",
"43 0 LINE",
"550 0 LINE",
"577 176 LINE",
"530 181 LINE"
);
}
);
width = 611;
}
);
note = two;
},
{
glyphname = three;
layers = (
{
guideLines = (
{
angle = 180;
position = "{134, 56}";
},
{
angle = 180;
position = "{105, 395}";
},
{
angle = 180;
position = "{111, -120}";
},
{
angle = 180;
position = "{111, -134}";
},
{
angle = 180;
position = "{278, 620}";
}
);
layerId = "EE746D13-63D7-48F9-B77E-C723CA6A668B";
paths = (
{
closed = 1;
nodes = (
"416 -134 OFFCURVE",
"528 -48 OFFCURVE",
"528 74 CURVE SMOOTH",
"528 190 OFFCURVE",
"452 256 OFFCURVE",
"333 270 CURVE",
"432 290 OFFCURVE",
"498 358 OFFCURVE",
"498 446 CURVE SMOOTH",
"498 548 OFFCURVE",
"427 634 OFFCURVE",
"283 634 CURVE SMOOTH",
"136 634 OFFCURVE",
"60 542 OFFCURVE",
"60 454 CURVE SMOOTH",
"60 425 OFFCURVE",
"77 383 OFFCURVE",
"131 383 CURVE SMOOTH",
"175 383 OFFCURVE",
"202 411 OFFCURVE",
"202 454 CURVE SMOOTH",
"202 486 OFFCURVE",
"175 511 OFFCURVE",
"149 515 CURVE",
"158 538 OFFCURVE",
"198 568 OFFCURVE",
"260 568 CURVE SMOOTH",
"319 568 OFFCURVE",
"377 535 OFFCURVE",
"377 446 CURVE SMOOTH",
"377 338 OFFCURVE",
"299 291 OFFCURVE",
"193 286 CURVE",
"201 233 LINE",
"354 233 OFFCURVE",
"407 169 OFFCURVE",
"407 74 CURVE SMOOTH",
"407 -28 OFFCURVE",
"339 -68 OFFCURVE",
"260 -68 CURVE SMOOTH",
"196 -68 OFFCURVE",
"140 -35 OFFCURVE",
"133 1 CURVE",
"158 8 OFFCURVE",
"176 36 OFFCURVE",
"176 68 CURVE SMOOTH",
"176 110 OFFCURVE",
"149 139 OFFCURVE",
"105 139 CURVE SMOOTH",
"51 139 OFFCURVE",
"34 93 OFFCURVE",
"34 68 CURVE SMOOTH",
"34 -44 OFFCURVE",
"124 -134 OFFCURVE",
"279 -134 CURVE SMOOTH"
);
}
);
width = 571;
}
);
note = three;
unicode = 0033;
},
{
glyphname = four;
layers = (
{
guideLines = (
{
angle = -7.1019;
position = "{784, 1068}";
},
{
angle = 180;
position = "{122, -120}";
},
{
angle = 180;
position = "{122, -134}";
},
{
angle = 180;
position = "{289, 620}";
},
{
angle = 57.3287;
position = "{186, 385}";
}
);
layerId = "EE746D13-63D7-48F9-B77E-C723CA6A668B";
paths = (
{
closed = 1;
nodes = (
"579 -118 LINE",
"579 -65 LINE",
"467 -65 LINE",
"467 101 LINE",
"620 101 LINE",
"620 160 LINE",
"467 160 LINE",
"467 621 LINE",
"346 634 LINE",
"26 152 LINE",
"38 101 LINE",
"362 101 LINE",
"362 -63 LINE",
"250 -63 LINE",
"250 -118 LINE"
);
},
{
closed = 1;
nodes = (
"362 547 LINE",
"362 160 LINE",
"106 160 LINE"
);
}
);
width = 636;
}
);
note = four;
unicode = 0034;
},
{
glyphname = five;
layers = (
{
guideLines = (
{
angle = 86.8202;
position = "{170, 400}";
},
{
angle = -8.584;
position = "{118, 195}";
},
{
angle = 266.9059;
position = "{137, 399}";
},
{
angle = 180;
position = "{108, -120}";
},
{
angle = 180;
position = "{108, -134}";
},
{
angle = 180;
position = "{275, 620}";
}
);
layerId = "EE746D13-63D7-48F9-B77E-C723CA6A668B";
paths = (
{
closed = 1;
nodes = (
"412 26 OFFCURVE",
"363 -68 OFFCURVE",
"253 -68 CURVE SMOOTH",
"182 -68 OFFCURVE",
"135 -33 OFFCURVE",
"127 1 CURVE",
"162 8 OFFCURVE",
"185 36 OFFCURVE",
"185 68 CURVE SMOOTH",
"185 110 OFFCURVE",
"158 139 OFFCURVE",
"114 139 CURVE SMOOTH",
"60 139 OFFCURVE",
"43 93 OFFCURVE",
"43 58 CURVE SMOOTH",
"43 -34 OFFCURVE",
"110 -134 OFFCURVE",
"271 -134 CURVE SMOOTH",
"429 -134 OFFCURVE",
"533 -24 OFFCURVE",
"533 127 CURVE SMOOTH",
"533 279 OFFCURVE",
"437 375 OFFCURVE",
"301 375 CURVE SMOOTH",
"213 375 OFFCURVE",
"157 345 OFFCURVE",
"143 335 CURVE",
"168 558 LINE",
"205 544 OFFCURVE",
"273 524 OFFCURVE",
"326 524 CURVE SMOOTH",
"391 524 OFFCURVE",
"455 549 OFFCURVE",
"507 606 CURVE",
"495 634 LINE",
"461 624 OFFCURVE",
"372 614 OFFCURVE",
"326 614 CURVE SMOOTH",
"240 614 OFFCURVE",
"198 623 OFFCURVE",
"137 634 CURVE",
"110 614 LINE",
"68 250 LINE",
"118 240 LINE",
"126 265 OFFCURVE",
"181 320 OFFCURVE",
"266 320 CURVE SMOOTH",
"363 320 OFFCURVE",
"412 244 OFFCURVE",
"412 121 CURVE SMOOTH"
);
}
);
width = 567;
}
);
note = five;
unicode = 0035;
},
{
glyphname = five_alt;
layers = (
{
layerId = "EE746D13-63D7-48F9-B77E-C723CA6A668B";
paths = (
{
closed = 1;
nodes = (
"213 375 OFFCURVE",
"167 345 OFFCURVE",
"153 335 CURVE",
"186 532 LINE",
"475 532 LINE",
"512 688 LINE",
"465 693 LINE",
"417 620 LINE",
"131 620 LINE",
"71 261 LINE",
"128 248 LINE",
"136 265 OFFCURVE",
"191 320 OFFCURVE",
"266 320 CURVE SMOOTH",
"363 320 OFFCURVE",
"412 244 OFFCURVE",
"412 121 CURVE SMOOTH",
"412 26 OFFCURVE",
"363 -68 OFFCURVE",
"253 -68 CURVE SMOOTH",
"182 -68 OFFCURVE",
"135 -33 OFFCURVE",
"127 1 CURVE",
"162 8 OFFCURVE",
"185 36 OFFCURVE",
"185 68 CURVE SMOOTH",
"185 110 OFFCURVE",
"158 139 OFFCURVE",
"114 139 CURVE SMOOTH",
"60 139 OFFCURVE",
"43 93 OFFCURVE",
"43 58 CURVE SMOOTH",
"43 -34 OFFCURVE",
"110 -134 OFFCURVE",
"271 -134 CURVE SMOOTH",
"429 -134 OFFCURVE",
"533 -24 OFFCURVE",
"533 127 CURVE SMOOTH",
"533 279 OFFCURVE",
"437 375 OFFCURVE",
"301 375 CURVE SMOOTH"
);
}
);
width = 567;
}
);
},
{
glyphname = six;
layers = (
{
guideLines = (
{
angle = 270;
position = "{15, 336}";
}
);
layerId = "EE746D13-63D7-48F9-B77E-C723CA6A668B";
paths = (
{
closed = 1;
nodes = (
"426 -13 OFFCURVE",
"534 85 OFFCURVE",
"534 216 CURVE SMOOTH",
"534 359 OFFCURVE",
"439 448 OFFCURVE",
"310 448 CURVE SMOOTH",
"242 448 OFFCURVE",
"181 409 OFFCURVE",
"158 364 CURVE",
"158 493 OFFCURVE",
"206 685 OFFCURVE",
"346 685 CURVE SMOOTH",
"394 685 OFFCURVE",
"426 660 OFFCURVE",
"439 628 CURVE",
"408 626 OFFCURVE",
"373 598 OFFCURVE",
"373 560 CURVE SMOOTH",
"373 525 OFFCURVE",
"394 493 OFFCURVE",
"443 493 CURVE SMOOTH",
"488 493 OFFCURVE",
"515 534 OFFCURVE",
"515 572 CURVE SMOOTH",
"515 651 OFFCURVE",
"457 751 OFFCURVE",
"336 751 CURVE SMOOTH",
"152 751 OFFCURVE",
"43 551 OFFCURVE",
"43 324 CURVE SMOOTH",
"43 81 OFFCURVE",
"166 -13 OFFCURVE",
"290 -13 CURVE SMOOTH"
);
},
{
closed = 1;
nodes = (
"377 384 OFFCURVE",
"419 299 OFFCURVE",
"419 216 CURVE SMOOTH",
"419 122 OFFCURVE",
"367 53 OFFCURVE",
"295 53 CURVE SMOOTH",
"214 53 OFFCURVE",
"166 127 OFFCURVE",
"166 216 CURVE SMOOTH",
"166 295 OFFCURVE",
"219 384 OFFCURVE",
"300 384 CURVE SMOOTH"
);
}
);
width = 577;
}
);
note = six;
unicode = 0036;
},
{
glyphname = seven;
layers = (
{
guideLines = (
{
angle = 180;
position = "{129, -120}";
},
{
angle = 180;
position = "{129, -134}";
},
{
angle = 180;
position = "{296, 620}";
},
{
angle = 98.0171;
position = "{405, -49}";
}
);
layerId = "EE746D13-63D7-48F9-B77E-C723CA6A668B";
paths = (
{
closed = 1;
nodes = (
"477 601 OFFCURVE",
"459 579 OFFCURVE",
"417 579 CURVE SMOOTH",
"343 579 OFFCURVE",
"329 634 OFFCURVE",
"230 634 CURVE SMOOTH",
"168 634 OFFCURVE",
"124 604 OFFCURVE",
"97 561 CURVE",
"97 620 LINE",
"43 620 LINE",
"43 362 LINE",
"97 362 LINE",
"97 515 OFFCURVE",
"164 539 OFFCURVE",
"205 539 CURVE SMOOTH",
"260 539 OFFCURVE",
"279 504 OFFCURVE",
"351 504 CURVE SMOOTH",
"402 504 OFFCURVE",
"429 520 OFFCURVE",
"451 535 CURVE",
"419 462 OFFCURVE",
"334 377 OFFCURVE",
"273 285 CURVE SMOOTH",
"193 165 OFFCURVE",
"163 52 OFFCURVE",
"163 -73 CURVE SMOOTH",
"163 -117 OFFCURVE",
"189 -138 OFFCURVE",
"228 -138 CURVE SMOOTH",
"267 -138 OFFCURVE",
"293 -117 OFFCURVE",
"293 -73 CURVE SMOOTH",
"293 50 OFFCURVE",
"307 153 OFFCURVE",
"360 259 CURVE SMOOTH",
"399 338 OFFCURVE",
"490 462 OFFCURVE",
"521 539 CURVE SMOOTH",
"535 575 OFFCURVE",
"539 611 OFFCURVE",
"539 620 CURVE",
"484 620 LINE"
);
}
);
width = 547;
}
);
unicode = 0037;
},
{
glyphname = seven_alt;
layers = (
{
guideLines = (
{
position = "{296, 909}";
},
{
angle = 180;
position = "{114, -120}";
},
{
angle = 180;
position = "{281, 620}";
}
);
layerId = "EE746D13-63D7-48F9-B77E-C723CA6A668B";
paths = (
{
closed = 1;
nodes = (
"60 620 LINE",
"60 613 LINE",
"34 444 LINE",
"81 439 LINE",
"129 530 LINE",
"449 530 LINE",
"401 464 OFFCURVE",
"332 372 OFFCURVE",
"271 280 CURVE SMOOTH",
"191 160 OFFCURVE",
"161 47 OFFCURVE",
"161 -78 CURVE SMOOTH",
"161 -122 OFFCURVE",
"187 -143 OFFCURVE",
"226 -143 CURVE SMOOTH",
"265 -143 OFFCURVE",
"291 -122 OFFCURVE",
"291 -78 CURVE SMOOTH",
"291 45 OFFCURVE",
"306 148 OFFCURVE",
"358 254 CURVE SMOOTH",
"397 333 OFFCURVE",
"479 459 OFFCURVE",
"529 534 CURVE",
"529 620 LINE"
);
}
);
width = 539;
}
);
note = seven;
},
{
glyphname = eight;
layers = (
{
guideLines = (
{
position = "{655, 1153}";
},
{
position = "{438, 355}";
},
{
angle = 180;
position = "{294, 717}";
}
);
layerId = "EE746D13-63D7-48F9-B77E-C723CA6A668B";
paths = (
{
closed = 1;
nodes = (
"115 360 OFFCURVE",
"43 279 OFFCURVE",
"43 193 CURVE SMOOTH",
"43 94 OFFCURVE",
"127 -14 OFFCURVE",
"300 -14 CURVE SMOOTH",
"467 -14 OFFCURVE",
"547 98 OFFCURVE",
"547 193 CURVE SMOOTH",
"547 286 OFFCURVE",
"490 362 OFFCURVE",
"386 392 CURVE",
"453 424 OFFCURVE",
"515 476 OFFCURVE",
"515 569 CURVE SMOOTH",
"515 673 OFFCURVE",
"430 750 OFFCURVE",
"292 750 CURVE SMOOTH",
"162 750 OFFCURVE",
"77 662 OFFCURVE",
"77 559 CURVE SMOOTH",
"77 463 OFFCURVE",
"130 409 OFFCURVE",
"204 378 CURVE"
);
},
{
closed = 1;
nodes = (
"362 318 OFFCURVE",
"426 265 OFFCURVE",
"426 173 CURVE SMOOTH",
"426 112 OFFCURVE",
"384 41 OFFCURVE",
"302 41 CURVE SMOOTH",
"215 41 OFFCURVE",
"164 100 OFFCURVE",
"164 173 CURVE SMOOTH",
"164 275 OFFCURVE",
"228 325 OFFCURVE",
"268 342 CURVE"
);
},
{
closed = 1;
nodes = (
"249 445 OFFCURVE",
"187 493 OFFCURVE",
"187 579 CURVE SMOOTH",
"187 647 OFFCURVE",
"232 695 OFFCURVE",
"292 695 CURVE SMOOTH",
"369 695 OFFCURVE",
"407 637 OFFCURVE",
"407 569 CURVE SMOOTH",
"407 492 OFFCURVE",
"364 444 OFFCURVE",
"330 424 CURVE"
);
}
);
width = 581;
}
);
note = eight;
unicode = 0038;
},
{
glyphname = nine;
layers = (
{
guideLines = (
{
angle = 180;
position = "{159, 45}";
},
{
angle = 180;
position = "{130, -120}";
},
{
angle = 180;
position = "{130, -134}";
}
);
layerId = "EE746D13-63D7-48F9-B77E-C723CA6A668B";
paths = (
{
closed = 1;
nodes = (
"151 634 OFFCURVE",
"43 536 OFFCURVE",
"43 405 CURVE SMOOTH",
"43 262 OFFCURVE",
"138 173 OFFCURVE",
"267 173 CURVE SMOOTH",
"335 173 OFFCURVE",
"380 209 OFFCURVE",
"419 257 CURVE",
"419 138 OFFCURVE",
"391 -68 OFFCURVE",
"241 -68 CURVE SMOOTH",
"203 -68 OFFCURVE",
"151 -53 OFFCURVE",
"138 -11 CURVE",
"169 -9 OFFCURVE",
"204 19 OFFCURVE",
"204 57 CURVE SMOOTH",
"204 92 OFFCURVE",
"183 124 OFFCURVE",
"134 124 CURVE SMOOTH",
"89 124 OFFCURVE",
"62 83 OFFCURVE",
"62 45 CURVE SMOOTH",
"62 -34 OFFCURVE",
"120 -134 OFFCURVE",
"251 -134 CURVE SMOOTH",
"445 -134 OFFCURVE",
"534 70 OFFCURVE",
"534 297 CURVE SMOOTH",
"534 540 OFFCURVE",
"411 634 OFFCURVE",
"287 634 CURVE SMOOTH"
);
},
{
closed = 1;
nodes = (
"200 237 OFFCURVE",
"158 322 OFFCURVE",
"158 405 CURVE SMOOTH",
"158 499 OFFCURVE",
"210 568 OFFCURVE",
"282 568 CURVE SMOOTH",
"363 568 OFFCURVE",
"411 494 OFFCURVE",
"411 405 CURVE SMOOTH",
"411 326 OFFCURVE",
"358 237 OFFCURVE",
"277 237 CURVE SMOOTH"
);
}
);
width = 577;
}
);
note = nine;
unicode = 0039;
},
{
glyphname = zero.lf;
layers = (
{
guideLines = (
{
angle = 270;
position = "{1040, 539}";
},
{
angle = 270;
position = "{74, 541}";
}
);
layerId = "EE746D13-63D7-48F9-B77E-C723CA6A668B";
paths = (
{
closed = 1;
nodes = (
"505 -11 OFFCURVE",
"586 184 OFFCURVE",
"586 367 CURVE SMOOTH",
"586 550 OFFCURVE",
"505 745 OFFCURVE",
"310 745 CURVE SMOOTH",
"114 745 OFFCURVE",
"34 550 OFFCURVE",
"34 367 CURVE SMOOTH",
"34 184 OFFCURVE",
"114 -11 OFFCURVE",
"310 -11 CURVE SMOOTH"
);
},
{
closed = 1;
nodes = (
"185 59 OFFCURVE",
"155 231 OFFCURVE",
"155 367 CURVE SMOOTH",
"155 504 OFFCURVE",
"185 679 OFFCURVE",
"310 679 CURVE SMOOTH",
"434 679 OFFCURVE",
"465 504 OFFCURVE",
"465 367 CURVE SMOOTH",
"465 229 OFFCURVE",
"434 59 OFFCURVE",
"310 59 CURVE SMOOTH"
);
}
);
width = 620;
}
);
},
{
glyphname = one.lf;
layers = (
{
layerId = "EE746D13-63D7-48F9-B77E-C723CA6A668B";
paths = (
{
closed = 1;
nodes = (
"245 735 LINE",
"225 669 OFFCURVE",
"156 622 OFFCURVE",
"50 617 CURVE",
"50 562 LINE",
"101 553 OFFCURVE",
"161 554 OFFCURVE",
"213 577 CURVE",
"213 55 LINE",
"51 55 LINE",
"51 0 LINE",
"481 0 LINE",
"481 55 LINE",
"319 55 LINE",
"320 735 LINE"
);
}
);
width = 501;
}
);
},
{
glyphname = one_alt.lf;
layers = (
{
layerId = "EE746D13-63D7-48F9-B77E-C723CA6A668B";
paths = (
{
closed = 1;
nodes = (
"50 735 LINE",
"50 675 LINE",
"213 675 LINE",
"213 55 LINE",
"50 55 LINE",
"50 0 LINE",
"484 0 LINE",
"484 55 LINE",
"320 55 LINE",
"320 735 LINE"
);
}
);
width = 504;
}
);
leftMetricsKey = one;
rightMetricsKey = one;
},
{
glyphname = two.lf;
layers = (
{
layerId = "EE746D13-63D7-48F9-B77E-C723CA6A668B";
paths = (
{
closed = 1;
nodes = (
"521 119 OFFCURVE",
"484 91 OFFCURVE",
"443 91 CURVE SMOOTH",
"368 91 OFFCURVE",
"311 130 OFFCURVE",
"229 130 CURVE SMOOTH",
"182 130 OFFCURVE",
"148 118 OFFCURVE",
"126 96 CURVE",
"146 146 OFFCURVE",
"186 199 OFFCURVE",
"253 237 CURVE SMOOTH",
"356 296 OFFCURVE",
"543 380 OFFCURVE",
"543 548 CURVE SMOOTH",
"543 666 OFFCURVE",
"441 751 OFFCURVE",
"291 751 CURVE SMOOTH",
"154 751 OFFCURVE",
"51 650 OFFCURVE",
"51 569 CURVE SMOOTH",
"51 524 OFFCURVE",
"78 491 OFFCURVE",
"129 491 CURVE SMOOTH",
"174 491 OFFCURVE",
"206 525 OFFCURVE",
"206 562 CURVE SMOOTH",
"206 600 OFFCURVE",
"172 626 OFFCURVE",
"137 629 CURVE",
"148 649 OFFCURVE",
"205 685 OFFCURVE",
"275 685 CURVE SMOOTH",
"361 685 OFFCURVE",
"427 628 OFFCURVE",
"427 544 CURVE SMOOTH",
"427 400 OFFCURVE",
"287 341 OFFCURVE",
"218 299 CURVE SMOOTH",
"119 239 OFFCURVE",
"35 150 OFFCURVE",
"35 0 CURVE",
"117 0 LINE",
"117 43 OFFCURVE",
"146 65 OFFCURVE",
"178 65 CURVE SMOOTH",
"260 65 OFFCURVE",
"317 -14 OFFCURVE",
"428 -14 CURVE SMOOTH",
"524 -14 OFFCURVE",
"575 63 OFFCURVE",
"575 201 CURVE",
"521 201 LINE"
);
}
);
width = 630;
}
);
},
{
glyphname = two_alt.lf;
layers = (
{
guideLines = (
{
angle = 222.8631;
position = "{247, 153}";
},
{
angle = 42.9503;
position = "{158, 170}";
}
);
layerId = "EE746D13-63D7-48F9-B77E-C723CA6A668B";
paths = (
{
closed = 1;
nodes = (
"487 88 LINE",
"177 88 LINE",
"316 217 LINE SMOOTH",
"397 292 OFFCURVE",
"540 424 OFFCURVE",
"540 548 CURVE SMOOTH",
"540 686 OFFCURVE",
"438 751 OFFCURVE",
"304 751 CURVE SMOOTH",
"151 751 OFFCURVE",
"44 650 OFFCURVE",
"44 579 CURVE SMOOTH",
"44 534 OFFCURVE",
"71 491 OFFCURVE",
"122 491 CURVE SMOOTH",
"167 491 OFFCURVE",
"199 525 OFFCURVE",
"199 562 CURVE SMOOTH",
"199 600 OFFCURVE",
"165 626 OFFCURVE",
"130 629 CURVE",
"144 646 OFFCURVE",
"192 685 OFFCURVE",
"278 685 CURVE SMOOTH",
"368 685 OFFCURVE",
"424 628 OFFCURVE",
"424 524 CURVE SMOOTH",
"424 417 OFFCURVE",
"330 330 OFFCURVE",
"281 284 CURVE SMOOTH",
"35 55 LINE",
"35 0 LINE",
"556 0 LINE",
"583 176 LINE",
"536 181 LINE"
);
}
);
width = 638;
}
);
leftMetricsKey = two;
rightMetricsKey = two;
},
{
glyphname = three.lf;
layers = (
{
layerId = "EE746D13-63D7-48F9-B77E-C723CA6A668B";
paths = (
{
closed = 1;
nodes = (
"416 -14 OFFCURVE",
"528 72 OFFCURVE",
"528 194 CURVE SMOOTH",
"528 310 OFFCURVE",
"452 376 OFFCURVE",
"333 390 CURVE",
"432 410 OFFCURVE",
"498 478 OFFCURVE",
"498 566 CURVE SMOOTH",
"498 668 OFFCURVE",
"427 754 OFFCURVE",
"283 754 CURVE SMOOTH",
"136 754 OFFCURVE",
"60 662 OFFCURVE",
"60 574 CURVE SMOOTH",
"60 545 OFFCURVE",
"77 503 OFFCURVE",
"131 503 CURVE SMOOTH",
"175 503 OFFCURVE",
"202 531 OFFCURVE",
"202 574 CURVE SMOOTH",
"202 606 OFFCURVE",
"175 631 OFFCURVE",
"149 635 CURVE",
"158 658 OFFCURVE",
"198 688 OFFCURVE",
"260 688 CURVE SMOOTH",
"319 688 OFFCURVE",
"377 655 OFFCURVE",
"377 566 CURVE SMOOTH",
"377 458 OFFCURVE",
"299 411 OFFCURVE",
"193 406 CURVE",
"201 353 LINE",
"354 353 OFFCURVE",
"407 289 OFFCURVE",
"407 194 CURVE SMOOTH",
"407 92 OFFCURVE",
"339 52 OFFCURVE",
"260 52 CURVE SMOOTH",
"196 52 OFFCURVE",
"140 85 OFFCURVE",
"133 121 CURVE",
"158 128 OFFCURVE",
"176 156 OFFCURVE",
"176 188 CURVE SMOOTH",
"176 230 OFFCURVE",
"149 259 OFFCURVE",
"105 259 CURVE SMOOTH",
"51 259 OFFCURVE",
"34 213 OFFCURVE",
"34 188 CURVE SMOOTH",
"34 76 OFFCURVE",
"124 -14 OFFCURVE",
"279 -14 CURVE SMOOTH"
);
}
);
width = 571;
}
);
},
{
glyphname = four.lf;
layers = (
{
layerId = "EE746D13-63D7-48F9-B77E-C723CA6A668B";
paths = (
{
closed = 1;
nodes = (
"579 0 LINE",
"579 53 LINE",
"467 53 LINE",
"467 219 LINE",
"620 219 LINE",
"620 278 LINE",
"467 278 LINE",
"467 739 LINE",
"346 752 LINE",
"26 270 LINE",
"38 219 LINE",
"362 219 LINE",
"362 55 LINE",
"250 55 LINE",
"250 0 LINE"
);
},
{
closed = 1;
nodes = (
"362 665 LINE",
"362 278 LINE",
"106 278 LINE"
);
}
);
width = 636;
}
);
},
{
glyphname = five.lf;
layers = (
{
layerId = "EE746D13-63D7-48F9-B77E-C723CA6A668B";
paths = (
{
closed = 1;
nodes = (
"412 146 OFFCURVE",
"363 52 OFFCURVE",
"253 52 CURVE SMOOTH",
"182 52 OFFCURVE",
"135 87 OFFCURVE",
"127 121 CURVE",
"162 128 OFFCURVE",
"185 156 OFFCURVE",
"185 188 CURVE SMOOTH",
"185 230 OFFCURVE",
"158 259 OFFCURVE",
"114 259 CURVE SMOOTH",
"60 259 OFFCURVE",
"43 213 OFFCURVE",
"43 178 CURVE SMOOTH",
"43 86 OFFCURVE",
"110 -14 OFFCURVE",
"271 -14 CURVE SMOOTH",
"429 -14 OFFCURVE",
"533 96 OFFCURVE",
"533 247 CURVE SMOOTH",
"533 399 OFFCURVE",
"437 495 OFFCURVE",
"301 495 CURVE SMOOTH",
"213 495 OFFCURVE",
"157 465 OFFCURVE",
"143 455 CURVE",
"168 678 LINE",
"205 664 OFFCURVE",
"273 644 OFFCURVE",
"326 644 CURVE SMOOTH",
"391 644 OFFCURVE",
"455 669 OFFCURVE",
"507 726 CURVE",
"495 754 LINE",
"461 744 OFFCURVE",
"372 734 OFFCURVE",
"326 734 CURVE SMOOTH",
"240 734 OFFCURVE",
"198 743 OFFCURVE",
"137 754 CURVE",
"110 734 LINE",
"68 370 LINE",
"118 360 LINE",
"126 385 OFFCURVE",
"181 440 OFFCURVE",
"266 440 CURVE SMOOTH",
"363 440 OFFCURVE",
"412 364 OFFCURVE",
"412 241 CURVE SMOOTH"
);
}
);
width = 567;
}
);
},
{
glyphname = five_alt.lf;
layers = (
{
layerId = "EE746D13-63D7-48F9-B77E-C723CA6A668B";
paths = (
{
closed = 1;
nodes = (
"213 495 OFFCURVE",
"167 465 OFFCURVE",
"153 455 CURVE",
"186 652 LINE",
"475 652 LINE",
"512 808 LINE",
"465 813 LINE",
"417 740 LINE",
"131 740 LINE",
"71 381 LINE",
"128 368 LINE",
"136 385 OFFCURVE",
"191 440 OFFCURVE",
"266 440 CURVE SMOOTH",
"363 440 OFFCURVE",
"412 364 OFFCURVE",
"412 241 CURVE SMOOTH",
"412 146 OFFCURVE",
"363 52 OFFCURVE",
"253 52 CURVE SMOOTH",
"182 52 OFFCURVE",
"135 87 OFFCURVE",
"127 121 CURVE",
"162 128 OFFCURVE",
"185 156 OFFCURVE",
"185 188 CURVE SMOOTH",
"185 230 OFFCURVE",
"158 259 OFFCURVE",
"114 259 CURVE SMOOTH",
"60 259 OFFCURVE",
"43 213 OFFCURVE",
"43 178 CURVE SMOOTH",
"43 86 OFFCURVE",
"110 -14 OFFCURVE",
"271 -14 CURVE SMOOTH",
"429 -14 OFFCURVE",
"533 96 OFFCURVE",
"533 247 CURVE SMOOTH",
"533 399 OFFCURVE",
"437 495 OFFCURVE",
"301 495 CURVE SMOOTH"
);
}
);
width = 567;
}
);
leftMetricsKey = five;
rightMetricsKey = five;
},
{
glyphname = six.lf;
layers = (
{
layerId = "EE746D13-63D7-48F9-B77E-C723CA6A668B";
paths = (
{
closed = 1;
nodes = (
"426 -13 OFFCURVE",
"534 85 OFFCURVE",
"534 216 CURVE SMOOTH",
"534 359 OFFCURVE",
"439 448 OFFCURVE",
"310 448 CURVE SMOOTH",
"242 448 OFFCURVE",
"181 409 OFFCURVE",
"158 364 CURVE",
"158 493 OFFCURVE",
"206 685 OFFCURVE",
"346 685 CURVE SMOOTH",
"394 685 OFFCURVE",
"426 660 OFFCURVE",
"439 628 CURVE",
"408 626 OFFCURVE",
"373 598 OFFCURVE",
"373 560 CURVE SMOOTH",
"373 525 OFFCURVE",
"394 493 OFFCURVE",
"443 493 CURVE SMOOTH",
"488 493 OFFCURVE",
"515 534 OFFCURVE",
"515 572 CURVE SMOOTH",
"515 651 OFFCURVE",
"457 751 OFFCURVE",
"336 751 CURVE SMOOTH",
"152 751 OFFCURVE",
"43 551 OFFCURVE",
"43 324 CURVE SMOOTH",
"43 81 OFFCURVE",
"166 -13 OFFCURVE",
"290 -13 CURVE SMOOTH"
);
},
{
closed = 1;
nodes = (
"377 384 OFFCURVE",
"419 299 OFFCURVE",
"419 216 CURVE SMOOTH",
"419 122 OFFCURVE",
"367 53 OFFCURVE",
"295 53 CURVE SMOOTH",
"214 53 OFFCURVE",
"166 127 OFFCURVE",
"166 216 CURVE SMOOTH",
"166 295 OFFCURVE",
"219 384 OFFCURVE",
"300 384 CURVE SMOOTH"
);
}
);
width = 577;
}
);
},
{
glyphname = seven.lf;
layers = (
{
layerId = "EE746D13-63D7-48F9-B77E-C723CA6A668B";
paths = (
{
closed = 1;
nodes = (
"477 725 OFFCURVE",
"459 703 OFFCURVE",
"417 703 CURVE SMOOTH",
"343 703 OFFCURVE",
"329 758 OFFCURVE",
"230 758 CURVE SMOOTH",
"168 758 OFFCURVE",
"124 728 OFFCURVE",
"97 685 CURVE",
"97 744 LINE",
"43 744 LINE",
"43 486 LINE",
"97 486 LINE",
"97 639 OFFCURVE",
"164 663 OFFCURVE",
"205 663 CURVE SMOOTH",
"260 663 OFFCURVE",
"279 628 OFFCURVE",
"351 628 CURVE SMOOTH",
"402 628 OFFCURVE",
"429 644 OFFCURVE",
"451 659 CURVE",
"419 586 OFFCURVE",
"334 501 OFFCURVE",
"273 409 CURVE SMOOTH",
"193 289 OFFCURVE",
"163 176 OFFCURVE",
"163 51 CURVE SMOOTH",
"163 7 OFFCURVE",
"189 -14 OFFCURVE",
"228 -14 CURVE SMOOTH",
"267 -14 OFFCURVE",
"293 7 OFFCURVE",
"293 51 CURVE SMOOTH",
"293 174 OFFCURVE",
"308 277 OFFCURVE",
"360 383 CURVE SMOOTH",
"399 462 OFFCURVE",
"491 586 OFFCURVE",
"521 663 CURVE SMOOTH",
"535 699 OFFCURVE",
"539 735 OFFCURVE",
"539 744 CURVE",
"484 744 LINE"
);
}
);
width = 547;
}
);
},
{
glyphname = seven_alt.lf;
layers = (
{
layerId = "EE746D13-63D7-48F9-B77E-C723CA6A668B";
paths = (
{
closed = 1;
nodes = (
"69 749 LINE",
"69 742 LINE",
"43 573 LINE",
"90 568 LINE",
"138 659 LINE",
"458 659 LINE",
"410 593 OFFCURVE",
"341 501 OFFCURVE",
"280 409 CURVE SMOOTH",
"200 289 OFFCURVE",
"170 176 OFFCURVE",
"170 51 CURVE SMOOTH",
"170 7 OFFCURVE",
"196 -14 OFFCURVE",
"235 -14 CURVE SMOOTH",
"274 -14 OFFCURVE",
"300 7 OFFCURVE",
"300 51 CURVE SMOOTH",
"300 174 OFFCURVE",
"315 277 OFFCURVE",
"367 383 CURVE SMOOTH",
"406 462 OFFCURVE",
"488 588 OFFCURVE",
"538 663 CURVE",
"538 749 LINE"
);
}
);
width = 546;
}
);
leftMetricsKey = seven;
rightMetricsKey = seven;
},
{
glyphname = eight.lf;
layers = (
{
layerId = "EE746D13-63D7-48F9-B77E-C723CA6A668B";
paths = (
{
closed = 1;
nodes = (
"115 360 OFFCURVE",
"43 279 OFFCURVE",
"43 193 CURVE SMOOTH",
"43 94 OFFCURVE",
"127 -14 OFFCURVE",
"300 -14 CURVE SMOOTH",
"467 -14 OFFCURVE",
"547 98 OFFCURVE",
"547 193 CURVE SMOOTH",
"547 286 OFFCURVE",
"490 362 OFFCURVE",
"386 392 CURVE",
"453 424 OFFCURVE",
"515 476 OFFCURVE",
"515 569 CURVE SMOOTH",
"515 673 OFFCURVE",
"430 750 OFFCURVE",
"292 750 CURVE SMOOTH",
"162 750 OFFCURVE",
"77 662 OFFCURVE",
"77 559 CURVE SMOOTH",
"77 463 OFFCURVE",
"130 409 OFFCURVE",
"204 378 CURVE"
);
},
{
closed = 1;
nodes = (
"362 318 OFFCURVE",
"426 265 OFFCURVE",
"426 173 CURVE SMOOTH",
"426 112 OFFCURVE",
"384 41 OFFCURVE",
"302 41 CURVE SMOOTH",
"215 41 OFFCURVE",
"164 100 OFFCURVE",
"164 173 CURVE SMOOTH",
"164 275 OFFCURVE",
"228 325 OFFCURVE",
"268 342 CURVE"
);
},
{
closed = 1;
nodes = (
"249 445 OFFCURVE",
"187 493 OFFCURVE",
"187 579 CURVE SMOOTH",
"187 647 OFFCURVE",
"232 695 OFFCURVE",
"292 695 CURVE SMOOTH",
"369 695 OFFCURVE",
"407 637 OFFCURVE",
"407 569 CURVE SMOOTH",
"407 492 OFFCURVE",
"364 444 OFFCURVE",
"330 424 CURVE"
);
}
);
width = 581;
}
);
},
{
glyphname = nine.lf;
layers = (
{
layerId = "EE746D13-63D7-48F9-B77E-C723CA6A668B";
paths = (
{
closed = 1;
nodes = (
"151 754 OFFCURVE",
"43 656 OFFCURVE",
"43 525 CURVE SMOOTH",
"43 382 OFFCURVE",
"138 293 OFFCURVE",
"267 293 CURVE SMOOTH",
"335 293 OFFCURVE",
"380 329 OFFCURVE",
"419 377 CURVE",
"419 258 OFFCURVE",
"391 52 OFFCURVE",
"241 52 CURVE SMOOTH",
"203 52 OFFCURVE",
"151 67 OFFCURVE",
"138 109 CURVE",
"169 111 OFFCURVE",
"204 139 OFFCURVE",
"204 177 CURVE SMOOTH",
"204 212 OFFCURVE",
"183 244 OFFCURVE",
"134 244 CURVE SMOOTH",
"89 244 OFFCURVE",
"62 203 OFFCURVE",
"62 165 CURVE SMOOTH",
"62 86 OFFCURVE",
"120 -14 OFFCURVE",
"251 -14 CURVE SMOOTH",
"445 -14 OFFCURVE",
"534 190 OFFCURVE",
"534 417 CURVE SMOOTH",
"534 660 OFFCURVE",
"411 754 OFFCURVE",
"287 754 CURVE SMOOTH"
);
},
{
closed = 1;
nodes = (
"200 357 OFFCURVE",
"158 442 OFFCURVE",
"158 525 CURVE SMOOTH",
"158 619 OFFCURVE",
"210 688 OFFCURVE",
"282 688 CURVE SMOOTH",
"363 688 OFFCURVE",
"411 614 OFFCURVE",
"411 525 CURVE SMOOTH",
"411 446 OFFCURVE",
"358 357 OFFCURVE",
"277 357 CURVE SMOOTH"
);
}
);
width = 577;
}
);
},
{
glyphname = zero.osf;
layers = (
{
layerId = "EE746D13-63D7-48F9-B77E-C723CA6A668B";
paths = (
{
closed = 1;
nodes = (
"493 -11 OFFCURVE",
"586 142 OFFCURVE",
"586 312 CURVE SMOOTH",
"586 482 OFFCURVE",
"493 634 OFFCURVE",
"310 634 CURVE SMOOTH",
"127 634 OFFCURVE",
"34 482 OFFCURVE",
"34 312 CURVE SMOOTH",
"34 142 OFFCURVE",
"127 -11 OFFCURVE",
"310 -11 CURVE SMOOTH"
);
},
{
closed = 1;
nodes = (
"198 59 OFFCURVE",
"155 189 OFFCURVE",
"155 312 CURVE SMOOTH",
"155 436 OFFCURVE",
"198 568 OFFCURVE",
"310 568 CURVE SMOOTH",
"422 568 OFFCURVE",
"465 436 OFFCURVE",
"465 312 CURVE SMOOTH",
"465 187 OFFCURVE",
"422 59 OFFCURVE",
"310 59 CURVE SMOOTH"
);
}
);
width = 620;
}
);
},
{
glyphname = one.osf;
layers = (
{
layerId = "EE746D13-63D7-48F9-B77E-C723CA6A668B";
paths = (
{
closed = 1;
nodes = (
"241 620 LINE",
"221 554 OFFCURVE",
"156 507 OFFCURVE",
"50 502 CURVE",
"50 447 LINE",
"101 438 OFFCURVE",
"157 439 OFFCURVE",
"209 462 CURVE",
"209 55 LINE",
"51 55 LINE",
"51 0 LINE",
"474 0 LINE",
"474 55 LINE",
"315 55 LINE",
"316 620 LINE"
);
}
);
width = 494;
}
);
},
{
glyphname = one_alt.osf;
layers = (
{
layerId = "EE746D13-63D7-48F9-B77E-C723CA6A668B";
paths = (
{
closed = 1;
nodes = (
"50 616 LINE",
"50 556 LINE",
"208 556 LINE",
"208 55 LINE",
"50 55 LINE",
"50 0 LINE",
"474 0 LINE",
"474 55 LINE",
"315 55 LINE",
"315 616 LINE"
);
}
);
width = 494;
}
);
leftMetricsKey = one;
rightMetricsKey = one;
},
{
glyphname = two.osf;
layers = (
{
layerId = "EE746D13-63D7-48F9-B77E-C723CA6A668B";
paths = (
{
closed = 1;
nodes = (
"491 119 OFFCURVE",
"454 91 OFFCURVE",
"413 91 CURVE SMOOTH",
"338 91 OFFCURVE",
"311 130 OFFCURVE",
"229 130 CURVE SMOOTH",
"182 130 OFFCURVE",
"148 118 OFFCURVE",
"126 96 CURVE",
"146 146 OFFCURVE",
"187 169 OFFCURVE",
"253 197 CURVE SMOOTH",
"363 243 OFFCURVE",
"513 313 OFFCURVE",
"513 441 CURVE SMOOTH",
"513 549 OFFCURVE",
"428 634 OFFCURVE",
"278 634 CURVE SMOOTH",
"141 634 OFFCURVE",
"51 533 OFFCURVE",
"51 452 CURVE SMOOTH",
"51 407 OFFCURVE",
"78 374 OFFCURVE",
"129 374 CURVE SMOOTH",
"174 374 OFFCURVE",
"206 408 OFFCURVE",
"206 445 CURVE SMOOTH",
"206 483 OFFCURVE",
"172 509 OFFCURVE",
"137 512 CURVE",
"148 532 OFFCURVE",
"192 568 OFFCURVE",
"262 568 CURVE SMOOTH",
"348 568 OFFCURVE",
"397 511 OFFCURVE",
"397 437 CURVE SMOOTH",
"397 333 OFFCURVE",
"290 290 OFFCURVE",
"218 254 CURVE SMOOTH",
"121 205 OFFCURVE",
"35 150 OFFCURVE",
"35 0 CURVE",
"117 0 LINE",
"117 43 OFFCURVE",
"146 65 OFFCURVE",
"178 65 CURVE SMOOTH",
"260 65 OFFCURVE",
"287 -14 OFFCURVE",
"398 -14 CURVE SMOOTH",
"494 -14 OFFCURVE",
"545 63 OFFCURVE",
"545 201 CURVE",
"491 201 LINE"
);
}
);
width = 600;
}
);
},
{
glyphname = two_alt.osf;
layers = (
{
layerId = "EE746D13-63D7-48F9-B77E-C723CA6A668B";
paths = (
{
closed = 1;
nodes = (
"473 88 LINE",
"187 88 LINE",
"316 177 LINE SMOOTH",
"416 247 OFFCURVE",
"526 323 OFFCURVE",
"526 441 CURVE SMOOTH",
"526 559 OFFCURVE",
"441 634 OFFCURVE",
"291 634 CURVE SMOOTH",
"154 634 OFFCURVE",
"44 543 OFFCURVE",
"44 472 CURVE SMOOTH",
"44 427 OFFCURVE",
"71 384 OFFCURVE",
"122 384 CURVE SMOOTH",
"167 384 OFFCURVE",
"199 418 OFFCURVE",
"199 455 CURVE SMOOTH",
"199 493 OFFCURVE",
"165 519 OFFCURVE",
"130 522 CURVE",
"144 539 OFFCURVE",
"195 568 OFFCURVE",
"265 568 CURVE SMOOTH",
"351 568 OFFCURVE",
"410 511 OFFCURVE",
"410 427 CURVE SMOOTH",
"410 328 OFFCURVE",
"345 285 OFFCURVE",
"281 234 CURVE",
"35 55 LINE",
"35 0 LINE",
"542 0 LINE",
"569 176 LINE",
"522 181 LINE"
);
}
);
width = 624;
}
);
leftMetricsKey = two;
rightMetricsKey = two;
},
{
glyphname = three.osf;
layers = (
{
layerId = "EE746D13-63D7-48F9-B77E-C723CA6A668B";
paths = (
{
closed = 1;
nodes = (
"416 -134 OFFCURVE",
"528 -48 OFFCURVE",
"528 74 CURVE SMOOTH",
"528 190 OFFCURVE",
"452 256 OFFCURVE",
"333 270 CURVE",
"432 290 OFFCURVE",
"498 358 OFFCURVE",
"498 446 CURVE SMOOTH",
"498 548 OFFCURVE",
"427 634 OFFCURVE",
"283 634 CURVE SMOOTH",
"136 634 OFFCURVE",
"60 542 OFFCURVE",
"60 454 CURVE SMOOTH",
"60 425 OFFCURVE",
"77 383 OFFCURVE",
"131 383 CURVE SMOOTH",
"175 383 OFFCURVE",
"202 411 OFFCURVE",
"202 454 CURVE SMOOTH",
"202 486 OFFCURVE",
"175 511 OFFCURVE",
"149 515 CURVE",
"158 538 OFFCURVE",
"198 568 OFFCURVE",
"260 568 CURVE SMOOTH",
"319 568 OFFCURVE",
"377 535 OFFCURVE",
"377 446 CURVE SMOOTH",
"377 338 OFFCURVE",
"299 291 OFFCURVE",
"193 286 CURVE",
"201 233 LINE",
"354 233 OFFCURVE",
"407 169 OFFCURVE",
"407 74 CURVE SMOOTH",
"407 -28 OFFCURVE",
"339 -68 OFFCURVE",
"260 -68 CURVE SMOOTH",
"196 -68 OFFCURVE",
"140 -35 OFFCURVE",
"133 1 CURVE",
"158 8 OFFCURVE",
"176 36 OFFCURVE",
"176 68 CURVE SMOOTH",
"176 110 OFFCURVE",
"149 139 OFFCURVE",
"105 139 CURVE SMOOTH",
"51 139 OFFCURVE",
"34 93 OFFCURVE",
"34 68 CURVE SMOOTH",
"34 -44 OFFCURVE",
"124 -134 OFFCURVE",
"279 -134 CURVE SMOOTH"
);
}
);
width = 571;
}
);
},
{
glyphname = four.osf;
layers = (
{
guideLines = (
{
angle = 180;
position = "{415, -118}";
}
);
layerId = "EE746D13-63D7-48F9-B77E-C723CA6A668B";
paths = (
{
closed = 1;
nodes = (
"579 -118 LINE",
"579 -65 LINE",
"467 -65 LINE",
"467 101 LINE",
"620 101 LINE",
"620 160 LINE",
"467 160 LINE",
"467 621 LINE",
"346 634 LINE",
"26 152 LINE",
"38 101 LINE",
"362 101 LINE",
"362 -63 LINE",
"250 -63 LINE",
"250 -118 LINE"
);
},
{
closed = 1;
nodes = (
"362 547 LINE",
"362 160 LINE",
"106 160 LINE"
);
}
);
width = 636;
}
);
},
{
glyphname = five.osf;
layers = (
{
layerId = "EE746D13-63D7-48F9-B77E-C723CA6A668B";
paths = (
{
closed = 1;
nodes = (
"412 26 OFFCURVE",
"363 -68 OFFCURVE",
"253 -68 CURVE SMOOTH",
"182 -68 OFFCURVE",
"135 -33 OFFCURVE",
"127 1 CURVE",
"162 8 OFFCURVE",
"185 36 OFFCURVE",
"185 68 CURVE SMOOTH",
"185 110 OFFCURVE",
"158 139 OFFCURVE",
"114 139 CURVE SMOOTH",
"60 139 OFFCURVE",
"43 93 OFFCURVE",
"43 58 CURVE SMOOTH",
"43 -34 OFFCURVE",
"110 -134 OFFCURVE",
"271 -134 CURVE SMOOTH",
"429 -134 OFFCURVE",
"533 -24 OFFCURVE",
"533 127 CURVE SMOOTH",
"533 279 OFFCURVE",
"437 375 OFFCURVE",
"301 375 CURVE SMOOTH",
"213 375 OFFCURVE",
"157 345 OFFCURVE",
"143 335 CURVE",
"168 558 LINE",
"205 544 OFFCURVE",
"273 524 OFFCURVE",
"326 524 CURVE SMOOTH",
"391 524 OFFCURVE",
"455 549 OFFCURVE",
"507 606 CURVE",
"495 634 LINE",
"461 624 OFFCURVE",
"372 614 OFFCURVE",
"326 614 CURVE SMOOTH",
"240 614 OFFCURVE",
"198 623 OFFCURVE",
"137 634 CURVE",
"110 614 LINE",
"68 250 LINE",
"118 240 LINE",
"126 265 OFFCURVE",
"181 320 OFFCURVE",
"266 320 CURVE SMOOTH",
"363 320 OFFCURVE",
"412 244 OFFCURVE",
"412 121 CURVE SMOOTH"
);
}
);
width = 567;
}
);
},
{
glyphname = five_alt.osf;
layers = (
{
layerId = "EE746D13-63D7-48F9-B77E-C723CA6A668B";
paths = (
{
closed = 1;
nodes = (
"213 375 OFFCURVE",
"167 345 OFFCURVE",
"153 335 CURVE",
"186 532 LINE",
"475 532 LINE",
"512 688 LINE",
"465 693 LINE",
"417 620 LINE",
"131 620 LINE",
"71 261 LINE",
"128 248 LINE",
"136 265 OFFCURVE",
"191 320 OFFCURVE",
"266 320 CURVE SMOOTH",
"363 320 OFFCURVE",
"412 244 OFFCURVE",
"412 121 CURVE SMOOTH",
"412 26 OFFCURVE",
"363 -68 OFFCURVE",
"253 -68 CURVE SMOOTH",
"182 -68 OFFCURVE",
"135 -33 OFFCURVE",
"127 1 CURVE",
"162 8 OFFCURVE",
"185 36 OFFCURVE",
"185 68 CURVE SMOOTH",
"185 110 OFFCURVE",
"158 139 OFFCURVE",
"114 139 CURVE SMOOTH",
"60 139 OFFCURVE",
"43 93 OFFCURVE",
"43 58 CURVE SMOOTH",
"43 -34 OFFCURVE",
"110 -134 OFFCURVE",
"271 -134 CURVE SMOOTH",
"429 -134 OFFCURVE",
"533 -24 OFFCURVE",
"533 127 CURVE SMOOTH",
"533 279 OFFCURVE",
"437 375 OFFCURVE",
"301 375 CURVE SMOOTH"
);
}
);
width = 567;
}
);
leftMetricsKey = five;
rightMetricsKey = five;
},
{
glyphname = six.osf;
layers = (
{
layerId = "EE746D13-63D7-48F9-B77E-C723CA6A668B";
paths = (
{
closed = 1;
nodes = (
"426 -13 OFFCURVE",
"534 85 OFFCURVE",
"534 216 CURVE SMOOTH",
"534 359 OFFCURVE",
"439 448 OFFCURVE",
"310 448 CURVE SMOOTH",
"242 448 OFFCURVE",
"181 409 OFFCURVE",
"158 364 CURVE",
"158 493 OFFCURVE",
"206 685 OFFCURVE",
"346 685 CURVE SMOOTH",
"394 685 OFFCURVE",
"426 660 OFFCURVE",
"439 628 CURVE",
"408 626 OFFCURVE",
"373 598 OFFCURVE",
"373 560 CURVE SMOOTH",
"373 525 OFFCURVE",
"394 493 OFFCURVE",
"443 493 CURVE SMOOTH",
"488 493 OFFCURVE",
"515 534 OFFCURVE",
"515 572 CURVE SMOOTH",
"515 651 OFFCURVE",
"457 751 OFFCURVE",
"336 751 CURVE SMOOTH",
"152 751 OFFCURVE",
"43 551 OFFCURVE",
"43 324 CURVE SMOOTH",
"43 81 OFFCURVE",
"166 -13 OFFCURVE",
"290 -13 CURVE SMOOTH"
);
},
{
closed = 1;
nodes = (
"377 384 OFFCURVE",
"419 299 OFFCURVE",
"419 216 CURVE SMOOTH",
"419 122 OFFCURVE",
"367 53 OFFCURVE",
"295 53 CURVE SMOOTH",
"214 53 OFFCURVE",
"166 127 OFFCURVE",
"166 216 CURVE SMOOTH",
"166 295 OFFCURVE",
"219 384 OFFCURVE",
"300 384 CURVE SMOOTH"
);
}
);
width = 577;
}
);
},
{
glyphname = seven.osf;
layers = (
{
layerId = "EE746D13-63D7-48F9-B77E-C723CA6A668B";
paths = (
{
closed = 1;
nodes = (
"477 601 OFFCURVE",
"459 579 OFFCURVE",
"417 579 CURVE SMOOTH",
"343 579 OFFCURVE",
"329 634 OFFCURVE",
"230 634 CURVE SMOOTH",
"168 634 OFFCURVE",
"124 604 OFFCURVE",
"97 561 CURVE",
"97 620 LINE",
"43 620 LINE",
"43 362 LINE",
"97 362 LINE",
"97 515 OFFCURVE",
"164 539 OFFCURVE",
"205 539 CURVE SMOOTH",
"260 539 OFFCURVE",
"279 504 OFFCURVE",
"351 504 CURVE SMOOTH",
"402 504 OFFCURVE",
"429 520 OFFCURVE",
"451 535 CURVE",
"419 462 OFFCURVE",
"334 377 OFFCURVE",
"273 285 CURVE SMOOTH",
"193 165 OFFCURVE",
"163 52 OFFCURVE",
"163 -73 CURVE SMOOTH",
"163 -117 OFFCURVE",
"189 -138 OFFCURVE",
"228 -138 CURVE SMOOTH",
"267 -138 OFFCURVE",
"293 -117 OFFCURVE",
"293 -73 CURVE SMOOTH",
"293 50 OFFCURVE",
"307 153 OFFCURVE",
"360 259 CURVE SMOOTH",
"399 338 OFFCURVE",
"490 462 OFFCURVE",
"521 539 CURVE SMOOTH",
"535 575 OFFCURVE",
"539 611 OFFCURVE",
"539 620 CURVE",
"484 620 LINE"
);
}
);
width = 547;
}
);
},
{
glyphname = seven_alt.osf;
layers = (
{
layerId = "EE746D13-63D7-48F9-B77E-C723CA6A668B";
paths = (
{
closed = 1;
nodes = (
"69 620 LINE",
"69 613 LINE",
"43 444 LINE",
"90 439 LINE",
"138 530 LINE",
"458 530 LINE",
"410 464 OFFCURVE",
"341 372 OFFCURVE",
"280 280 CURVE SMOOTH",
"200 160 OFFCURVE",
"170 47 OFFCURVE",
"170 -78 CURVE SMOOTH",
"170 -122 OFFCURVE",
"196 -143 OFFCURVE",
"235 -143 CURVE SMOOTH",
"274 -143 OFFCURVE",
"300 -122 OFFCURVE",
"300 -78 CURVE SMOOTH",
"300 45 OFFCURVE",
"315 148 OFFCURVE",
"367 254 CURVE SMOOTH",
"406 333 OFFCURVE",
"488 459 OFFCURVE",
"538 534 CURVE",
"538 620 LINE"
);
}
);
width = 546;
}
);
leftMetricsKey = seven;
rightMetricsKey = seven;
},
{
glyphname = eight.osf;
layers = (
{
layerId = "EE746D13-63D7-48F9-B77E-C723CA6A668B";
paths = (
{
closed = 1;
nodes = (
"115 360 OFFCURVE",
"43 279 OFFCURVE",
"43 193 CURVE SMOOTH",
"43 94 OFFCURVE",
"127 -14 OFFCURVE",
"300 -14 CURVE SMOOTH",
"467 -14 OFFCURVE",
"547 98 OFFCURVE",
"547 193 CURVE SMOOTH",
"547 286 OFFCURVE",
"490 362 OFFCURVE",
"386 392 CURVE",
"453 424 OFFCURVE",
"515 476 OFFCURVE",
"515 569 CURVE SMOOTH",
"515 673 OFFCURVE",
"430 750 OFFCURVE",
"292 750 CURVE SMOOTH",
"162 750 OFFCURVE",
"77 662 OFFCURVE",
"77 559 CURVE SMOOTH",
"77 463 OFFCURVE",
"130 409 OFFCURVE",
"204 378 CURVE"
);
},
{
closed = 1;
nodes = (
"362 318 OFFCURVE",
"426 265 OFFCURVE",
"426 173 CURVE SMOOTH",
"426 112 OFFCURVE",
"384 41 OFFCURVE",
"302 41 CURVE SMOOTH",
"215 41 OFFCURVE",
"164 100 OFFCURVE",
"164 173 CURVE SMOOTH",
"164 275 OFFCURVE",
"228 325 OFFCURVE",
"268 342 CURVE"
);
},
{
closed = 1;
nodes = (
"249 445 OFFCURVE",
"187 493 OFFCURVE",
"187 579 CURVE SMOOTH",
"187 647 OFFCURVE",
"232 695 OFFCURVE",
"292 695 CURVE SMOOTH",
"369 695 OFFCURVE",
"407 637 OFFCURVE",
"407 569 CURVE SMOOTH",
"407 492 OFFCURVE",
"364 444 OFFCURVE",
"330 424 CURVE"
);
}
);
width = 581;
}
);
},
{
glyphname = nine.osf;
layers = (
{
guideLines = (
{
angle = 90;
position = "{587, 1055}";
}
);
layerId = "EE746D13-63D7-48F9-B77E-C723CA6A668B";
paths = (
{
closed = 1;
nodes = (
"151 634 OFFCURVE",
"43 536 OFFCURVE",
"43 405 CURVE SMOOTH",
"43 262 OFFCURVE",
"138 173 OFFCURVE",
"267 173 CURVE SMOOTH",
"335 173 OFFCURVE",
"380 209 OFFCURVE",
"419 257 CURVE",
"419 138 OFFCURVE",
"391 -68 OFFCURVE",
"241 -68 CURVE SMOOTH",
"203 -68 OFFCURVE",
"151 -53 OFFCURVE",
"138 -11 CURVE",
"169 -9 OFFCURVE",
"204 19 OFFCURVE",
"204 57 CURVE SMOOTH",
"204 92 OFFCURVE",
"183 124 OFFCURVE",
"134 124 CURVE SMOOTH",
"89 124 OFFCURVE",
"62 83 OFFCURVE",
"62 45 CURVE SMOOTH",
"62 -34 OFFCURVE",
"120 -134 OFFCURVE",
"251 -134 CURVE SMOOTH",
"445 -134 OFFCURVE",
"534 70 OFFCURVE",
"534 297 CURVE SMOOTH",
"534 540 OFFCURVE",
"411 634 OFFCURVE",
"287 634 CURVE SMOOTH"
);
},
{
closed = 1;
nodes = (
"200 237 OFFCURVE",
"158 322 OFFCURVE",
"158 405 CURVE SMOOTH",
"158 499 OFFCURVE",
"210 568 OFFCURVE",
"282 568 CURVE SMOOTH",
"363 568 OFFCURVE",
"411 494 OFFCURVE",
"411 405 CURVE SMOOTH",
"411 326 OFFCURVE",
"358 237 OFFCURVE",
"277 237 CURVE SMOOTH"
);
}
);
width = 577;
}
);
},
{
glyphname = zero.tf;
layers = (
{
layerId = "EE746D13-63D7-48F9-B77E-C723CA6A668B";
paths = (
{
closed = 1;
nodes = (
"475 -11 OFFCURVE",
"546 184 OFFCURVE",
"546 367 CURVE SMOOTH",
"546 550 OFFCURVE",
"475 745 OFFCURVE",
"290 745 CURVE SMOOTH",
"104 745 OFFCURVE",
"34 550 OFFCURVE",
"34 367 CURVE SMOOTH",
"34 184 OFFCURVE",
"104 -11 OFFCURVE",
"290 -11 CURVE SMOOTH"
);
},
{
closed = 1;
nodes = (
"175 59 OFFCURVE",
"155 231 OFFCURVE",
"155 367 CURVE SMOOTH",
"155 504 OFFCURVE",
"175 679 OFFCURVE",
"290 679 CURVE SMOOTH",
"404 679 OFFCURVE",
"425 504 OFFCURVE",
"425 367 CURVE SMOOTH",
"425 229 OFFCURVE",
"404 59 OFFCURVE",
"290 59 CURVE SMOOTH"
);
}
);
width = 580;
}
);
},
{
glyphname = one.tf;
layers = (
{
layerId = "EE746D13-63D7-48F9-B77E-C723CA6A668B";
paths = (
{
closed = 1;
nodes = (
"294 735 LINE",
"274 669 OFFCURVE",
"183 622 OFFCURVE",
"60 617 CURVE",
"60 562 LINE",
"111 553 OFFCURVE",
"210 554 OFFCURVE",
"262 577 CURVE",
"262 55 LINE",
"61 55 LINE",
"61 0 LINE",
"570 0 LINE",
"570 55 LINE",
"368 55 LINE",
"369 735 LINE"
);
}
);
width = 580;
}
);
},
{
glyphname = one_alt.tf;
layers = (
{
layerId = "EE746D13-63D7-48F9-B77E-C723CA6A668B";
paths = (
{
closed = 1;
nodes = (
"80 735 LINE",
"80 675 LINE",
"261 675 LINE",
"261 55 LINE",
"60 55 LINE",
"60 0 LINE",
"570 0 LINE",
"570 55 LINE",
"368 55 LINE",
"368 735 LINE"
);
}
);
width = 580;
}
);
leftMetricsKey = one.tf;
rightMetricsKey = one.tf;
},
{
glyphname = two.tf;
layers = (
{
layerId = "EE746D13-63D7-48F9-B77E-C723CA6A668B";
paths = (
{
closed = 1;
nodes = (
"486 119 OFFCURVE",
"449 91 OFFCURVE",
"408 91 CURVE SMOOTH",
"343 91 OFFCURVE",
"306 130 OFFCURVE",
"234 130 CURVE SMOOTH",
"187 130 OFFCURVE",
"153 118 OFFCURVE",
"131 96 CURVE",
"151 146 OFFCURVE",
"193 196 OFFCURVE",
"258 237 CURVE SMOOTH",
"351 296 OFFCURVE",
"508 390 OFFCURVE",
"508 548 CURVE SMOOTH",
"508 666 OFFCURVE",
"409 751 OFFCURVE",
"271 751 CURVE SMOOTH",
"136 751 OFFCURVE",
"46 650 OFFCURVE",
"46 569 CURVE SMOOTH",
"46 524 OFFCURVE",
"73 491 OFFCURVE",
"124 491 CURVE SMOOTH",
"169 491 OFFCURVE",
"201 525 OFFCURVE",
"201 562 CURVE SMOOTH",
"201 600 OFFCURVE",
"167 626 OFFCURVE",
"132 629 CURVE",
"143 649 OFFCURVE",
"192 685 OFFCURVE",
"250 685 CURVE SMOOTH",
"324 685 OFFCURVE",
"392 628 OFFCURVE",
"392 544 CURVE SMOOTH",
"392 400 OFFCURVE",
"282 341 OFFCURVE",
"223 299 CURVE SMOOTH",
"129 232 OFFCURVE",
"40 150 OFFCURVE",
"40 0 CURVE",
"122 0 LINE",
"122 43 OFFCURVE",
"151 65 OFFCURVE",
"183 65 CURVE SMOOTH",
"255 65 OFFCURVE",
"292 -14 OFFCURVE",
"393 -14 CURVE SMOOTH",
"489 -14 OFFCURVE",
"540 63 OFFCURVE",
"540 201 CURVE",
"486 201 LINE"
);
}
);
width = 580;
}
);
},
{
glyphname = two_alt.tf;
layers = (
{
guideLines = (
{
angle = 47.07;
position = "{227, 153}";
},
{
angle = 47.07;
position = "{126, 153}";
}
);
layerId = "EE746D13-63D7-48F9-B77E-C723CA6A668B";
paths = (
{
closed = 1;
nodes = (
"429 88 LINE",
"167 88 LINE",
"287 217 LINE SMOOTH",
"362 298 OFFCURVE",
"492 436 OFFCURVE",
"492 558 CURVE SMOOTH",
"492 686 OFFCURVE",
"394 751 OFFCURVE",
"275 751 CURVE SMOOTH",
"122 751 OFFCURVE",
"44 650 OFFCURVE",
"44 579 CURVE SMOOTH",
"44 534 OFFCURVE",
"71 491 OFFCURVE",
"122 491 CURVE SMOOTH",
"167 491 OFFCURVE",
"199 525 OFFCURVE",
"199 562 CURVE SMOOTH",
"199 600 OFFCURVE",
"165 626 OFFCURVE",
"130 629 CURVE",
"144 646 OFFCURVE",
"182 685 OFFCURVE",
"259 685 CURVE SMOOTH",
"324 685 OFFCURVE",
"376 638 OFFCURVE",
"376 554 CURVE SMOOTH",
"376 437 OFFCURVE",
"297 337 OFFCURVE",
"190 222 CURVE SMOOTH",
"35 55 LINE",
"35 0 LINE",
"498 0 LINE",
"525 176 LINE",
"478 181 LINE"
);
}
);
width = 580;
}
);
leftMetricsKey = two_alt.lf;
rightMetricsKey = two_alt.lf;
},
{
glyphname = three.tf;
layers = (
{
layerId = "EE746D13-63D7-48F9-B77E-C723CA6A668B";
paths = (
{
closed = 1;
nodes = (
"420 -14 OFFCURVE",
"537 72 OFFCURVE",
"537 194 CURVE SMOOTH",
"537 310 OFFCURVE",
"456 376 OFFCURVE",
"337 390 CURVE",
"436 410 OFFCURVE",
"507 478 OFFCURVE",
"507 566 CURVE SMOOTH",
"507 668 OFFCURVE",
"435 754 OFFCURVE",
"287 754 CURVE SMOOTH",
"136 754 OFFCURVE",
"60 662 OFFCURVE",
"60 574 CURVE SMOOTH",
"60 545 OFFCURVE",
"77 503 OFFCURVE",
"131 503 CURVE SMOOTH",
"175 503 OFFCURVE",
"202 531 OFFCURVE",
"202 574 CURVE SMOOTH",
"202 606 OFFCURVE",
"175 631 OFFCURVE",
"149 635 CURVE",
"158 658 OFFCURVE",
"198 688 OFFCURVE",
"264 688 CURVE SMOOTH",
"327 688 OFFCURVE",
"386 655 OFFCURVE",
"386 566 CURVE SMOOTH",
"386 458 OFFCURVE",
"303 411 OFFCURVE",
"197 406 CURVE",
"205 353 LINE",
"358 353 OFFCURVE",
"416 289 OFFCURVE",
"416 194 CURVE SMOOTH",
"416 92 OFFCURVE",
"343 52 OFFCURVE",
"264 52 CURVE SMOOTH",
"200 52 OFFCURVE",
"140 85 OFFCURVE",
"133 121 CURVE",
"158 128 OFFCURVE",
"176 156 OFFCURVE",
"176 188 CURVE SMOOTH",
"176 230 OFFCURVE",
"149 259 OFFCURVE",
"105 259 CURVE SMOOTH",
"51 259 OFFCURVE",
"34 213 OFFCURVE",
"34 188 CURVE SMOOTH",
"34 76 OFFCURVE",
"128 -14 OFFCURVE",
"283 -14 CURVE SMOOTH"
);
}
);
width = 580;
}
);
},
{
glyphname = four.tf;
layers = (
{
guideLines = (
{
angle = 270;
position = "{441, 113}";
}
);
layerId = "EE746D13-63D7-48F9-B77E-C723CA6A668B";
paths = (
{
closed = 1;
nodes = (
"554 0 LINE",
"554 53 LINE",
"442 53 LINE",
"442 219 LINE",
"554 219 LINE",
"554 278 LINE",
"442 278 LINE",
"442 739 LINE",
"321 752 LINE",
"16 270 LINE",
"28 219 LINE",
"337 219 LINE",
"337 55 LINE",
"225 55 LINE",
"225 0 LINE"
);
},
{
closed = 1;
nodes = (
"337 665 LINE",
"337 278 LINE",
"96 278 LINE"
);
}
);
width = 580;
}
);
},
{
glyphname = five.tf;
layers = (
{
layerId = "EE746D13-63D7-48F9-B77E-C723CA6A668B";
paths = (
{
closed = 1;
nodes = (
"425 146 OFFCURVE",
"369 52 OFFCURVE",
"259 52 CURVE SMOOTH",
"188 52 OFFCURVE",
"135 87 OFFCURVE",
"127 121 CURVE",
"162 128 OFFCURVE",
"185 156 OFFCURVE",
"185 188 CURVE SMOOTH",
"185 230 OFFCURVE",
"158 259 OFFCURVE",
"114 259 CURVE SMOOTH",
"60 259 OFFCURVE",
"43 213 OFFCURVE",
"43 178 CURVE SMOOTH",
"43 86 OFFCURVE",
"116 -14 OFFCURVE",
"277 -14 CURVE SMOOTH",
"435 -14 OFFCURVE",
"546 96 OFFCURVE",
"546 247 CURVE SMOOTH",
"546 399 OFFCURVE",
"443 495 OFFCURVE",
"307 495 CURVE SMOOTH",
"219 495 OFFCURVE",
"157 465 OFFCURVE",
"143 455 CURVE",
"168 678 LINE",
"205 664 OFFCURVE",
"279 644 OFFCURVE",
"332 644 CURVE SMOOTH",
"397 644 OFFCURVE",
"468 669 OFFCURVE",
"520 726 CURVE",
"508 754 LINE",
"474 744 OFFCURVE",
"378 734 OFFCURVE",
"332 734 CURVE SMOOTH",
"246 734 OFFCURVE",
"198 743 OFFCURVE",
"137 754 CURVE",
"110 734 LINE",
"68 370 LINE",
"118 360 LINE",
"126 385 OFFCURVE",
"187 440 OFFCURVE",
"272 440 CURVE SMOOTH",
"369 440 OFFCURVE",
"425 364 OFFCURVE",
"425 241 CURVE SMOOTH"
);
}
);
width = 580;
}
);
},
{
glyphname = five_alt.tf;
layers = (
{
layerId = "EE746D13-63D7-48F9-B77E-C723CA6A668B";
paths = (
{
closed = 1;
nodes = (
"219 495 OFFCURVE",
"167 465 OFFCURVE",
"153 455 CURVE",
"186 652 LINE",
"488 652 LINE",
"525 808 LINE",
"478 813 LINE",
"430 740 LINE",
"131 740 LINE",
"71 381 LINE",
"128 368 LINE",
"136 385 OFFCURVE",
"197 440 OFFCURVE",
"272 440 CURVE SMOOTH",
"369 440 OFFCURVE",
"425 364 OFFCURVE",
"425 241 CURVE SMOOTH",
"425 146 OFFCURVE",
"369 52 OFFCURVE",
"259 52 CURVE SMOOTH",
"188 52 OFFCURVE",
"135 87 OFFCURVE",
"127 121 CURVE",
"162 128 OFFCURVE",
"185 156 OFFCURVE",
"185 188 CURVE SMOOTH",
"185 230 OFFCURVE",
"158 259 OFFCURVE",
"114 259 CURVE SMOOTH",
"60 259 OFFCURVE",
"43 213 OFFCURVE",
"43 178 CURVE SMOOTH",
"43 86 OFFCURVE",
"116 -14 OFFCURVE",
"277 -14 CURVE SMOOTH",
"435 -14 OFFCURVE",
"546 96 OFFCURVE",
"546 247 CURVE SMOOTH",
"546 399 OFFCURVE",
"443 495 OFFCURVE",
"307 495 CURVE SMOOTH"
);
}
);
width = 580;
}
);
leftMetricsKey = five.tf;
rightMetricsKey = five.tf;
},
{
glyphname = six.tf;
layers = (
{
layerId = "EE746D13-63D7-48F9-B77E-C723CA6A668B";
paths = (
{
closed = 1;
nodes = (
"427 -13 OFFCURVE",
"535 85 OFFCURVE",
"535 216 CURVE SMOOTH",
"535 359 OFFCURVE",
"440 448 OFFCURVE",
"311 448 CURVE SMOOTH",
"243 448 OFFCURVE",
"182 409 OFFCURVE",
"159 364 CURVE",
"159 493 OFFCURVE",
"207 685 OFFCURVE",
"347 685 CURVE SMOOTH",
"395 685 OFFCURVE",
"427 660 OFFCURVE",
"440 628 CURVE",
"409 626 OFFCURVE",
"374 598 OFFCURVE",
"374 560 CURVE SMOOTH",
"374 525 OFFCURVE",
"395 493 OFFCURVE",
"444 493 CURVE SMOOTH",
"489 493 OFFCURVE",
"516 534 OFFCURVE",
"516 572 CURVE SMOOTH",
"516 651 OFFCURVE",
"458 751 OFFCURVE",
"337 751 CURVE SMOOTH",
"153 751 OFFCURVE",
"44 551 OFFCURVE",
"44 324 CURVE SMOOTH",
"44 81 OFFCURVE",
"167 -13 OFFCURVE",
"291 -13 CURVE SMOOTH"
);
},
{
closed = 1;
nodes = (
"378 384 OFFCURVE",
"420 299 OFFCURVE",
"420 216 CURVE SMOOTH",
"420 122 OFFCURVE",
"368 53 OFFCURVE",
"296 53 CURVE SMOOTH",
"215 53 OFFCURVE",
"167 127 OFFCURVE",
"167 216 CURVE SMOOTH",
"167 295 OFFCURVE",
"220 384 OFFCURVE",
"301 384 CURVE SMOOTH"
);
}
);
width = 580;
}
);
},
{
glyphname = seven.tf;
layers = (
{
layerId = "EE746D13-63D7-48F9-B77E-C723CA6A668B";
paths = (
{
closed = 1;
nodes = (
"509 725 OFFCURVE",
"491 703 OFFCURVE",
"449 703 CURVE SMOOTH",
"375 703 OFFCURVE",
"329 758 OFFCURVE",
"230 758 CURVE SMOOTH",
"168 758 OFFCURVE",
"124 728 OFFCURVE",
"97 685 CURVE",
"97 744 LINE",
"43 744 LINE",
"43 486 LINE",
"97 486 LINE",
"97 639 OFFCURVE",
"164 663 OFFCURVE",
"205 663 CURVE SMOOTH",
"260 663 OFFCURVE",
"311 628 OFFCURVE",
"383 628 CURVE SMOOTH",
"434 628 OFFCURVE",
"461 644 OFFCURVE",
"483 659 CURVE",
"451 586 OFFCURVE",
"358 501 OFFCURVE",
"297 409 CURVE SMOOTH",
"217 289 OFFCURVE",
"179 176 OFFCURVE",
"179 51 CURVE SMOOTH",
"179 7 OFFCURVE",
"205 -14 OFFCURVE",
"244 -14 CURVE SMOOTH",
"283 -14 OFFCURVE",
"309 7 OFFCURVE",
"309 51 CURVE SMOOTH",
"309 174 OFFCURVE",
"332 277 OFFCURVE",
"384 383 CURVE SMOOTH",
"423 462 OFFCURVE",
"523 586 OFFCURVE",
"553 663 CURVE SMOOTH",
"567 699 OFFCURVE",
"571 735 OFFCURVE",
"571 744 CURVE",
"516 744 LINE"
);
}
);
width = 580;
}
);
},
{
glyphname = seven_alt.tf;
layers = (
{
layerId = "EE746D13-63D7-48F9-B77E-C723CA6A668B";
paths = (
{
closed = 1;
nodes = (
"69 749 LINE",
"69 742 LINE",
"43 573 LINE",
"90 568 LINE",
"138 659 LINE",
"492 659 LINE",
"444 593 OFFCURVE",
"364 501 OFFCURVE",
"303 409 CURVE SMOOTH",
"223 289 OFFCURVE",
"187 176 OFFCURVE",
"187 51 CURVE SMOOTH",
"187 7 OFFCURVE",
"213 -14 OFFCURVE",
"252 -14 CURVE SMOOTH",
"291 -14 OFFCURVE",
"317 7 OFFCURVE",
"317 51 CURVE SMOOTH",
"317 174 OFFCURVE",
"338 277 OFFCURVE",
"390 383 CURVE SMOOTH",
"429 462 OFFCURVE",
"522 588 OFFCURVE",
"572 663 CURVE",
"572 749 LINE"
);
}
);
width = 580;
}
);
leftMetricsKey = seven;
rightMetricsKey = seven;
},
{
glyphname = eight.tf;
layers = (
{
layerId = "EE746D13-63D7-48F9-B77E-C723CA6A668B";
paths = (
{
closed = 1;
nodes = (
"115 360 OFFCURVE",
"43 279 OFFCURVE",
"43 193 CURVE SMOOTH",
"43 94 OFFCURVE",
"127 -14 OFFCURVE",
"300 -14 CURVE SMOOTH",
"467 -14 OFFCURVE",
"547 98 OFFCURVE",
"547 193 CURVE SMOOTH",
"547 286 OFFCURVE",
"490 362 OFFCURVE",
"386 392 CURVE",
"453 424 OFFCURVE",
"515 476 OFFCURVE",
"515 569 CURVE SMOOTH",
"515 673 OFFCURVE",
"430 750 OFFCURVE",
"292 750 CURVE SMOOTH",
"162 750 OFFCURVE",
"77 662 OFFCURVE",
"77 559 CURVE SMOOTH",
"77 463 OFFCURVE",
"130 409 OFFCURVE",
"204 378 CURVE"
);
},
{
closed = 1;
nodes = (
"362 318 OFFCURVE",
"426 265 OFFCURVE",
"426 173 CURVE SMOOTH",
"426 112 OFFCURVE",
"384 41 OFFCURVE",
"302 41 CURVE SMOOTH",
"215 41 OFFCURVE",
"164 100 OFFCURVE",
"164 173 CURVE SMOOTH",
"164 275 OFFCURVE",
"228 325 OFFCURVE",
"268 342 CURVE"
);
},
{
closed = 1;
nodes = (
"249 445 OFFCURVE",
"187 493 OFFCURVE",
"187 579 CURVE SMOOTH",
"187 647 OFFCURVE",
"232 695 OFFCURVE",
"292 695 CURVE SMOOTH",
"369 695 OFFCURVE",
"407 637 OFFCURVE",
"407 569 CURVE SMOOTH",
"407 492 OFFCURVE",
"364 444 OFFCURVE",
"330 424 CURVE"
);
}
);
width = 580;
}
);
},
{
glyphname = nine.tf;
layers = (
{
layerId = "EE746D13-63D7-48F9-B77E-C723CA6A668B";
paths = (
{
closed = 1;
nodes = (
"152 754 OFFCURVE",
"44 656 OFFCURVE",
"44 525 CURVE SMOOTH",
"44 382 OFFCURVE",
"139 293 OFFCURVE",
"268 293 CURVE SMOOTH",
"336 293 OFFCURVE",
"381 329 OFFCURVE",
"420 377 CURVE",
"420 258 OFFCURVE",
"392 52 OFFCURVE",
"242 52 CURVE SMOOTH",
"204 52 OFFCURVE",
"152 67 OFFCURVE",
"139 109 CURVE",
"170 111 OFFCURVE",
"205 139 OFFCURVE",
"205 177 CURVE SMOOTH",
"205 212 OFFCURVE",
"184 244 OFFCURVE",
"135 244 CURVE SMOOTH",
"90 244 OFFCURVE",
"63 203 OFFCURVE",
"63 165 CURVE SMOOTH",
"63 86 OFFCURVE",
"121 -14 OFFCURVE",
"252 -14 CURVE SMOOTH",
"446 -14 OFFCURVE",
"535 190 OFFCURVE",
"535 417 CURVE SMOOTH",
"535 660 OFFCURVE",
"412 754 OFFCURVE",
"288 754 CURVE SMOOTH"
);
},
{
closed = 1;
nodes = (
"201 357 OFFCURVE",
"159 442 OFFCURVE",
"159 525 CURVE SMOOTH",
"159 619 OFFCURVE",
"211 688 OFFCURVE",
"283 688 CURVE SMOOTH",
"364 688 OFFCURVE",
"412 614 OFFCURVE",
"412 525 CURVE SMOOTH",
"412 446 OFFCURVE",
"359 357 OFFCURVE",
"278 357 CURVE SMOOTH"
);
}
);
width = 580;
}
);
},
{
glyphname = zero.tosf;
layers = (
{
guideLines = (
{
position = "{250, 265}";
}
);
layerId = "EE746D13-63D7-48F9-B77E-C723CA6A668B";
paths = (
{
closed = 1;
nodes = (
"463 -11 OFFCURVE",
"546 142 OFFCURVE",
"546 312 CURVE SMOOTH",
"546 482 OFFCURVE",
"463 634 OFFCURVE",
"290 634 CURVE SMOOTH",
"117 634 OFFCURVE",
"34 482 OFFCURVE",
"34 312 CURVE SMOOTH",
"34 142 OFFCURVE",
"117 -11 OFFCURVE",
"290 -11 CURVE SMOOTH"
);
},
{
closed = 1;
nodes = (
"188 59 OFFCURVE",
"155 189 OFFCURVE",
"155 312 CURVE SMOOTH",
"155 436 OFFCURVE",
"188 568 OFFCURVE",
"290 568 CURVE SMOOTH",
"392 568 OFFCURVE",
"425 436 OFFCURVE",
"425 312 CURVE SMOOTH",
"425 187 OFFCURVE",
"392 59 OFFCURVE",
"290 59 CURVE SMOOTH"
);
}
);
width = 580;
}
);
},
{
glyphname = one.tosf;
layers = (
{
guideLines = (
{
angle = 180;
position = "{332, 620}";
}
);
layerId = "EE746D13-63D7-48F9-B77E-C723CA6A668B";
paths = (
{
closed = 1;
nodes = (
"294 620 LINE",
"265 537 OFFCURVE",
"188 507 OFFCURVE",
"60 502 CURVE",
"60 447 LINE",
"111 438 OFFCURVE",
"210 439 OFFCURVE",
"262 462 CURVE",
"262 55 LINE",
"61 55 LINE",
"61 0 LINE",
"570 0 LINE",
"570 55 LINE",
"368 55 LINE",
"369 620 LINE"
);
}
);
width = 580;
}
);
},
{
glyphname = one_alt.tosf;
layers = (
{
guideLines = (
{
angle = 180;
position = "{332, 620}";
}
);
layerId = "EE746D13-63D7-48F9-B77E-C723CA6A668B";
paths = (
{
closed = 1;
nodes = (
"80 620 LINE",
"80 560 LINE",
"261 560 LINE",
"261 55 LINE",
"60 55 LINE",
"60 0 LINE",
"570 0 LINE",
"570 55 LINE",
"368 55 LINE",
"368 620 LINE"
);
}
);
width = 580;
}
);
leftMetricsKey = one.tosf;
rightMetricsKey = one.tosf;
},
{
glyphname = two.tosf;
layers = (
{
layerId = "EE746D13-63D7-48F9-B77E-C723CA6A668B";
paths = (
{
closed = 1;
nodes = (
"481 119 OFFCURVE",
"444 91 OFFCURVE",
"403 91 CURVE SMOOTH",
"328 91 OFFCURVE",
"321 130 OFFCURVE",
"239 130 CURVE SMOOTH",
"192 130 OFFCURVE",
"158 118 OFFCURVE",
"136 96 CURVE",
"156 146 OFFCURVE",
"198 167 OFFCURVE",
"263 197 CURVE SMOOTH",
"363 243 OFFCURVE",
"503 313 OFFCURVE",
"503 441 CURVE SMOOTH",
"503 549 OFFCURVE",
"423 634 OFFCURVE",
"278 634 CURVE SMOOTH",
"146 634 OFFCURVE",
"61 533 OFFCURVE",
"61 452 CURVE SMOOTH",
"61 407 OFFCURVE",
"88 374 OFFCURVE",
"139 374 CURVE SMOOTH",
"184 374 OFFCURVE",
"216 408 OFFCURVE",
"216 445 CURVE SMOOTH",
"216 483 OFFCURVE",
"182 509 OFFCURVE",
"147 512 CURVE",
"158 532 OFFCURVE",
"197 568 OFFCURVE",
"262 568 CURVE SMOOTH",
"343 568 OFFCURVE",
"387 511 OFFCURVE",
"387 437 CURVE SMOOTH",
"387 333 OFFCURVE",
"300 290 OFFCURVE",
"228 254 CURVE SMOOTH",
"131 205 OFFCURVE",
"45 150 OFFCURVE",
"45 0 CURVE",
"127 0 LINE",
"127 43 OFFCURVE",
"156 65 OFFCURVE",
"188 65 CURVE SMOOTH",
"270 65 OFFCURVE",
"277 -14 OFFCURVE",
"388 -14 CURVE SMOOTH",
"484 -14 OFFCURVE",
"535 63 OFFCURVE",
"535 201 CURVE",
"481 201 LINE"
);
}
);
width = 580;
}
);
},
{
glyphname = two_alt.tosf;
layers = (
{
guideLines = (
{
angle = 219.7529;
position = "{239, 133}";
},
{
angle = 219.7529;
position = "{138, 133}";
}
);
layerId = "EE746D13-63D7-48F9-B77E-C723CA6A668B";
paths = (
{
closed = 1;
nodes = (
"439 88 LINE",
"185 88 LINE",
"292 177 LINE SMOOTH",
"385 255 OFFCURVE",
"492 337 OFFCURVE",
"492 451 CURVE SMOOTH",
"492 549 OFFCURVE",
"429 634 OFFCURVE",
"279 634 CURVE SMOOTH",
"164 634 OFFCURVE",
"54 543 OFFCURVE",
"54 472 CURVE SMOOTH",
"54 427 OFFCURVE",
"81 384 OFFCURVE",
"132 384 CURVE SMOOTH",
"177 384 OFFCURVE",
"209 418 OFFCURVE",
"209 455 CURVE SMOOTH",
"209 493 OFFCURVE",
"175 519 OFFCURVE",
"140 522 CURVE",
"154 539 OFFCURVE",
"183 568 OFFCURVE",
"253 568 CURVE SMOOTH",
"339 568 OFFCURVE",
"376 501 OFFCURVE",
"376 437 CURVE SMOOTH",
"376 347 OFFCURVE",
"323 285 OFFCURVE",
"248 224 CURVE",
"45 55 LINE",
"45 0 LINE",
"508 0 LINE",
"535 176 LINE",
"488 181 LINE"
);
}
);
width = 580;
}
);
leftMetricsKey = two.tosf;
rightMetricsKey = two.tosf;
},
